<?xml version="1.0" encoding="UTF-8"?>
<svg id="Layer_1" xmlns="http://www.w3.org/2000/svg" version="1.1" viewBox="0 0 743.7 167.7">
  <!-- Generator: Adobe Illustrator 29.1.0, SVG Export Plug-In . SVG Version: 2.1.0 Build 142)  -->
  <defs>
    <style>
      .st0 {
        fill: #fff;
      }
    </style>
  </defs>
  <path class="st0" d="M176.7,141.7c.2.4.2.7,0,.8l-1.7,1.7c-1.1.9-1.7,1.7-1.7,2.2-.4.6-.7.8-.8.8s-.3.2-.3.6-.4.6-1.1.6l-1.1,1.1c-.6.6-1.8,1.6-3.8,3.2-1.9,1.6-4.1,3.2-6.4,4.7-2.3,1.6-4.5,3.1-6.7,4.5-2.1,1.4-3.7,2.3-4.6,2.6-.4.2-1.2.4-2.4.6-1.2.2-1.9.3-2.1.3-.7.4-1.9.6-3.6.6s-1.7,0-3.3-.3c-1.7-.2-3.3-.6-5-1.1-1.7-.6-3.2-1.3-4.5-2.4-1.3-1-1.9-2.3-1.7-3.8-.2-.7-.4-1.1-.6-1.1-.7.4-1.1-.8-1.1-3.6s.5-5.7,1.4-8.9c.4-2,.8-3.7,1.4-5,.6-1.3,1.8-3.8,3.6-7.5,1.1-2.2,2.3-4.5,3.6-6.8,1.3-2.3,2.2-3.9,2.8-4.9.7-1.1,1.4-2.4,2.1-3.8.6-1.4,1.3-2.5,2.1-3.5l2.5-4.5c0-.4.3-1,1-1.9.6-.9,1.2-1.9,1.5-2.8.9-1.1,1.6-2,1.9-2.8.4-.7.6-1.2.8-1.4l2.2-3.9,3.3-4.7,1.9-3.1.6-1.1c-.6.2-1.2.3-1.9.3-.6.2-1.6.3-3.1.4-1.5,0-2.5.1-3.1.1-1.7.2-3.8.4-6.3.6-2.5.2-4.7.5-6.5.8-1.9.4-3,.6-3.3.6l-7,.8-4.5.8c-1.7.4-3.3.8-5,1.3-1.7.5-3.3.9-5,1.3l-5.3.8c-2,.4-3.5.7-4.5,1.1-.9.6-2.4,1.2-4.3,1.8-1.9.7-5.1,2.7-9.6,6.3-3.7,3-7.3,5.9-10.9,8.9-3.5,3-6.7,5.7-9.6,8.2-2.9,2.5-5.3,4.5-7.2,6.1-1.9,1.6-3,2.4-3.2,2.4s-.4,0-.6.3c-.4.4-.6.7-.6.8-.4.4-.5.6-.3.6-.4,0-.6.2-.6.6l-1.4.8c-.4.2-.7.3-1.1.4-.4,0-.6.2-.6.4,0,.4-.7,1.1-1.9,2.2-1.9,1.1-3.7,2.5-5.6,4.2-1.3,1.7-2.1,2.5-2.5,2.5-.4.4-.6.7-.6.8-.4.2-.7.5-1,.8-.3.4-.7.7-1.3,1.1-.7.4-1.3.8-1.8,1.3s-.8.8-1,1l-10.3,8.4-1.1,1.1c-.6,0-1.5.5-2.8,1.4-1.3.9-2.1,1.3-2.4,1.3-.3,0,0-.6.7-1.5.9-.9.9-1.3,0-1.1-.7.2-.9,0-.6-.8h-1.7l-7.5,1.9.8-1.7c.4-.7-.2-1.2-1.8-1.3-1.6,0-2.8,0-3.8.4-.7.2-.8,0-.3-.8.9-1.5.3-1.3-1.9.6,0,.7-.2.9-.6.6,0-.2.3-.6.8-1.1.4-.2.6-.6.6-1.1,0-1.1-.7-1.9-1.9-2.2-.6,0-.6-.2,0-.6.9-.6,1.3-.9,1.1-1.1,0-.4.3-.8.8-1.4,1.1-.6,1.4-.8.8-.8l-1.4.8c-1.1,1.1-1.9,1.4-2.2.8,0-.2.7-1.2,2.2-3.1,1.3-1.5,3.2-3.6,5.6-6.3,2.4-2.7,4.7-5.1,7-7.1.9-.9,2-2,3.2-3.3,1.2-1.3,2.5-2.5,3.8-3.6,2.2-2.2,4.3-4.2,6.1-6,1.9-1.8,4.4-3.9,7.5-6.5l6.1-5.6c.4-.2.6-.4.8-.7.2-.3.5-.5.8-.7.4-.2.6-.4.8-.6.4-.2.8-.5,1.3-1s1.2-1.1,2.1-1.8l3.6-2.8c.4,0,.8-.3,1.4-.8,0-.6,1-1.4,3.1-2.5.4-.4.7-.6,1-.7.3,0,.6-.3,1-.7.4-.2.7-.5,1.1-.8.2-.2.6-.5,1.3-1,.6-.5,1.3-1,1.8-1.5,3-2,4.1-3.1,3.3-3.1s-.7-.3-.3-.8c0-.4-.2-.4-.6,0-.4.2-.6.2-.6,0,0-.6-.2-.6-.6-.3-.7,0-1.1-.2-1.1-.6l-.6-.8,1.4-.6c.6-.4.9-.6,1.1-.8.2-.2-.2-.2-1.1,0-.9.2-1.1,0-.6-.6s1.2-1.1,1.4-1.1c.4-.2.7-.4,1-.7s.1-.5-.4-.7c-.6,0-.7-.2-.3-.6,0-.4,1-.9,3.1-1.7,2-.7,4.5-1.6,7.2-2.5,3.2-.9,5.6-1.7,7.2-2.2,1.7-.6,3.1-1.1,4.3-1.7,1.2-.6,2.5-1.3,3.8-2.2,1.3-.9,3.2-2.3,5.6-4.2l5.8-4.2,3.6-2.8c.4-.4.8-.7,1.4-1.1.6-.4,1.1-.7,1.7-1.1l22.5-15.9c5.2-3.7,10.8-7.5,16.8-11.4,6-3.9,11.6-7.5,16.6-10.7,5-3.2,9.2-5.9,12.7-7.9,3.4-2,5.2-3.1,5.4-3.1s.4,0,.7-.3c.3-.2.6-.4,1-.6.9-.7,2.3-1.5,4.2-2.4,1.9-.8,3.3-1.4,4.5-1.8.6-.2,1.5-.4,2.8-.7,1.3-.3,2.7-.5,4.2-.7,1.5-.2,3-.3,4.6-.4,1.6,0,2.8-.1,3.8-.1,5.4,0,8.7,1.7,10,5,1.3,3.3.4,9.5-2.8,18.4-.7,2-2,5.3-3.8,9.9-1.8,4.5-4.2,10.3-7.4,17.4-2.6,5.9-3.8,8.9-3.6,8.9h5.6c2.6,0,3.9.3,3.9.8s-.2,1.4-.6,3.2c-.4,1.8-.6,2.7-.6,2.9,0,.9,0,1.6-.3,1.9v1.1c0,.2,0,.5-.3.8-.2.4,0,.7.3,1.1,0,.6,0,1-.1,1.4,0,.4-.1.7-.1,1.1-.7.7-1.1,1.2-1.1,1.4.2.2.6.8,1.1,1.9.6,1.1.3,1.9-.8,2.2-1.1.4-1.9.5-2.5.3-.6-.2-1.5,0-2.8.3-.4,0-1.2,0-2.5.1-1.3,0-2.6.2-4,.3-1.4,0-2.7.2-3.9.4-1.2.2-1.9.4-2.1.6-.4.9-.8,1.6-1.4,1.9,0,.2-.1.6-.4,1.1-.3.6-.6,1.3-1,2.2-.7,1.3-1.6,2.8-2.5,4.5-.9,1.7-1.7,3-2.2,3.9l-1.9.8v1.1c.4-.2.5,0,.4.6,0,.6-.2,1-.4,1.4-.2,0-.5.5-1,1.4-.5.9-1,1.9-1.5,3.1-.9,1.1-1.8,2.3-2.5,3.6-.7,1.3-1.3,2.2-1.7,2.8-4.5,7.4-7.8,13.2-10.2,17.4-2.3,4.2-3.7,6.4-4,6.5.2.2,1.4,0,3.6-.8,2.2-.7,3.7-1.4,4.5-1.9.9-.7,1.8-1.2,2.5-1.4.7-.2,1.1,0,1.1.6.2.4.4.5.6.3.6-.6,1.3-.6,2.2,0,.9.6,1.2,1,.8,1.4-.6.6-.7.8-.3.8.6.4.6.7,0,1.1,0,.6.3.9.8,1.1.7.6.9.9.6,1.1,0,.4,0,.7-.3.8-.2.2-.2.4,0,.6.4.2.5.6.3,1.1-.4.4-.4.7,0,1.1ZM6.1,146.4c-.2.4,0,.3.6-.1.6-.5.8-.9.8-1.3.4-.2.4-.2.1-.1-.3,0-.5.2-.7.4,0,.2-.3.6-.8,1.1ZM44.2,131.4c-.7.6-1.1.9-1.1,1.1l.8-.6.8-.8c0-.2-.2,0-.6.3ZM62.6,111.9c-.2-.6-.2-.9,0-1.1.2-.4.4-.5.6-.4.2,0,0,.2-.3.4.4.6.6.8.8.8l-.3-1.4c.4-.4.6-.4.6,0,.4,0,.8,0,1.3-.3.5-.2.7-.5.7-.8l1.1-1.4-.8.6c.9-1.3,1.6-2.1,2.1-2.4.5-.3.4,0-.1.7,0,.4.1.5.4.3.3-.2,1.2-1,2.6-2.5.9-.4,1.6-.9,2.1-1.5.5-.6.8-1,1-1l.6-.6v-.3c-.4,0-.9.5-1.7,1.4-.7.2-.7-.5.3-1.9,1.7-1.5,2.3-2.1,1.8-1.8-.5.3-1.8,1.3-4,3.2l-3.6,3.6c-.2,0-.5.2-1,.6-.5.4-.7.7-.7.8,0-.2,0,0-.3.8-.6.2-1.1.5-1.5,1s-.9.8-1.3,1c0,.2,0,.4-.3.6h-.3c-.2,0-.5.1-.8.4-.4.3-.7.6-1.1,1-1.3,1.1-2.1,1.6-2.5,1.4,0,.2,0,.4-.3.6s-.3.4-.4.6c0,.2-.3.5-.7.8-1.1.9-1.9,1.7-2.5,2.4-.6.7-1,1-1.4,1-.2.2-.4.3-.6.3-.2.2-.3.4-.3.6-.6.4-1,.7-1.4,1.1s-.6.4-.6,0c-1.1.9-1.6,1.4-1.4,1.4,0,.4-.5,1-1.5,1.9-1,.9-1.8,1.2-2.4.8-.2.4-.4.7-.7.8-.3.2-.4.4-.4.6.2.4.4.4.6.1.2-.3.8-.6,1.9-1,.7-.6,1.5-1.1,2.2-1.5.7-.5,1-.9.8-1.3l6.7-4.7c0,.2,0,.3.3.4.2,0,.3,0,.3-.4v-.3c0,.2,0,.2-.3,0h-.3c-.4-.2-.2-.5.4-1,.6-.5,1.2-.6,1.5-.4.2,0,.3,0,.3-.3-.2,0,0-.4.8-1.3.7-.8,1.6-1.4,2.5-1.8.4,0,.6,0,.7-.1,0,0,.2-.1.4-.1s.3,0,.3-.3ZM46.4,129.2l-1.1,1.1c.2.2.6-.2,1.1-1.1ZM47.8,128c.2,0,.4-.2.7-.7.3-.5.8-.9,1.5-1.3,1.3-.9,1.9-1.7,1.9-2.2-.2,0-.5.2-.8.7-.4.5-.9.9-1.7,1.3l-1.7,2.2ZM65.6,108.6l.6-.3-1.4,1.1.8-.8ZM70.7,107.2c-.7.6-1.1.9-1.1,1.1l.8-.6.8-.8c0-.2-.2,0-.6.3ZM73.2,104.9l-1.1,1.1c.2.2.6-.2,1.1-1.1ZM74.8,103.8c.2,0,.4-.2.7-.7.3-.5.8-.9,1.5-1.3,1.5-.9,2.2-1.7,2.2-2.2-.2,0-.5.2-.8.7-.4.5-.9.9-1.7,1.3l-1.9,2.2ZM113.5,85.7c-.4.2-1.1.3-2.1.3s-2,0-3.1.1c-1,0-1.9.1-2.8.1s-1.3,0-1.3.3c0,.4,2.7.3,8.1-.3.6,0,1.3-.2,2.1-.7.8-.5.5-.4-1,.1ZM190.1,31.2c-.2,0-.3,0-.4.1,0,0-.2.1-.4.1l-.6,1.1c-1.1,1.7-1.6,2.3-1.4,1.8.2-.5.6-1.3,1.4-2.6l-6.7,2.8-3.1,1.7-2.8,1.7c-1.1.6-2.3,1.2-3.5,1.9-1.2.7-3.4,2-6.5,3.9-3.9,2.2-5.4,2.9-4.5,1.9,0-.2,0-.3-.3-.3-.4,0-.7.2-1.1.6-.4.4-.5.7-.3,1.1-.2.6-.5.7-.8.3-.4,0-1.3.4-2.6,1.3-1.4.8-4,2.6-7.9,5.1l-22,15.9h1.7c.2,0,.6,0,1.1-.1.6,0,1.9-.3,3.9-.6,2-.3,5.2-.7,9.5-1.3,4.3-.6,10.2-1.3,17.8-2.2.6,0,1.6,0,3.2-.1,1.6,0,3.1-.2,4.6-.4l14.5-21.4,7.2-12.2ZM146.6,51.2c-.2-.4-.2-.6,0-.8h.3l.3.6v-.8c.2-.2.3-.2.3,0,.7,0,1.1-.2,1.1-.6l.6-.6,1.1-.8c0,.6.9,0,2.8-1.4.7-.4,1.2-.7,1.4-1.1-.4,0-.4-.4,0-1.1l-1.1.6c-.9.9-1.6,1.5-1.9,1.7-.4.2-.7.4-.8.6-.2,0-.5,0-.8.3-.4.2-.6.4-.6.6l-.6.6c-.4,0-.7.1-1,.4l-.7.7c0,.2,0,.3-.3.3h-.3l-.3.3c-.4.4-.7.6-.8.6-.7.4-1.2.7-1.4.8-.2.2-.5.2-.8,0-.2,0-.3,0-.3.3-.2.2-.3.3-.3.4s0,.2-.3.4c-.9.6-1.5,1-1.8,1.4-.3.4-.6.6-1,.6-.2.2-.4.3-.6.3s-.4,0-.6.3c-.7.6-1.1.7-1.1.6-.6.6-.9.8-1.1.8h-.3c0,.4-.3.8-.8,1.3-.6.5-1,.6-1.4.4-.2.2-.3.3-.4.3s-.2,0-.4.3c-.2.2-.4.3-.6.3,0,.4,0,.5.3.3s.7-.5,1.7-.8c1.5-.7,2.2-1.2,2.2-1.4.6-.4,1.5-.9,2.8-1.7,1.3-.7,2-1.1,2.2-1.1h.3v-.3c0,.2,0,.2-.3,0-.2-.2,0-.4.3-.7.4-.3.6-.3.8-.1.2,0,.3,0,.3-.3-.2,0,0-.2.6-.6.6-.4,1.1-.7,1.7-1.1.4,0,.6,0,.8-.1.2,0,.4-.1.6-.1h.3ZM141.6,83.8c3.3-.2,6-.4,7.9-.7,1.9-.3,3.8-.6,5.4-1,1.7-.4,2.7-.6,3.1-.8l-16.4,2.5ZM148.6,49.3c-.4.4-.3.4.3,0l.6-.6-.8.6ZM163.1,121.1c-.4-.2-.4-.5,0-.8,0-.4,0-.5.3-.4.2,0,.2.2,0,.4.2.4.4.5.6.3-.2-.2-.2-.3-.1-.3s0-.2-.4-.6c.2-.2.4-.3.6-.3.6,0,.8-.4.8-1.1l.3-1.1-.3.6c.4-1.1.6-1.8.8-2.1.2-.3.2-.1,0,.4,0,.4.1.5.4.3.3-.2.7-1,1.3-2.5,1.1-1.5,1.6-2.2,1.4-2.2v-.8c-.6,0-.8.4-.8,1.1-.4.7-.6.6-.6-.6l.8-.8.6-1.1-.6.3c.4-.6.3-.6-.1-.1s-1,1.3-1.5,2.6l-1.7,3.3c-.2,0-.4.2-.6.6-.2.4-.2.7,0,.8,0,.2,0,.2-.1.1,0,0-.1,0-.1.4-.7.7-1.1,1.4-1.1,1.9v.3l-.3.3c.2,0-.2.5-1.1,1.4-.4,1.1-.7,1.6-1.1,1.4-.2.2-.3.4-.3.6s0,.4-.1.6c0,.2-.1.5-.1.8-1.1,2-1.8,3.1-1.9,3.1v.8l-1.1,1.4c-.7,1.1-.9,1.5-.6,1.1.2.4,0,1-.6,1.8-.6.8-1,1.3-1.4,1.3-.2.2-.3.6-.3,1.1s.5-.3,1.4-1.4c1.1-1.1,1.6-1.9,1.4-2.5l3.3-4.7c.2.2.3.3.4.3s0,0-.1-.3c0-.4,0-.6.1-.7,0,0,0,0-.1.4,0,.2,0,.2-.3,0-.4-.2-.4-.5-.1-1,.3-.5.6-.6,1-.4.2,0,.3,0,.3-.3-.2,0-.1-.4.1-1.1.3-.7.7-1.3,1.3-1.7l.6-.6v-.3ZM155.3,44.8c-.2,0-.3,0-.3.1s0,.1-.3.1h.3l.3-.3ZM156.4,86.3c-.2.2.2.3,1.1.3l.3-.6-1.4.3ZM162.2,137c.2-.2.2-.3,0-.3s-.4,0-.6.3v.6l.6-.6ZM164.5,118.3c-.4.4-.5.6-.4.6s.3-.4.7-1.1l-.3.6ZM167.2,39.8c.2-.4.5-.7.8-1,.4-.3.7-.6,1.1-1-.6.2-1,.4-1.4.7-.4.3-.7.5-.8.7-.6.6-1.1.8-1.7.8-.4.6-.5.8-.3.8.6,0,1.3-.4,2.2-1.1ZM167.5,110.5c-.2.2-.3.5-.3.8,0-.2,0-.3.1-.3s.1,0,.1-.3v-.3ZM167.8,110.2c0-.2,0-.4.3-.6v.3l-.3.3ZM169.7,107.2c-.6.6-.8,1-.8,1.4.2.2.6-.4,1.1-1.7.2-.4,0-.3-.3.3ZM170.6,105.8c.2,0,.4-.3.6-.8.2-.6.6-1.1,1.1-1.7,1.1-1.7,1.5-2.6,1.1-2.8-.2.2-.4.5-.6.8-.4.7-.7,1.4-1.1,1.9l-1.1,2.5ZM174.5,138.6c.4,0,.6-.2.6-.6.4-.4.2-.4-.6,0-.2,0-.3.2-.3.6-.2.2,0,.2.3,0ZM182.6,97.7l.6-.6c1.1-.6,1.6-.7,1.4-.6-.2.2-.8.6-1.9,1.1ZM187.3,77.1c.4-.4.5-.5.4-.4,0,0-.3.3-.7.7-.4.4-.7.7-1,1-.3.3-.4.5-.4.7-.2.2-.3.4-.4.6,0,.2-.3.4-.7.6-.2.6-.2.8,0,.8.4,0,.8-.5,1.4-1.4.2-.4.4-.8.7-1.3.3-.5.5-.9.7-1.3ZM189.8,25.9c-.2,0-.3.2-.3.6.2-.2.3-.4.3-.6ZM197.6,58.2c.4-.4.6-.6.6-.8,0-.7.2-1.1.6-1.1.2-.2.3-.4.3-.6s0-.3.3-.3l.8-1.7,1.7-3.9,1.7-2.8c.2-.7.5-1.5.8-2.2.4-.7.7-1.5,1.1-2.4.4-.8.7-1.7,1.1-2.6,2.2-4.6,3.2-7,2.8-7s-.8.8-1.9,2.5c-.4.6-.7,1.2-1.1,1.9-.2.4-.4.7-.6.8s-.3.4-.3.6c.2.2-.2,1.2-1.1,3.1-1.1,1.7-1.8,2.7-1.9,3.2-.2.5-.8,1.7-1.9,3.8-.6,1.1-1.2,2.4-1.8,3.8-.7,1.4-1.3,2.6-2.1,3.8-.9,1.5-1.4,2.5-1.5,2.9,0,.5,0,.9.4,1.3.4.2.7,0,1.1-.6.2-.2.3-.3.3-.4s0-.2.3-.4c0-.2,0-.4.3-.6-.2-.2,0-.3.3-.3ZM196.5,49.3c-.6.6-.8,1-.8,1.4l.8-.8.6-1.1c0-.4-.2-.2-.6.6ZM198.1,46.5c-.6.6-.8,1-.8,1.4.2.2.6-.4,1.1-1.7.2-.4,0-.3-.3.3ZM199,45.1c.2,0,.4-.3.6-.8.2-.6.6-1.1,1.1-1.7,1.1-1.7,1.5-2.6,1.1-2.8-.2.2-.4.5-.6.8-.4.7-.7,1.4-1.1,1.9l-1.1,2.5Z"/>
  <path class="st0" d="M210.1,85.2c.6-.6.5-.6-.3-.3-.4.4-.6.7-.6.8.9-2.8,1.4-4.5,1.4-5l-.3-.3.8-1.4.3-.3h.3c.4,0,.9-.2,1.7-.6-.6,0-.9,0-1.1-.3.7-1.1,1.4-1.9,1.9-2.2l-.6-.3.6-.3c-.6-.6-.7-1-.3-1.4l.3-.3v.3c.2.6.4.8.6.8s.3,0,.3.3c.2,0,.4,0,.6-.3v.6c.2,0,.4,0,.6.3.4-.4.6-.6.8-.6.6,0,.5.2-.3.6.4,1.1.8,1.2,1.4.3,0-.4.2-.4.6,0-.2.4-.2.9-.1,1.5,0,.7.2,1,.4,1s.3.2.3.6c-.2.2-.4.2-.6,0-.2-.4-.4-.4-.6,0-.2.4-.7,1.6-1.7,3.6v1.4c.4-.6.6-.7.8-.6l.3-.6c-.4-.4-.6-.6-.6-.7s0,0,.3.1c0,.2.1.1.4-.1.3-.3.5-.6.7-1-.2-.4-.2-.7,0-1,.2-.3.3-.2.3.1.2.4.5.2.8-.4.4-.6.6-1.2.6-1.5-.4-.9-.2-1.2.6-.8.2.2.6.4,1.4.7.7.3,1.1.5,1.1.7-.4.6-.2.8.6.8-1.1,3-2.2,5.5-3.2,7.5-1,2-2.1,4.2-3.3,6.5-1.2,2.3-2.4,4.3-3.5,6,1.1-1.7,2.3-3.6,3.6-5.8,1.3-2.2,2.6-4.4,3.9-6.4,1.3-2,2.5-3.9,3.8-5.7,1.2-1.8,2.3-3,3.2-3.8.2-.2.3-.2.3,0s0,.4-.3.6l-.6.6c.2,0,.6-.2,1.4-.6.4-.4.6-.6.6-.7s-.2,0-.6.1c-.4.2-.5,0-.3-.3l.8-.8c.4-.4.7-.7,1.1-1.1.7-1.1,1.8-1.9,3.1-2.5.4-.2.7-.5,1.1-.8l.6-.6c.2-.2.4-.3.6-.3.2.4.5.4.8,0,.4-.4,1.3-.9,2.8-1.5,1.5-.6,2.4-1,2.8-1s.4,0,.7-.1c.3,0,.5-.1.7-.1-.4-.4,0-.6.8-.6l1.9-.6c.7-.4,1.7-.5,2.9-.3,1.2.2,2.1.4,2.6.6,1.7.4,3.5,1.5,5.4,3.3,1.9,1.9,3.8,3.9,5.4,6.1,1.7,2.2,3.1,4.5,4.2,6.8,1.1,2.3,1.7,4.1,1.7,5.4s-.3,0-1-1.1c-.7-1.1-1.4-2.1-2.4-3.1l.3.3c.4,1.1.8,2.4,1.4,3.9.6,1.5,1,2.7,1.3,3.8.3,1,.4,1.8.4,2.2s-.4.3-1.1-.4c-.4-.4-.5-.6-.4-.8,0-.2,0-.5-.1-.8-.6-.4-.9-.6-1.1-.6s0-.4.3-1.1c.2-.7.3-1.2.3-1.4l-1.1-.6v.3c0-.2-.3-.5-.8-.8h-.6l.6,2.2,1.1,3.3c-.2-.2-.2-.3-.1-.3s0,0-.4-.3c-.4.7-.6,1.6-.6,2.5l.3,2.2-1.4-.8c-.7-.7-1.2-1.3-1.4-1.7v-1.1c0-.2,0-.4.3-.6h-.8c.6-.2.5-.9-.3-2.2,0,.6,0,.8-.3.8s-.3-.3-.3-.8,0-.7-.3-.6-.2.9,0,2.2c.7.7,1,1.1.8,1.1l-.3.3c0,.2,0,.3-.1.4s-.1.2-.1.4v.3l.8,1.1v.8c.4.6,0,1.3-1.1,2.1-1.1.8-1.9,1-2.2.4-.7-.4-1.1-.8-1.1-1.4l-.6-.8.3,1.1c-.9,1.7-1.5,1.8-1.7.3-.2-.4-.3-.3-.4.1,0,.5-.1.5-.1.1-.4-2.6-1.1-4.8-2.2-6.7-1.1-1.9-2.2-3.5-3.3-5-.9.7-1.8,1.4-2.5,1.9-.7.6-1.5,1.1-2.2,1.7-.7.7-1.5,1.3-2.2,1.7-4.3,3.7-8.2,8-11.7,12.9-3.5,4.9-7.1,10.2-10.9,15.7-.6.9-1.4,2.4-2.5,4.5-1.1,2-2.2,4.2-3.3,6.4-1.1,2.2-2.1,4.3-3.1,6.3-.9,1.9-1.5,3.3-1.7,4l-3.6,7.5c-.7.6-1.1,1.1-1.1,1.7-1.3,1.3-1.7,1.2-1.1-.3-.4-.6-.6-.7-.6-.3-.2.4-.4.7-.6,1-.2.3-.5.6-.8,1-.4.6-.7,1-1.1,1.4l-.8-.8c-1.3-.6-1.9-1-1.7-1.4.2-.2.3-.5.3-.8v-.3c-.2,0-.3,0-.3.3-.4.6-.7.8-.8.7-.2,0-.2-.4,0-1l.6-1.1-1.7.8c-.6.6-.8.6-.8,0h-.3c-.4,0-.4-.3,0-.8-.4-.7-.6-.8-.6-.3-.7.4-.9.4-.6,0h-.6c-.2,0-.4,0-.6-.3-.7,0-1.1-.4-1.1-1.1.2-.4.2-.6,0-.7-.2,0-.2,0,0,.1-.7,0-1.7-.3-2.8-.8-.4-.4-.2-.6.6-.6s1-.4.8-1.1c0-.4,0-.6-.3-.8-.4.2-.8.4-1.3.7-.5.3-.6.2-.4-.1-.2-1.3,0-2.2.4-2.6.5-.5.5-.7.1-.7-.7,0-1.1.4-1.1,1.1-.2.7-.5.8-.8.3-.2-.4-.3-.4-.3,0,.2.4,0,.5-.3.3-.4-.2-.6-.4-.7-.6,0-.2-.3-.5-.7-.8.2-.4.2-.5.1-.4,0,0-.2.3-.4.7.4.9.4,1.2.1.8-.3-.4-.5-1.1-.7-2.2-.6-2.4-.6-4.9,0-7.5,0-.2.2-.7.6-1.7.4-.9.8-1.9,1.4-3.1.6-1.1,1.2-2.6,1.9-4.5l-.3-.3c.4.2.8-.3,1.3-1.5.5-1.2,1.1-2.3,1.8-3.2.4-.9.6-1.5.7-1.7,0-.2.2-.2.4,0,.2,0,.3-.2.3-.6-.4-.2-.6-.3-.6-.4s0,0,.3.1c.4,0,.6-.2.6-.6.4-.2.6-.3.6-.4s0-.1-.3-.1-.3,0-.3-.3,0-.3.1-.4c0,0,.1,0,.1.1.4.2.6,0,.8-.6.2-.6.2-.9,0-1.1-.2-.2-.2-.3-.1-.4s.2,0,.4.1l1.1-1.9c0-.6.3-1.1.8-1.5.6-.5.9-.9,1.1-1.3v-.6c0-.2,0-.3.3-.3,0-.4,0-.8.3-1.4,2-3.3,4.2-7.7,6.5-12.9,2.3-5.3,4.6-10.1,6.8-14.3-.4.9-.5,1.8-.4,2.6,0,.8-.3,1.3-1.3,1.5,0,.4,0,.9-.1,1.7,0,.7-.4,1.5-1,2.2,0-.4,0-.6-.1-.7,0,0-.1,0-.1.1l.3.6c-.4.6-.7,1.1-1.1,1.5-.4.5-.6.8-.6,1s-.1.5-.4,1c-.3.5-.3,1-.1,1.5l.8-1.7,1.4-2.5v.8l1.7-4.5.6.3v-.3c0-.2,0-.4.3-.6ZM200.6,107.7c.4-.4.4-.8,0-1.4.2-.2.2-.2,0-.1-.2,0-.2.3,0,.7-.4.4-.6.7-.6.8v.6c0,.4.2.2.6-.6ZM203.4,96.3c-.2,0-.4.2-.7.7-.3.5-.3.8-.1,1,0,.4.2.2.6-.6l.3-1.1ZM204.3,101.3c0-.4,0-.6.1-.8,0-.2.1-.4.1-.6s0-.4.3-.6c-.2,0-.6.7-1.1,1.9-.4,1.1-.4,1.7,0,1.7v-.6l.6-1.1ZM203.4,95.8c0,.2.6-.5,1.7-1.9-1.1,1.1-1.7,1.8-1.7,1.9ZM205.9,97.4c.4-1.3.5-1.9.3-1.9-.2.2-.3.4-.3.6-.2.2-.3.4-.3.6s0,.5-.3.8c-.4,1.1-.7,1.7-.8,1.7l.6-.6c.4-.4.6-.7.8-1.1ZM210.9,83.8c0-.2.4-.9,1.3-2.2.8-1.3,1.5-2.3,2.1-3.1h-.3l-1.7,1.4-1.7,3.3c-.4.6-.4.8,0,.8s.5,0,.3-.3ZM212.3,77.4c0,.2,0,.4-.3.6,0-.2,0-.3-.1-.3s-.1,0-.1-.3l.6-.3v.3ZM211.8,78.8c0-.2,0-.3.1-.4s.1-.2.1-.4h.3c-.4.4-.6.7-.6.8ZM215.4,77.9c.2-.2,0-.3-.3-.3s-.5.2-.8.6v.3l.6-.6h.6ZM215.1,76.8c-.2.2-.2.2,0,.1.2,0,.5-.3.8-.7v-.3h-.8v.8ZM222.6,104.1c0-.2,0-.3.1-.3s.1,0,.1-.3l.3-.3c-.2,0-.6.3-1.1.8v.8c.2,0,.3,0,.3-.3s0-.4.3-.6ZM229,82.1c-3.2,1.9-4.5,3.1-4.2,3.6.4.2.5.2.3,0,0-.4.2-.5.6-.3.4,0,.9-.4,1.7-1.1l1.1-1.1c.4-.2,1.2-.8,2.5-1.8,1.3-1,1.9-1.6,1.9-1.8s-.5,0-1.4.3l-2.5,2.2ZM239.9,93.2l.6-1.4c0-.2-.7.4-1.9,1.8-1.3,1.4-2.7,3-4.2,4.9-1.5,1.9-2.8,3.6-4,5.1-1.2,1.6-1.9,2.5-2.1,2.6.7.4,1.1.3,1.1-.3l2.2-2.5c.6-1.3,1.9-3.2,3.9-5.6,2-2.4,3.5-4,4.5-4.7ZM243.8,72.9l.3-.3v-.3h-.8v.6h.6ZM251.9,77.9v-.6c0-.2,0-.2-.3,0v.6h.3ZM265.2,87.7c-.9,0-1.2.2-.8.6h.6c.4.4.6.5.7.3,0-.2,0-.5-.4-.8ZM264.7,84.6c0,.2,0,.3.3.3,0-.2,0-.3-.1-.3s-.1,0-.1-.3v.3ZM265.5,89.4v-.3.3ZM265.8,95.8v-.8l.3.8h-.3Z"/>
  <path class="st0" d="M342.6,56.5c.4,0,.5,0,.3.3-.6.6-1.9.8-4.2.8s-2.6,0-4.6.3c-1.9.2-4,.4-6.1.7-2.1.3-4,.6-5.6,1-1.6.4-2.5.7-2.6.8-2.8,3.7-5.6,7.8-8.4,12.4-2.8,4.5-6,10.6-9.7,18.2-.4.4-.7.9-1,1.5-.3.7-.5,1.3-.7,1.8l-1.7,2.5c.4.9.2,1.4-.6,1.4v.3l-.6,1.1c-.4.4-.6.7-.7,1.1,0,.4-.2.7-.4,1.1-.2.4-.4.8-.7,1.4-.3.6-.6,1-1,1.4l-6.1,16.1c-.4.9-.6,1.7-.7,2.2,0,.6-.2.8-.4.8,0-.2,0-.2-.1,0,0,.2-.1.4-.1.6v1.1l3.6-1.7c3.7-1.5,7.2-3.3,10.4-5.4,3.2-2.1,5.4-3.5,6.5-4l1.7-.8c.4-.2.6-.3.8-.3s1-.5,2.5-1.4c2-.9,3.3-1.2,3.9-.8.6.2.7.4.6.6s-.6.3-1.1.3l.3-.3c.6-.4.6-.5,0-.3-.6.2-1.6.5-3.1.8-.6.2-1,.5-1.4.8l-.6.6c0,.2.2.3.6.3h.8c.4.4.3.6-.3.7-.6,0-1,0-1.4-.4-.2-.4-.7-.4-1.4,0-.2.2-.5.3-.8.3h-.3c-.2,0-.3,0-.3.3s0,.3-.1.4c0,0-.1,0-.1-.1-.4,0-.7,0-.8.3-.6.6-1.3.9-2.2,1.1-.7.4-1.1.7-1.1.8.2,0,1-.3,2.4-.8s2.3-1,2.6-1.4c.6-.2.9,0,1.1.3.6.7.9.8,1.1.3.2-.2.6-.3,1.1-.3s1-.1,1.3-.4.2-.6-.1-1c-.2-.4-.2-.7,0-1.1.6-.2,1.1-.2,1.7-.1.6,0,.8.3.8.7h.8c1.5-1.1,2.5-1.2,3.1-.3,0,.2.2.2.6,0,.4,0,.6,0,.6.3l-.6.6c-.4.2-.8.7-1.4,1.4-.6.7-.7,1.2-.3,1.4,0-.2,0-.3.3-.3l.6-.3c.7-.4,1.2-.5,1.4-.3.2.4.6.5,1.1.3.7-.4.7-.3,0,.3-.4.6-.3.7.3.3.4-.4.7-.4,1.1,0,.4.2,0,.7-1,1.5-1,.8-2.3,1.8-3.8,2.9-2.4,1.3-3.6,2.1-3.6,2.5.2.2,0,.3-.3.3-.6,0-.7.2-.3.6,0,.4,0,.6-.3.6s-.3,0-.3-.3c.2-.2,0-.3-.3-.3-.4.2-.5.5-.3.8.4.6.2.7-.6.3-.7,0-1.2.2-1.4.6,0,.2-.2.5-.6.8-.4.4-1.2,1-2.5,1.9-.2,0-.8.4-1.9,1.1-.7.7-1.1.9-1.1.6l-.6.3c0,.7,0,1.2.3,1.4,0,.4-.7.9-2.2,1.7-.6.4-1.2.7-1.8,1.1-.7.4-1,.7-1,1.1l-1.1,1.1,1.4-.8c.4-.4,1.1-.9,2.1-1.5,1-.6,2-1.3,3.1-2.1,1-.7,2.3-1.7,3.8-2.8,0-.2-.4,0-1.1.3-.2.2-.4.3-.6.3s-.3,0-.3.3-.2.5-.7.8c-.5.4-.9.6-1.3.6s.2-.6,1.7-1.7c2.4-1.7,3.3-2,2.8-1.1-.2.2-.2.3,0,.3.4-.4.6-.6.6-.8,0-.4,0-.6.3-.6,0-.2,0-.2.3-.1.2,0,.2.2,0,.4v.3c.4-.4.4-.6,0-.8,0-.4.2-.6.6-.6h1.1c.4,0,.6-.3.6-.8s0-.3.3-.3c.2.4.5.4.8,0,0-.2.4-.6,1.3-1.1.8-.6,1.8-1.2,2.8-1.8,1-.6,1.9-1.3,2.8-1.9.8-.6,1.4-1.1,1.8-1.3.6-.2.6-.2.3,0,0,.4-.1.7-.4.8-.3.2-1.2.7-2.6,1.7l-4.7,3.6c-.7.7-1.2,1.1-1.4,1.1-.4,0-.6,0-.6.3,0,.4-1.9,1.9-5.6,4.6-3.7,2.7-8.2,5.8-13.4,9.3-9.3,6.7-14.8,10-16.7,10s-.6.2-.6.6c.2.2,0,.2-.3,0-.2-.2-.5-.3-.8-.3,0,.2,0,.2-.1.1,0,0-.1-.2-.1-.4s-.2,0-.6.3c-1.1.7-1.9.7-2.2,0-.7-.7-1.4-1.1-1.9-1.1s-.5-.2-.8-.6c0-.4-.4-.6-1.1-.6s-2-.5-3.2-1.5c-1.2-1-1.7-1.8-1.5-2.4,0-.6-.2-.8-.6-.8-.7,0-1.5-.7-2.2-2.2-.7-1.5-1.3-2.1-1.7-1.9,0-.7,0-1.2-.1-1.4,0-.2-.2-.5-.3-1,0-.5-.2-1.1-.3-1.9,0-.8-.2-2.3-.4-4.3-.2-1.3-.3-2.2-.3-2.8s0-1.3.3-2.2c.2-.2.5-1.1,1-2.6.5-1.6,2-5.4,4.6-11.6.7-1.7,1.7-3.7,2.9-6.1,1.2-2.4,2.5-5,3.9-7.7,1.4-2.7,2.7-5.2,4-7.7,1.3-2.4,2.4-4.4,3.3-5.8l16.4-27.6c-.2.2-.4.3-.6.3s-.8-.2-1.9-.6h-1c-.3,0-.9,0-1.8-.3l-8.9-1.1c-1.5-.4-2.9-1-4.2-1.8-1.3-.8-2-1.6-2.2-2.4-.4-.4-.4-.5,0-.3.4,0,.2-.2-.6-.6-.9-.6-1-.8-.3-.8s.4,0,.1-.3c-.3-.2-.2-.3.1-.3,3,.7,7.8,1.2,14.5,1.4.6.2.6,0,.1-.3-.5-.4-1.8-.7-4-1.1-1.5-.2-2.7-.4-3.8-.6-1-.2-1.6-.3-1.8-.3,0-.4-.3-.6-.8-.6s-.4,0-.6-.1c-.2,0-.5-.1-.8-.1s-.7,0-1-.3c-.3-.2-.6-.4-1-.6-.7,0-1.3.6-1.7,1.7,0-.6,0-1.2.1-1.9,0-.7,0-1.2-.1-1.4-.4-.2-.7,0-1.1.3s-.6.4-.6,0c.4-.4.3-.6-.3-.6-.4.2-.6.1-.7-.1,0-.3-.1-.5-.1-.7.4-.4.8-.6,1.4-.6s2.1,0,4.7.3h17.5c-.7,0-1.5,0-2.4-.1-.8,0-1.7-.2-2.6-.4,1.9,0,4.2,0,7-.1,2.8,0,5.4-.3,7.8-.7.9,0,2.4-1.4,4.5-4.2,1.5-2,3.2-4.5,5-7.4,1.9-2.9,3.7-5.7,5.4-8.4,1.8-2.7,3.4-5.1,4.9-7.2,1.5-2.1,2.7-3.6,3.6-4.3,1.3-.9,2-1.2,2.2-.8.4.4.7.6,1.1.6s.3.3.3.8l-.6,1.1.8-.8c.7-1.1,1-1.1.8,0-.4.7-.2,1.2.6,1.4.7.2,1.3,0,1.7-.3.4-.4.6-.5.6-.3.2.2,0,.7-.3,1.4-.4.4-.6.7-.7,1,0,.3-.2.6-.4,1-.4.6-.5.8-.4.7,0,0,.8-.7,2.1-1.8.4-.4.7-.5,1.1-.4.4,0,.4.3,0,.7,0,.4.2.6.6.6s.6.2.6.6c-.2.2-.3.3-.3.4s0,0,.3-.1c.6-.2.6.8.3,3.1-.2.6,0,.7.6.3.2-.6.7-.6,1.7-.3.4.4.4,1,.1,1.8-.3.8-1.2,3-2.6,6.5-.9,2-1.9,4.1-2.8,6.1-.9,2-1.7,3.5-2.2,4.5l-1.4,3.6,3.6.3c.6,0,1.4,0,2.6.1,1.2,0,2.4.2,3.6.4,1.2.2,2.3.4,3.3.7,1,.3,1.6.7,1.8,1.3.4.9.4,1.6,0,1.9-.4.4-.7,1-.8,1.8-.2.8-.5,1.8-.8,2.9-.4,1.3-.7,2.7-1.1,4.2ZM260.8,130.8c.2-.2.2-.5,0-.8,0-.2,0-.3-.1-.3s-.1.2-.1.6v.6h.3ZM262.4,132.5v-.8c-.2,0-.4,0-.6.3.2.6.4.7.6.6ZM275.2,46.2c.9.2,1.4.2,1.4,0-.4,0-.7,0-1-.1-.3,0-.6-.1-1-.1-.4.2-.2.3.6.3ZM276.1,126.1c.4-.6.4-.6,0-.3-.6.4-.8.7-.8.8s0,.3.3.3.3,0,.3-.3,0-.4.3-.6ZM280.5,86.3c-.6.6-.7.8-.6.8,0-.2,0-.3.3-.3l.6-.3c.2-.4,0-.5-.3-.3ZM287.8,49c3.2.2,5.3.3,6.5.3s2-.2,2.4-.6h-.3c-.2,0-.4,0-.6-.3h-13.6c-.4,0-.6,0-.6.3-.2.2.3.3,1.4.3s1.5,0,2.4.1c.8,0,1.6,0,2.4-.1ZM283,147c.2-.2.3-.3.4-.3s.2,0,.4-.3c.2,0,.3,0,.3-.3s-.4,0-1.1.3c-.2.2-.3.3-.4.3s-.2,0-.4.3l-.3.3h.3c.4,0,.6,0,.8-.3ZM283.9,133.6l.6-.6c-.4,0-.7,0-.8.3-.2.4,0,.5.3.3ZM307,65.7c.2,0,.3-.2.3-.6v-.3c0-.2,0-.2-.3-.1-.2,0-.3.3-.3.7s-.2.6-.6,1.3c-.4.7-.7,1.3-1.1,1.8-.6.6-1,1.2-1.4,1.9-.4.7-.6,1.2-.6,1.4-.2.4-.4.7-.7,1.1-.3.4-.4.7-.4,1.1-1.5,2.6-2.4,4.2-2.6,4.9-.3.7-.6,1.3-1,2.1.4.9.2,1.4-.6,1.4v-1.4.6c0,.2,0,.3-.1.4,0,0,0,.3.1.7,0,.7-.2,1-.6.8-.2-.4-.3-.6-.4-.6s-.4.4-1,1.1l-2.2,5c-1.3,2.2-2.2,3.8-2.6,4.6-.5.8-.9,1.4-1.3,1.8,0,.9-.3,1.4-.8,1.4h.3c.4,0,.6,0,.8.3.2.2,0,.3-.3.3v.6c0,.2-.2.6-.6,1.3-.4.7-1.3,2.3-2.8,4.9-.6.9-.8,1.5-.8,1.8s.2.2.6-.1l.3-.6c0-.2,0-.4.3-.6,0-.4.2-.8.6-1.4.2-.4.4-.8.7-1.3.3-.5.6-1,1-1.5,1.3-2.4,1.8-3.6,1.4-3.6v-.8c0-.7.2-.8.6-.3.7.2,1.1,0,1.1-.8h-.3c-.2,0-.3,0-.3.3s0,0-.3-.3l.3-.8c.4-.4.6-.6.6-.8s.2-.3.6-.3c.2.4.3.5.3.3s0-.5-.3-.8c0-.2,0-.3.1-.3s.1-.2.1-.6h1.1c.2-.2.4-.3.6-.3-.6-.6-.7-.8-.3-.8s.6-.4.8-1.1c0,.2,0,.3.1.3s.1,0,.1-.3c.4,0,.6-.2.6-.6v-.3c-.6,0-.2-.8,1.1-2.5l7-12.5c.6-1.5.8-2.4.8-2.8s-.2,0-.6,1.4c-.6.9-.8,1.1-.8.6s.5-1.6,1.4-3.1c.9-1.3,1.5-2.1,1.7-2.5.2-.4.4-.8.6-1.4ZM287.2,43.7l.3.3c-.2,0-.4,0-.6-.3h.3ZM288.3,131.1c-.2.2,0,.2.3,0,.2,0,.4,0,.6-.3-.4-.2-.6-.2-.6-.1s0,.2-.3.4ZM292.5,128.9c-.2-.2-.7,0-1.5.3-.8.4-1.3.7-1.3.8,0,.4.5.3,1.4-.3.2-.2.4-.3.6-.3s.4,0,.6-.3c.2,0,.3,0,.3-.3ZM290.3,57.3v.3h1.1v-.3h-1.1ZM293.1,126.4c-.2,0-.7.2-1.4.6-.7.4-1.1.7-1.1.8.2-.2.4-.3.6-.3.4,0,.6,0,.8-.3.2,0,.5-.2.8-.6l.3-.3ZM293.6,91c.2.2.2.3,0,.3-.6-.6-.6-.6,0-.3ZM293.9,125.8c-.4.4-.4.5,0,.3.6-.2.7-.4.6-.6l-.6.3ZM295.8,125c-.6.4-.7.6-.6.6s.7-.2,1.7-.6c.6-.2.9-.3,1-.4s0-.1-.4-.1-.9.2-1.7.6ZM298.1,137.8c.2-.6,0-.6-.3-.3-.6.6-.7.8-.6.8s.5-.2.8-.6ZM298.3,125.8h-.3c-.7.4-.8.6-.3.6s.6-.2.6-.6ZM299.5,125.3c-.2,0-.3,0-.4.1,0,0,0,.1.1.1s.4,0,.6-.1c.2,0,.4-.1.6-.1.4-.4.4-.6,0-.6,0,.2,0,.3-.3.3s-.4,0-.6.3ZM300,122.8c.2,0,.3.2.3.6v.3c.2,0,.3,0,.3-.1s0-.1.3-.1c0-.4-.3-.6-.8-.6ZM301.4,124.4c.4,0,.6,0,.7-.1,0,0,0-.1-.1-.1,0-.2-.2,0-.6.3ZM303.4,132.5c0,.9.2.8.6-.3l-.6-.3v.6ZM307.8,116.9c-.4-.4-.7-.4-.8-.1-.2.3-.2.5,0,.7.2.2.4.2.6,0s.3-.4.3-.6ZM308.6,116.1c-.4.4-.3.6.3.6s.6,0,.6-.3c.4-1.1,0-1.2-.8-.3ZM313.9,61.5c.4-.7.4-.9,0-.6,0,.2,0,.3-.3.4-.2,0-.4.3-.6.7,0,.6,0,.7.3.6,0-.2,0-.3.3-.4.2,0,.3-.3.3-.7Z"/>
  <path class="st0" d="M433.9,82.4c.4.4.6.8.8,1.3.2.5.3,1.4.3,2.9,0,3.2-.7,5.8-1.9,8.1-.2.2-.3.4-.3.6s0,.3-.3.3c0,.4-.2,1-.7,1.9-.5.9-1,1.9-1.5,2.9-.6,1-1.1,2-1.5,2.9-.5.9-.8,1.5-1,1.7-.4.7-.6,1.3-.6,1.7l-.8.8-.3.3c0,.6-.3,1.1-.8,1.7l-1.4,1.9c-.2.4-.6,1-1.3,1.9-.7.9-1.3,1.9-2.1,3.1-.7,1.1-1.8,2.6-3.1,4.5-.2,0-.3,0-.3.3s0,.4-.3.6c-.4.6-.7.8-1.1.8s-.2,0,0,.3c.2.4,0,1-.7,1.8-.7.8-2,2.6-4,5.1l-1.1.6c-1.5,2-3.4,4.3-5.7,6.7-2.3,2.4-4.8,4.6-7.4,6.7-2.6,2-5,3.9-7.1,5.4-2.1,1.6-3.6,2.5-4.3,2.6-.2.2-.4.3-.6.3s-.3,0-.3.3-.5.5-1.4.8c-1.5.6-1.8.6-.8,0l.6-.6h.3c.2,0,.4,0,.6-.3l3.9-2.8c3.3-2.2,6.7-4.9,10.2-7.9,3.4-3.1,6.4-6.2,9-9.3,2-2.6,3.2-4.1,3.6-4.5.4-.4-.2.2-1.7,1.7-3.7,4.3-7.7,8.2-11.8,11.8-4.2,3.6-7.8,6.4-11,8.5l-3.9,2.8c-.7.4-1.2.6-1.4.6s-.4,0-.6.3c-.4.4-.7.6-.8.6l-.8.8,1.1-.3c.7-.4,1.1-.5,1.1-.4s-.5.3-1.4.7c-.6.6-.8.6-.8.3.2-.4.1-.5-.1-.3-.3.2-.9.6-1.8,1.1-.9.4-1.6.6-2.1.7-.5,0-1.3.1-2.6.1-.9-.2-1.7-.3-2.4-.3h-1.3c-.4,0-.6-.2-.6-.6.2-.2.5-.3,1-.4.5,0,.4-.2-.1-.4-.6-.2-1.4-.3-2.5-.4-1.1,0-1.9-.3-2.2-.7-.7-.6-1.5-1-2.2-1.4l-1.7-1.1c-.9-.9-2.2-2.1-3.9-3.6-1.7-1.5-2.6-2.4-2.8-2.8-.7-1.1-1.1-2.5-1-4.3,0-1.8.3-3.6.7-5.4l-7.5,7.2-2.9,2.9c-.8.8-1.4,1.3-1.8,1.5-.6.4-.8.7-.8,1.1s-.4.6-1.1.6l-1.1.6c0,.4-.2.6-.6.6s-.6.2-.6.6c-.4.4-.7.6-.8.6-.6,0-.8.2-.8.6-.2.2,0,.2.3,0,.2-.2.3-.2.3,0-.4.4-.7.6-1.1.6s-.6.2-.6.6-.2.6-.6.6c-.6,0-.9.2-1.1.6-.7.7-1.8,1.4-3.1,1.9-.7.4-1.1.8-1.1,1.4-.2.4-.7.6-1.4.6h-.8c.2.2-.2.3-1.3.4-1,0-1.9,0-2.6-.4-.6,0-1.2-.4-1.9-1.1l-2.8-1.9c-.7-.4-1.8-1.1-3.1-2.1-1.3-1-2.4-2-3.3-2.9-.7-.6-1.4-1.3-1.9-2.4-.6-1-.9-1.8-1.1-2.4,0-.6-.3-1.1-.8-1.7-.4-.2-.7-.6-1.1-1.4-.4-.7-.6-1.5-.8-2.2-.4-1.1-.3-3,.1-5.7.5-2.7.9-4.8,1.3-6.3.6-1.9.8-3.2.8-3.9-.2,0-.3,0-.3-.1s0-.1.3-.1c.4,0,.6-.5.6-1.4l.8-1.9.6-1.1c0-.4,0-.6.3-.6.6-.6.9-1.1,1.1-1.7.4-1.1.7-1.7.8-1.7l.8-1.1c0-.2,0-.7.3-1.5.2-.8.5-1.4.8-1.8l1.7-2.5c1.5-2.2,3.5-5.4,6.1-9.6,2.6-4.2,5.3-8.4,8.1-12.5,2.8-4.2,5.5-7.9,8.1-11.3,2.6-3.3,4.6-5.3,6.1-5.8.2-.2.2,0,.1.8,0,.7-.4,1.7-.8,2.9-.5,1.2-1,2.5-1.5,3.9s-1.2,2.7-1.9,4c1.1-1.5,2.5-3.2,4.2-5,1.7-1.9,2.6-2.9,2.8-3.1.2.4.7,1,1.5,1.8.8.8,1.3,1.4,1.5,1.8,0,.4.3.4,1,.1.6-.3,1.3-.6,2.1-.8.7-.3,1.4-.5,2.1-.7.6-.2,1-.2,1,0-.2.6,0,1,.3,1.4.2-.2-.1.6-1,2.2-.8,1.7-1.5,3.5-2.1,5.6-.4.7-.7,1.6-1,2.6-.3,1-.6,1.9-1,2.6l-5.6,9.2c-.4,0-.6.3-.6.8,0,1.3-2.5,6.7-7.5,16.1-1.7,3.2-2.9,5.6-3.8,7.4-.8,1.8-1.5,3.1-1.9,3.9-.5.8-.7,1.5-.7,2.1.4,0,.7-.2,1.1-.6.4-.2.7-.4,1.1-.7.4-.3.8-.6,1.4-1l4.5-3.6c.9-.7,2.5-2.1,4.9-4.2,2.3-2,5.7-5.3,10.2-9.7.2-.2.5-.6,1-1.3.5-.6,1.1-1.3,1.8-1.8,1.7-1.9,3.5-3.7,5.4-5.4,1.9-1.8,3-2.6,3.2-2.6l.8-.8v-.6c.2,0,.4-.1.6-.4.2-.3.8-.9,1.9-1.8,0-.2.3-.4.8-.7.6-.3,1-.6,1.4-1,1.1-.6,1.7-1.3,1.7-2.1s.5-1,1.4-.4h1.9c.4.4.6.5.8.3v.3c-.4.4-.2.6.6.6.4.4.5.6.3.6,0,.4.2.6.6.6.4.4.6.9.8,1.7-.4.9-.4,1.4,0,1.4s.3,0,.3.1,0,.1-.3.1c0,.4.1.6.4.6s.5-.2.7-.6l.3-.3.3.3c0,.2,0,.4.3.6l.6,2.2c.2,1.1.5,1.5.8,1.1,1.1-.4.8,0-.8,1.4-.6.7-.7,1.1-.3,1.1.6.4.8.3.8-.3s.2-.5.6-.8c.6-.2.8.2.8,1.1-.2.7-.2,1.2,0,1.3.2,0,.4-.1.6-.7l.3-.8.3.8c.4.4.6.7.6,1s-.4.9-1.1,1.8c-3.3,5.2-6,9.4-7.9,12.5-1.9,3.2-3.6,6.1-4.9,8.8-1.3,2.7-1.6,4-.8,4,2.8,0,6-1,9.6-3.1,3.6-2,7.3-4.7,11.1-7.9,3.8-3.2,7.5-6.9,11.1-10.9,3.6-4,6.9-8,9.7-12,2.9-4,5.2-7.8,7.1-11.4,1.9-3.6,2.9-6.6,3.1-9,0-.9-.2-1.2-.6-.8-.4.7-.6.4-.6-1.1s.2-2.3.6-3.6c.4-1.3.8-2.1,1.4-2.5,3.3,2.6,5.6,5,6.8,7.2,1.2,2.2,2,3.5,2.4,3.9l.3.6c.2-.2.4,0,.6.3l1.4,2.2ZM379.8,109.4c0,.6,0,.8.1.8,0-.2,0-.4.3-.6,0-.2,0-.3.1-.4s.1-.2.1-.4v-.8c-.4.4-.6.8-.7,1.4ZM397.4,132.8v-.3c-.2-.2-.5,0-.8.3-.2.2,0,.2.3,0h.6ZM406.3,123.6l-1.1.3c-.9,1.1-1.9,2.2-3.1,3.3-1.1,1.1-1.9,1.9-2.5,2.2-2,1.7-2.6,2.5-1.7,2.5.4-.4.9-.8,1.7-1.4l1.5-1.5c.6-.6,1.3-1.4,2.1-2.4l3.1-3.1ZM416.9,111.3c.2,0,.6-.4,1.1-1.3.6-.8,1.2-1.8,1.9-2.9.7-1.1,1.5-2.3,2.2-3.5.7-1.2,1.3-2.2,1.7-2.9.4-.7.6-1.2.8-1.4l.6-.6h.8c0-.4,0-.5-.3-.3-.4,0-.6,0-.6-.3-.2,0-.3,0-.3-.1s0-.1.3-.1c.4,0,.6-.3.6-.8s-.1-.4-.4-.1-.5.7-.7,1.3c0,.2-.2.5-.6.8-.4.4-.6.7-.6.8s-.1.5-.4,1c-.3.5-.6,1-1,1.5-1.1,1.5-1.7,2.3-1.7,2.5,0,.4-.5,1.1-1.4,2.2-.2.2-.3.5-.3.8.2,0,.2,0,.1.1s-.2.1-.4.1l-.3.6c0,.6-.2.7-.6.3-.2-.2-.3,0-.3.3.2,0,0,.2-.3.6-.6,0-.7.2-.3.6,0,.4,0,.6-.3.6-.4.2-1,.9-1.9,2.1-.9,1.2-1.2,1.8-.8,1.8l-.6.6-.6.6-.3.3c.4.4.4.6,0,.6s-1.2.7-2.4,2.2c-1.2,1.5-1.8,2.3-1.8,2.5s-.5.7-1.4,1.7l-1.4,2.2c.2,0,.9-.7,2.1-2.1,1.2-1.4,2.5-2.9,3.9-4.6s2.6-3.2,3.6-4.7c1-1.5,1.5-2.3,1.5-2.5l.3-.3ZM408.3,121.1c0,.2-.2.5-.6.8l.6-.8ZM429.4,94.4c.2-.4,0-.2-.4.6-.5.7-1,1.8-1.5,3.1-1.3,2.4-2.8,5.1-4.5,8.1-1.7,3-3,4.9-3.9,5.8-.9,1.1-1.2,1.7-.8,1.7s.6-.5,1.4-1.5c.7-1,1.6-2.3,2.5-3.8,1.7-2.6,3.2-5.2,4.6-7.9,1.4-2.7,2.3-4.7,2.6-6ZM426.1,95.2c-.4.6-.4.8,0,.8s.6-.2.6-.6c.4-.6.5-.8.3-.8s-.5.2-.8.6ZM432.2,81.3c.2-.4.2-.6.1-.6s-.3.2-.7.6c-.2.2-.3.4-.3.6.2,0,.5-.2.8-.6Z"/>
  <path class="st0" d="M511.3,87.7c.6,1.5,1.1,3.4,1.5,5.8.5,2.4.5,4.5.1,6.1-.9,5.4-2.5,10.6-4.7,15.6-2.2,5-5.6,9.9-10,14.8v1.1l-1.1,1.4c-1.5,1.5-3.2,3.1-5.3,4.9-2,1.8-4.1,3.4-6.1,4.9-2.6,1.9-5.4,3.6-8.4,5.3-3,1.7-4.8,2.5-5.6,2.5s-1,.2-1.8.6c-.8.4-1.4.6-1.8.8-.7,0-1.4.3-1.9.8l-1.9.3c-.9.4-2.5.7-4.6,1-2.1.3-3.3.3-3.5.1-.4,0-.7,0-1.1-.3-.4,0-.7,0-1-.1-.3,0-.5-.1-.7-.1-1.5-.4-2.4-.6-2.8-.6s-1-.3-1.9-.8l-1.4-1.1c-1.7-.6-3.5-1.3-5.4-2.4-1.9-1-3.9-2.2-5.7-3.6-1.9-1.4-3.6-2.9-5.1-4.6-1.6-1.7-2.7-3.3-3.5-5,0-.4-.1-.8-.4-1.3-.3-.5-.6-.9-1-1.3l.3-1.4c-.4-1.5-.6-3.1-.7-4.7,0-1.7,0-2.6.1-2.8.6-.6.8-1.1.7-1.7,0-.6-.2-1.1-.4-1.7.4-.7.6-1.5.6-2.2l.3-.6.8-3.9c1.7-5.4,4.2-10.6,7.5-15.6,3.3-5,7.2-9.6,11.7-13.8,4.5-4.2,9.5-7.7,15-10.7,5.6-3,11.4-5.2,17.5-6.7v.3c.9-.6,1.6-.8,2.1-.8s1.4.2,2.9.6c2,.6,4.4,1.6,7.1,3.1,2.7,1.5,5.1,3,7.1,4.5h-.6c.9.9,2.1,1.9,3.6,3.1.7.6,1.3,1.1,1.7,1.7l3.3,3.3c.4.4,1.1.9,2.1,1.7,1,.7,1.8,1.9,2.4,3.3v.3ZM447,101.6c-1.9,2.2-3.4,4.3-4.7,6.1-1.3,1.9-2.2,3.2-2.6,4.2-.5.9-.5,1.3-.1,1.1.4-.2,1.4-1.3,3.1-3.3l6.1-10-1.7,1.9ZM494.3,81.8c-3.7-1.3-7.3-1.5-10.9-.7-3.5.8-6.9,2.4-10,4.7-3.2,2.3-6.1,5.2-8.9,8.6-2.8,3.4-5.3,7-7.5,10.7-2.6,4.3-4.5,7.8-5.7,10.4-1.2,2.7-2.3,6.1-3.2,10.2-1.3,4.1-1.3,6.7-.1,7.9,1.2,1.2,2.8,1.1,4.9-.4.4,0,.7,0,1.1-.3.4-.2.7-.4,1.1-.6l6.7-3.1.8-.3h-.3l2.5-1.4v.3c1.1-.6,2.2-1.1,3.2-1.7,1-.6,1.7-1.1,2.1-1.7.4-.4.8-.8,1.4-1.3.6-.5,1.3-.9,2.2-1.3l2.5-2.5c5.2-5,9.2-9.5,12-13.5,2.8-4,4.7-7.5,5.8-10.6s1.6-5.7,1.4-7.9c-.2-2.2-.6-4.2-1.1-5.8ZM462.8,82.7c1.3-1.1,2.3-2,2.9-2.8.6-.7,1.2-1.4,1.5-1.9l-3.1,3.1-3.1,2.8c-.4.4-.6.4-.6,0l-10.3,12.5c-.2.6,0,.7.4.4.5-.3,1.4-1.2,2.9-2.6l1.4-2.5c-.6.6-.3.1.8-1.3,1.1-1.4,3.4-3.9,7-7.7ZM464.5,133.3c.6-.2,1.4-.6,2.5-1.3,1.1-.6,2.1-1.3,3.1-1.9.9-.6,2.1-1.5,3.6-2.6-.4,0-1.1.4-2.2,1.1l-5.6,2.8c-2,1.1-3.9,2.1-5.4,3.1-1.6.9-2.3,1.4-2.1,1.4l1.9-.6,4.2-1.9Z"/>
  <path class="st0" d="M533.5,85.2c.6-.6.5-.6-.3-.3-.4.4-.6.7-.6.8.9-2.8,1.4-4.5,1.4-5l-.3-.3.8-1.4.3-.3h.3c.4,0,.9-.2,1.7-.6-.6,0-.9,0-1.1-.3.7-1.1,1.4-1.9,1.9-2.2l-.6-.3.6-.3c-.6-.6-.7-1-.3-1.4l.3-.3v.3c.2.6.4.8.6.8s.3,0,.3.3c.2,0,.4,0,.6-.3v.6c.2,0,.4,0,.6.3.4-.4.6-.6.8-.6.6,0,.5.2-.3.6.4,1.1.8,1.2,1.4.3,0-.4.2-.4.6,0-.2.4-.2.9-.1,1.5,0,.7.2,1,.4,1s.3.2.3.6c-.2.2-.4.2-.6,0-.2-.4-.4-.4-.6,0-.2.4-.7,1.6-1.7,3.6v1.4c.4-.6.6-.7.8-.6l.3-.6c-.4-.4-.6-.6-.6-.7s0,0,.3.1c0,.2.1.1.4-.1.3-.3.5-.6.7-1-.2-.4-.2-.7,0-1,.2-.3.3-.2.3.1.2.4.5.2.8-.4.4-.6.6-1.2.6-1.5-.4-.9-.2-1.2.6-.8.2.2.6.4,1.4.7.7.3,1.1.5,1.1.7-.4.6-.2.8.6.8-1.1,3-2.2,5.5-3.2,7.5-1,2-2.1,4.2-3.3,6.5-1.2,2.3-2.4,4.3-3.5,6,1.1-1.7,2.3-3.6,3.6-5.8,1.3-2.2,2.6-4.4,3.9-6.4,1.3-2,2.5-3.9,3.8-5.7,1.2-1.8,2.3-3,3.2-3.8.2-.2.3-.2.3,0s0,.4-.3.6l-.6.6c.2,0,.6-.2,1.4-.6.4-.4.6-.6.6-.7s-.2,0-.6.1c-.4.2-.5,0-.3-.3l.8-.8c.4-.4.7-.7,1.1-1.1.7-1.1,1.8-1.9,3.1-2.5.4-.2.7-.5,1.1-.8l.6-.6c.2-.2.4-.3.6-.3.2.4.5.4.8,0,.4-.4,1.3-.9,2.8-1.5,1.5-.6,2.4-1,2.8-1s.4,0,.7-.1c.3,0,.5-.1.7-.1-.4-.4,0-.6.8-.6l1.9-.6c.7-.4,1.7-.5,2.9-.3,1.2.2,2.1.4,2.6.6,1.7.4,3.5,1.5,5.4,3.3,1.9,1.9,3.8,3.9,5.4,6.1,1.7,2.2,3.1,4.5,4.2,6.8,1.1,2.3,1.7,4.1,1.7,5.4s-.3,0-1-1.1c-.7-1.1-1.4-2.1-2.4-3.1l.3.3c.4,1.1.8,2.4,1.4,3.9.6,1.5,1,2.7,1.3,3.8.3,1,.4,1.8.4,2.2s-.4.3-1.1-.4c-.4-.4-.5-.6-.4-.8,0-.2,0-.5-.1-.8-.6-.4-.9-.6-1.1-.6s0-.4.3-1.1c.2-.7.3-1.2.3-1.4l-1.1-.6v.3c0-.2-.3-.5-.8-.8h-.6l.6,2.2,1.1,3.3c-.2-.2-.2-.3-.1-.3s0,0-.4-.3c-.4.7-.6,1.6-.6,2.5l.3,2.2-1.4-.8c-.7-.7-1.2-1.3-1.4-1.7v-1.1c0-.2,0-.4.3-.6h-.8c.6-.2.5-.9-.3-2.2,0,.6,0,.8-.3.8s-.3-.3-.3-.8,0-.7-.3-.6-.2.9,0,2.2c.7.7,1,1.1.8,1.1l-.3.3c0,.2,0,.3-.1.4s-.1.2-.1.4v.3l.8,1.1v.8c.4.6,0,1.3-1.1,2.1-1.1.8-1.9,1-2.2.4-.7-.4-1.1-.8-1.1-1.4l-.6-.8.3,1.1c-.9,1.7-1.5,1.8-1.7.3-.2-.4-.3-.3-.4.1,0,.5-.1.5-.1.1-.4-2.6-1.1-4.8-2.2-6.7-1.1-1.9-2.2-3.5-3.3-5-.9.7-1.8,1.4-2.5,1.9-.7.6-1.5,1.1-2.2,1.7-.7.7-1.5,1.3-2.2,1.7-4.3,3.7-8.2,8-11.7,12.9-3.5,4.9-7.1,10.2-10.9,15.7-.6.9-1.4,2.4-2.5,4.5-1.1,2-2.2,4.2-3.3,6.4-1.1,2.2-2.1,4.3-3.1,6.3-.9,1.9-1.5,3.3-1.7,4l-3.6,7.5c-.7.6-1.1,1.1-1.1,1.7-1.3,1.3-1.7,1.2-1.1-.3-.4-.6-.6-.7-.6-.3-.2.4-.4.7-.6,1-.2.3-.5.6-.8,1-.4.6-.7,1-1.1,1.4l-.8-.8c-1.3-.6-1.9-1-1.7-1.4.2-.2.3-.5.3-.8v-.3c-.2,0-.3,0-.3.3-.4.6-.7.8-.8.7-.2,0-.2-.4,0-1l.6-1.1-1.7.8c-.6.6-.8.6-.8,0h-.3c-.4,0-.4-.3,0-.8-.4-.7-.6-.8-.6-.3-.7.4-.9.4-.6,0h-.6c-.2,0-.4,0-.6-.3-.7,0-1.1-.4-1.1-1.1.2-.4.2-.6,0-.7-.2,0-.2,0,0,.1-.7,0-1.7-.3-2.8-.8-.4-.4-.2-.6.6-.6s1-.4.8-1.1c0-.4,0-.6-.3-.8-.4.2-.8.4-1.3.7-.5.3-.6.2-.4-.1-.2-1.3,0-2.2.4-2.6.5-.5.5-.7.1-.7-.7,0-1.1.4-1.1,1.1-.2.7-.5.8-.8.3-.2-.4-.3-.4-.3,0,.2.4,0,.5-.3.3-.4-.2-.6-.4-.7-.6,0-.2-.3-.5-.7-.8.2-.4.2-.5.1-.4,0,0-.2.3-.4.7.4.9.4,1.2.1.8-.3-.4-.5-1.1-.7-2.2-.6-2.4-.6-4.9,0-7.5,0-.2.2-.7.6-1.7.4-.9.8-1.9,1.4-3.1.6-1.1,1.2-2.6,1.9-4.5l-.3-.3c.4.2.8-.3,1.3-1.5.5-1.2,1.1-2.3,1.8-3.2.4-.9.6-1.5.7-1.7,0-.2.2-.2.4,0,.2,0,.3-.2.3-.6-.4-.2-.6-.3-.6-.4s0,0,.3.1c.4,0,.6-.2.6-.6.4-.2.6-.3.6-.4s0-.1-.3-.1-.3,0-.3-.3,0-.3.1-.4c0,0,.1,0,.1.1.4.2.6,0,.8-.6.2-.6.2-.9,0-1.1-.2-.2-.2-.3-.1-.4s.2,0,.4.1l1.1-1.9c0-.6.3-1.1.8-1.5.6-.5.9-.9,1.1-1.3v-.6c0-.2,0-.3.3-.3,0-.4,0-.8.3-1.4,2-3.3,4.2-7.7,6.5-12.9,2.3-5.3,4.6-10.1,6.8-14.3-.4.9-.5,1.8-.4,2.6,0,.8-.3,1.3-1.3,1.5,0,.4,0,.9-.1,1.7,0,.7-.4,1.5-1,2.2,0-.4,0-.6-.1-.7,0,0-.1,0-.1.1l.3.6c-.4.6-.7,1.1-1.1,1.5-.4.5-.6.8-.6,1s-.1.5-.4,1c-.3.5-.3,1-.1,1.5l.8-1.7,1.4-2.5v.8l1.7-4.5.6.3v-.3c0-.2,0-.4.3-.6ZM524.1,107.7c.4-.4.4-.8,0-1.4.2-.2.2-.2,0-.1-.2,0-.2.3,0,.7-.4.4-.6.7-.6.8v.6c0,.4.2.2.6-.6ZM526.9,96.3c-.2,0-.4.2-.7.7-.3.5-.3.8-.1,1,0,.4.2.2.6-.6l.3-1.1ZM527.7,101.3c0-.4,0-.6.1-.8,0-.2.1-.4.1-.6s0-.4.3-.6c-.2,0-.6.7-1.1,1.9-.4,1.1-.4,1.7,0,1.7v-.6l.6-1.1ZM526.9,95.8c0,.2.6-.5,1.7-1.9-1.1,1.1-1.7,1.8-1.7,1.9ZM529.4,97.4c.4-1.3.5-1.9.3-1.9-.2.2-.3.4-.3.6-.2.2-.3.4-.3.6s0,.5-.3.8c-.4,1.1-.7,1.7-.8,1.7l.6-.6c.4-.4.6-.7.8-1.1ZM534.4,83.8c0-.2.4-.9,1.3-2.2.8-1.3,1.5-2.3,2.1-3.1h-.3l-1.7,1.4-1.7,3.3c-.4.6-.4.8,0,.8s.5,0,.3-.3ZM535.8,77.4c0,.2,0,.4-.3.6,0-.2,0-.3-.1-.3s-.1,0-.1-.3l.6-.3v.3ZM535.2,78.8c0-.2,0-.3.1-.4s.1-.2.1-.4h.3c-.4.4-.6.7-.6.8ZM538.8,77.9c.2-.2,0-.3-.3-.3s-.5.2-.8.6v.3l.6-.6h.6ZM538.6,76.8c-.2.2-.2.2,0,.1.2,0,.5-.3.8-.7v-.3h-.8v.8ZM546.1,104.1c0-.2,0-.3.1-.3s.1,0,.1-.3l.3-.3c-.2,0-.6.3-1.1.8v.8c.2,0,.3,0,.3-.3s0-.4.3-.6ZM552.5,82.1c-3.2,1.9-4.5,3.1-4.2,3.6.4.2.5.2.3,0,0-.4.2-.5.6-.3.4,0,.9-.4,1.7-1.1l1.1-1.1c.4-.2,1.2-.8,2.5-1.8,1.3-1,1.9-1.6,1.9-1.8s-.5,0-1.4.3l-2.5,2.2ZM563.3,93.2l.6-1.4c0-.2-.7.4-1.9,1.8-1.3,1.4-2.7,3-4.2,4.9-1.5,1.9-2.8,3.6-4,5.1-1.2,1.6-1.9,2.5-2.1,2.6.7.4,1.1.3,1.1-.3l2.2-2.5c.6-1.3,1.9-3.2,3.9-5.6,2-2.4,3.5-4,4.5-4.7ZM567.2,72.9l.3-.3v-.3h-.8v.6h.6ZM575.3,77.9v-.6c0-.2,0-.2-.3,0v.6h.3ZM588.7,87.7c-.9,0-1.2.2-.8.6h.6c.4.4.6.5.7.3,0-.2,0-.5-.4-.8ZM588.1,84.6c0,.2,0,.3.3.3,0-.2,0-.3-.1-.3s-.1,0-.1-.3v.3ZM588.9,89.4v-.3.3ZM589.2,95.8v-.8l.3.8h-.3Z"/>
  <path class="st0" d="M642.9,91.6c0,.2-.1.5-.4.8-.3.4-.6.7-1,1.1s-.6.7-.7,1c0,.3-.3.5-.7.7-.4.4-.7.6-.8.6v-.3c.2-.2.2-.3,0-.3-.2.2-.3.4-.3.6s-.5.6-1.4,1.1h-.3l-.6.6v.3c0,.2,0,.3-.3.3,0-.2,0-.3-.1-.3s-.1,0-.1.3c-.6.6-.7.8-.6.8l.6-.3-.6,1.1c0,.2,1.1,1.8,3.2,4.9,2.1,3.1,4.6,6.5,7.4,10.3,2.8,3.8,5.3,7.4,7.7,10.7,2.3,3.3,3.7,5.3,4,5.8v1.1l.8-.6,1.4,1.7,7,7.8c.6.7.9,1.3,1,1.5,0,.3.1.5.1.7-.6,0-.5.2.3.6.2.4.6.6,1.1.6v.6c-.4.4-.4.7,0,.8.4.2.6.4.7.7,0,.3,0,.4-.4.4l-1.7-.6c-.4-.2-.2,0,.6.6.9.7,1.5,1.3,1.8,1.8.3.5,0,.5-.7.1-.4-.4-1.1-.5-2.2-.4-1.1,0-1.7.3-1.7.7.6.6.6.8.3.8s0,.4.6,1.1c.6.6.7.8.6.8-.4.2-.3.5.3.8,1.1,1.1,1.1,1.7,0,1.7s-.7,0-1.1.1c-.4,0-.7,0-1.1-.4-.6-.6-.8-.7-.8-.3s0,.4.3.6l1.1.6c.6.6.6.7,0,.6-.4,0-.4.4,0,1.1.2.9,0,1-.8.3-1.1-.7-1.4-.8-.8-.3,0,.4-.3.6-.8.6-.4-.2-.7-.2-.8-.1-.2,0,0,.2.3.4.6.6.6.7,0,.6-.4,0-.5,0-.4.3,0,.2.3.3.7.3.6,0,.6.3,0,.8-.4,0-.5,0-.3.3.4.4.3.6-.3.7-.6,0-1.2,0-1.9-.4-.4,0-.7,0-1-.1-.3,0-.6-.1-1-.1-1.5,0-4-2-7.7-6.1-3.6-4.1-7.5-8.7-11.6-13.9-4.1-5.2-7.9-10.3-11.6-15.3-3.6-5-6-8.4-7.1-10.3l-2.5-3.6-1.4,4.2c-1.5,3.2-3,6.5-4.5,10-1.5,3.5-2.7,7-3.6,10.3-.7,1.7-1.5,3.5-2.2,5.4-.7,1.9-1.2,3.5-1.4,4.6-.6,1.1-1.1,2.2-1.5,3.3-.5,1.1-.6,1.9-.4,2.2-.4,1.5-.6,1.8-.6.8s0-.3-.1-.4c0,0-.1-.2-.1-.4v-.3l-.6,1.1c0,.4,0,.6-.1.7,0,0-.1,0-.1-.1s-.2-.3-.6-.3c-.2-.2-.4-.3-.6-.3-.4,0-.6,0-.6-.3-.4-.6-.4-.8,0-.8.6.4.6,0,.3-.8,0-.2,0-.3.1-.4s.1-.2.1-.4,0-.3.3-.3.3-.2.3-.6-.2-.4-.6,0l-.6-.3c0-.2,0-.3-.1-.3s-.1.2-.1.6,0,.6-.1.7c0,0-.1,0-.1-.1-.4,0-.6-.3-.6-.8.2-.6,0-.6-.3,0-.4.2-.6.6-.6,1.1,0,1.3-.9,1-2.8-.8-.9-.7-1.5-1.3-1.7-1.5-.2-.3-.4-.9-.6-1.8-.7,0-1.1,0-1.1-.3-.2-.2,0-.3.7-.4.6,0,.9-.1.7-.1s-.7,0-1.4.1c-.7,0-1.1.3-1.1.7l.6.6-1.1-.8c-.4-.6-.6-.7-.8-.6-.2.2-.4-.2-.6-1.1-1.1-1.5-2.1-2.2-2.9-2.1-.8,0-1-.1-.4-.7.4-.2.4-.5,0-.8-.4-.4-.9-.6-1.7-.6s-.6.4-.1,1.1c.5.7.5.9.1.6-1.7-3.2-2-5.9-1.1-8.4l31.5-74.3,23.4-48.7c.2-.4.6-.6,1.1-.7.6,0,1-.1,1.4-.1.7-.2,1.1,0,1.1.3.2.6.5.7.8.3.2-.4.6-.6,1.3-.7.6,0,1,0,1,.4l-.3.6c-.2,0-.5,0-1,.3-.5.2-.7.4-.7.6.4.4,1.1.6,2.1.6s1.6-.2,1.8-.6c0-.2.2,0,.6.3.4.4.5.7.4,1,0,.3-.3.3-.7.1,0,.2,0,.3.3.3-.2.2-.2.4,0,.7.2.3.2.6,0,1,0,.4,0,.7.1,1,0,.3.1.5.1.7.2.2.3.2.3,0l1.1-1.9,1.1-1.4-.3,1.1c0,.9,0,1.5-.3,1.7.2.2.4,0,.6-.3.4-.6.6-.6.8,0,.2.2.2.4.1.7,0,.3,0,.3.1.1.4,0,.5,0,.4.1,0,0-.2.1-.4.1,0,.4.2.6.6.6.9.7,1.3,1.4,1.1,1.9.2.9,0,2.4-.4,4.3-.5,1.9-.9,2.9-1.3,2.9v.3c.4.4.4.6,0,.6l-.3.3c0,.2,0,.3-.1.3s-.1,0-.1.3c.2.2.3.4.3.6s0,.3-.3.3c0-.2,0-.1-.3.1-.2.3-.2.6,0,1-.6,1.3-1.3,3.3-2.1,6-.8,2.7-1.8,5.5-2.8,8.4-1,2.9-2,5.7-3.1,8.4-1,2.7-2,4.8-2.9,6.3l-.6,1.4c0,.6-.2,1-.6,1.4-.4.4-.6.7-.6.8v.3c0,.2,0,.4-.3.7-.2.3-.4.6-.6,1l-.6,1.7c0,.2-.3.8-.8,1.9-.6,1.1-1.2,2.4-1.9,3.9-.4.9-.7,1.8-1,2.5-.3.7-.5,1.3-.7,1.7-.2.7-.4,1.2-.6,1.4.2-.2,0,.4-.3,1.7-.4,1.3-.7,2.2-1.1,2.8-.2.2,0,.2.3,0,.4-.2.7-.5,1.1-.8s.4-.3.7-.4c.3,0,.5-.2.7-.4l.6-.6c.2,0,.8-.4,1.9-1.1l5.8-4.2c.9-.6,2-1.3,3.2-2.1,1.2-.8,2.2-1.6,2.9-2.4.9-.6,2.7-1.7,5.4-3.3,2.7-1.7,5.6-3.3,8.6-5,3.1-1.7,6-3.2,8.8-4.5,2.8-1.3,4.7-1.9,5.8-1.9,1.5.4,2.5,1.3,2.9,2.9.5,1.6.6,2.6.4,2.9-.4.4-.3.6.3.6s1.2.4,1.4,1.1c0,.9.2,1.6.6,1.9.4.6.3,1.1-.3,1.7-.4.6-1.7,1.9-3.9,3.9-2.2,2-4.2,3.7-5.8,5-.6.4-1.4,1-2.6,1.8-1.2.8-2.4,1.7-3.6,2.5-1.2.8-2.8,1.9-4.9,3.2l-3.9,2.2c-1.9,1.3-3,2-3.3,2.2-.4.2-.4,0,0-.3,0-.4-.2-.5-.6-.3-1.1.7-1.2,1.1-.3,1.1s.4.2,0,.6c-.6,0-.8,0-.8-.3-.2-.2-.4-.2-.7-.1-.3,0-.4.3-.4.7s.2.4.6,0c.2,0,.2,0,0,.3s-.4.2-.6,0c-.6-.4-1.8.3-3.6,1.9-1.1.7-1.9,1.2-2.2,1.4-.4.2-.7.4-.8.6-.4,0-.7,0-.8.3,0,.2,0,.2.3,0h.3ZM600.1,142.5c0-.2,0-.3.1-.3s.1,0,.1-.3c-.2-.2-.4-.3-.6-.3l-.3.6c0,.2.2.3.6.3ZM601.7,140.8c.2-.6,0-.5-.6.3-.2.4-.3.8-.3,1.4l-.3.3-.3.3c.4.7.7.6,1.1-.6,0-.7,0-1.3.3-1.7ZM601.5,138.9c0,.4,0,.5.3.3s.3-.5.3-.8l-.6.6ZM603.1,148.9c0-.2,0-.3-.1-.4,0,0-.1,0-.1.1-.4.2-.6.5-.6,1s0,.7.3.7c.4,0,.5,0,.3-.3,0-.4,0-.7.3-1.1ZM604.2,142.8c0-.9-.2-.8-.6.3-.4,1.1-.6,1.8-.6,1.9.4.4.6.2.7-.4,0-.6.2-1.3.4-1.8ZM604.2,141.4c.4,0,.4-.2,0-.6v.6ZM618.7,49c-.7,1.1-1.3,2.1-1.7,3.1.2-.4.4-.8.7-1.3.3-.5.6-1.1,1-1.8ZM620.7,82.1c-.4.6-.7,1.4-1.1,2.5l.8-1.1c.6-1.3.6-1.8.3-1.4ZM622.1,79.9l1.1-2.2v-.6l-1.1,2.2v.6ZM626,94.4c.6-.4.9-.6,1-.8,0-.2-.1-.2-.7,0-.4.2-1,.7-1.9,1.7s-1.4,1.6-1.4,1.9.3,0,.8-.6c.6-.6.9-1,1.1-1.4,0-.2.4-.5,1.1-.8ZM623.2,76.8c0-.2,0-.3.3-.3s.4,0,.6-.3c0-.4,0-.5-.3-.3-.6.6-.7.8-.6.8ZM625.7,116.9c.6.7.9,1.2,1.1,1.3.2,0,0-.3-.6-1.3,0-.6-.4-1.4-1.1-2.5,0-.6-.1-1.1-.4-1.5-.3-.5-.5-.8-.7-1,.4,0,.5,0,.3-.3-.6-.6-.8-.6-.8-.3-.2.2,0,.9.7,2.2.6,1.3,1.2,2.4,1.5,3.3ZM649.3,77.4c1.1-.7,1.5-1.2,1.3-1.3-.3,0-1,.2-2.1,1-1.1.9-2.8,2.2-5,3.8-2.2,1.6-4.5,3.2-6.7,4.9-2.2,1.7-4.2,3.2-6,4.5-1.8,1.3-2.7,2-2.9,2.2-.4.6.4.3,2.2-.8l3.9-3.1c.4-.4.7-.6,1-.7.3,0,.6-.2,1-.4.4-.2.6-.4.8-.6.2.2.3.2.3,0-.2-.2.6-1,2.4-2.4,1.8-1.4,5.1-3.8,9.9-7.1ZM637.9,115.9c-.4-.8-1-1.9-1.9-3.2-1.3-2-2.5-3.8-3.5-5.4-1-1.6-1.3-1.9-1-1,.2.4.6,1.2,1.4,2.4.7,1.2,1.5,2.5,2.2,3.8.7,1.3,1.8,2.9,3.1,4.7.2,0,0-.4-.3-1.3ZM636.5,98.3l-.3.3c0-.2,0-.3.3-.3ZM637.6,97.1l-.6.6h-.3v-.3l.3-.3c.2-.2.4-.3.6-.3s.2,0,0,.3ZM637.1,76.8c-.2.2-.2.3,0,.3.4,0,.6,0,.8-.3,0-.2,0-.3-.3-.3-.4,0-.6,0-.6.3ZM640.4,74.6c-.4,0-.8.2-1.3.7s-.7.8-.7,1,.4,0,1.1-.6c.7-.7,1-1.1.8-1.1ZM641,92.4c-.2,0-.4,0-.6.3-.4.6,0,.8.8.8-.2,0-.3,0-.3-.3v-.8ZM646.8,87.1l-1.1.6c-.2.2-.5.4-.8.6-.4.2-.7.5-.8.8l-.6.6.8-.6,1.7-1.4.8-.6ZM646.3,135.3l.3.6.6.6c.2-.2,0-.5-.3-.8,0-.2,0-.3-.3-.4-.2,0-.3,0-.3.1ZM650.2,84.9c.4-.4.2-.4-.6,0-.9.7-1.6,1.3-2.1,1.7-.5.4-.2.3.7-.3l1.9-1.4ZM647.9,18.7l.8-1.7v-1.7c-.7,0-.9.6-.6,1.7l-.3,1.7ZM652.4,75.2c.2-.4,0-.5-.6-.3-.9.6-1,.8-.3.8,0-.2,0-.3.3-.3s.4,0,.6-.3ZM654.3,73.8c.2-.4,0-.5-.3-.3-.9.6-1,.8-.3.8l.6-.6ZM656.3,140.3c0-.4-.3-.6-.8-.6l.3,1.1.6-.6ZM656.6,72.1c.4-.4.5-.6.4-.6s-.3.2-.7.6c-.4.2-.6.4-.7.6,0,.2,0,.3.4.3s.6-.3.6-.8ZM658.8,71c0-.2,0-.3-.1-.3s-.1,0-.1.3c-.4,0-.6,0-.7.1,0,0,0,.1.4.1s.6,0,.6-.3ZM659.6,155.9c-.2.6.2.9,1.1,1.1.4.2.3,0-.3-.3l-.3-.8h-.6ZM661,149.2c-.2,0-.3,0-.3.3s0,.3.3.3h.3c0-.2,0-.4-.3-.6ZM663.5,68.2c0-.4,0-.6-.3-.6l-.6.6.3.3c.2,0,.4,0,.6-.3ZM668.5,65.4c0-.2-.3-.3-.8-.3-.2.2,0,.3.3.3h.6ZM670.2,64.6c.2-.2.2-.4,0-.6-.4,0-.6,0-.6.3-.2.2,0,.3.6.3ZM672.4,63.5c.2,0,.3,0,.3-.3s-.2-.3-.6-.3-.4,0-.6.3c.2.2.5.3.8.3ZM676.1,61.5c.7-.4,1.2-.6,1.4-.8l.6-.6-2.5,1.1-1.7,1.1c-.2.2-.4.3-.6.3l2.8-1.1ZM680.8,63.5c0-.4,0-.6-.3-.6,0,.2,0,.3-.3.3l-.6.6c-.6.7-.2.7,1.1-.3Z"/>
  <path class="st0" d="M741.7,77.7c0,.7,0,1.3-.3,1.7.2,0,.3,0,.3.1s0,.1.3.1.3,0,.3.3c0,1.1-.7,2.6-2.2,4.5-.4.4-.5.7-.3.8-.6.7-1.5,1.8-2.9,3.1-1.4,1.3-2.8,2.6-4.3,4-1.5,1.4-2.9,2.6-4.3,3.6-1.4,1-2.4,1.6-2.9,1.8-.6.7-1.4,1.7-2.6,2.8-1.2,1.1-2.2,1.9-2.9,2.2-.4.4-1,.6-1.9.6s-1.7-.4-1.7-1.1,0-1.1-.1-2.1c0-1-.1-1.1-.1-.1v.3c0,.2-.1.2-.4.1-.3,0-1-.4-2.1-1-.4-.2-.5-.3-.4-.3s.1-.6.1-1.7-.1-.5-.4-.8c-.3-.4-.6-.6-1-.6.2,0,1.1-1,2.8-2.9,1.7-1.9,3.4-4.1,5.3-6.4,1.9-2.3,3.6-4.5,5.1-6.5,1.6-2,2.5-3.2,2.6-3.6-2.2-.2-4.5.2-6.7,1.1-2.2.9-4.5,2.1-6.8,3.6-2.3,1.5-4.6,3.1-7,4.9-2.3,1.8-4.7,3.5-7.1,5.1h.3c-.4.4-1.1,1-2.2,1.9-1.1.9-1.7,2.1-1.7,3.6s.8,2.1,2.4,4.2c1.6,2,3.7,4.4,6.3,7l14.5,14.8c2.6,2.8,4.2,5.9,4.7,9.3.6,3.4-.9,7.6-4.5,12.4-.6.9-1.5,1.9-2.9,3.1-1.4,1.1-2.9,2.2-4.6,3.3s-3.5,2.1-5.4,3.1c-1.9.9-3.9,1.5-5.7,1.7-4.6.6-9.4.6-14.2,0-4.8-.6-9.4-1.4-13.6-2.5-4.3-1.1-8-2.5-11.1-4-3.2-1.6-5.3-3.1-6.4-4.6-.7-1.1-1.4-2.5-1.9-4.3-.6-1.8-.9-3.6-1-5.6,0-1.9.1-3.8.7-5.6.6-1.8,1.7-3.1,3.3-4l15.6-8.4,1.7,3.1c.4-.2.6.2.6,1.1s0,1.8.3,2.5l.6-2.5-.3-1.1.3.3c.6-.2.7.2.6,1.1-.2.9-.2,1.3,0,1.1l1.9,1.4.3,1.7-1.9,2.2-8.6,7.2c0,.4,0,.5-.3.3-.2-.2,0,0,.3.3,2.6.9,5.7,1.6,9.2,2.1,3.5.5,6.9.6,10,.4,3.2-.2,5.8-.6,7.9-1.4,2.1-.7,3.1-1.9,2.9-3.3-.4-2.4-2.4-5.6-6.1-9.5-3.7-3.9-9.5-9.9-17.3-18.1-2.2-2.4-3.6-4.7-4.2-7-.6-2.2-.7-4.3-.4-6.3.3-1.9.8-3.6,1.5-5,.7-1.4,1.4-2.5,1.9-3.5,1.3-2.2,3.2-4.4,5.8-6.4,2.6-2,5.5-3.8,8.6-5.3,3-1.5,6.4-3,10.3-4.6,3.9-1.6,7.7-2.9,11.6-4,3.8-1.1,7.4-1.8,10.7-2.1,3.3-.3,6,.2,8.1,1.5l6.4,5c.9.7,2.3,2,4,3.9,1.8,1.9,2.7,3.8,2.9,5.8ZM715.9,77.9l.6-.6c-.7-.2-2.2.3-4.5,1.4s-4.6,2.4-7.1,3.8-4.7,2.8-6.7,4.2c-1.9,1.4-2.9,2.4-2.9,2.9h.8c.4,0,.6-.2.6-.6l5-3.9c1.5-1.1,3.8-2.5,7.1-4,3.2-1.6,5.6-2.6,7.1-3.2ZM700.8,108.8c2,2.2,3.9,4.3,5.7,6.3,1.8,1.9,3.2,3.4,4.2,4.5,1,1,1.5,1.4,1.4,1.3,0-.2-1-1.3-2.6-3.3l-8.6-8.6ZM702.5,151.4l2.8-1.1c-1.5.7-2.6,1.2-3.3,1.4,0-.2.2-.3.6-.3ZM716.3,143.1c1.6-1.7,2.3-2.7,2.1-3.1v-.3c-.2.2-.7.7-1.5,1.5-.8.8-1.8,1.7-2.8,2.6-1,.9-2.3,2.2-3.8,3.9,2.4-1.5,4.4-3.1,6-4.7ZM720.6,98.8c-.2.2-.1.4.1.6.3.2.5.2.7,0l5.3-4.7v-.3c0-.4-.2-.4-.6,0-.4.4-1.2,1-2.5,1.9l-3.1,2.5Z"/>
</svg>