<?xml version="1.0" encoding="UTF-8"?>
<svg id="Layer_1" xmlns="http://www.w3.org/2000/svg" version="1.1" viewBox="0 0 419.6 349.9">
  <!-- Generator: Adobe Illustrator 29.1.0, SVG Export Plug-In . SVG Version: 2.1.0 Build 142)  -->
  <g>
    <path d="M47.4,298.3c0,6-1.8,10.8-5.4,14.5-1.5,1.5-2.9,2.5-4.4,3-1.4.5-3.3.8-5.4.8h-14.1v-.9h4.4v-34.8h-4.4v-.9h14.1c1.5,0,2.7,0,3.6.3,3,.7,5.7,2.6,8,5.7,2.5,3.3,3.7,7.4,3.7,12.3ZM41.9,298.4c0-5.3-.6-9.5-1.9-12.6-.8-2-2.1-3.4-3.9-4.2-1-.5-2.5-.7-4.4-.7h-4v34.8h4.6c1.5,0,2.6-.1,3.5-.4,4.2-1.3,6.3-7,6.3-17Z"/>
    <path d="M68.6,308.6c-.2,2.5-.9,4.6-2.3,6.1-1.5,1.6-3.5,2.4-6,2.4s-5.6-1.1-7.5-3.2c-1.8-2-2.7-4.6-2.7-7.8s.9-5.6,2.7-7.8c2-2.3,4.4-3.5,7.3-3.5s5,1.1,6.5,3.2c1.3,1.8,2,4.2,2,7.2h-13.9v1.2c0,2.9.3,5.1.9,6.4.9,2.1,2.6,3.2,5.2,3.2s3.8-.7,5-2.2c1.1-1.3,1.7-3,1.8-5.3h1ZM64.3,304.3v-.3c0-5.5-1.5-8.3-4.4-8.3s-5.1,2.9-5.1,8.6h9.5Z"/>
    <path d="M87.3,310.2c0,2.1-.8,3.7-2.3,5-1.5,1.3-3.4,1.9-5.5,1.9s-1.9-.2-3.3-.6c-1.4-.4-2.3-.6-2.6-.6-.7,0-1.1.3-1.3,1h-.8v-8.3h.8v.4c.2,2.2.9,4,2.2,5.3,1.3,1.3,3,2,5.2,2s2.4-.4,3.3-1.1c.9-.7,1.3-1.7,1.3-3s-1.1-3.1-3.3-4c-2-.7-4-1.5-6-2.2-2.2-1.1-3.3-2.7-3.3-4.8s.7-3.4,2.2-4.6c1.4-1.1,3-1.7,4.9-1.7s1.8.2,3.1.6c1.2.4,2.1.6,2.6.6s.7-.3.8-.9h.8v7h-.8v-.6c0-1.7-.7-3.1-2-4.2s-2.7-1.7-4.4-1.7c-2.8,0-4.3,1.2-4.3,3.6s1.1,2.7,3.2,3.6c2,.8,4,1.6,6,2.3,2.1,1.2,3.2,2.9,3.2,5.1Z"/>
    <path d="M100.4,316.6h-11v-.9h3.3v-19.6h-3.3v-.9h7.7v20.5h3.3v.9ZM97.3,287c0,.7-.2,1.3-.7,1.8-.5.5-1.1.7-1.8.7s-1.4-.2-1.8-.7c-.5-.5-.7-1.1-.7-1.8s.2-1.4.7-1.8c.5-.5,1.1-.7,1.8-.7s1.3.2,1.8.7c.5.5.7,1.1.7,1.8Z"/>
    <path d="M121.1,320.9c0,2.8-1.1,5-3.2,6.8-2.1,1.8-4.6,2.7-7.4,2.7s-4.5-.6-6.4-1.8c-2.2-1.4-3.3-3.2-3.3-5.4s1.8-5.1,5.3-6.3c-1.2-.1-2.1-.5-2.9-1.1-.9-.7-1.3-1.6-1.3-2.8s1.1-3.2,3.3-4.9c-1.8-1.6-2.8-3.5-2.8-5.7s.8-4.1,2.5-5.7c1.6-1.6,3.6-2.4,5.8-2.4s2.1.2,3,.6c1-2.5,2.5-3.7,4.7-3.7s2.5.7,2.5,2.2-.6,1.7-1.8,1.7-1.2-.3-1.6-.9c-.4-.6-.7-.9-1-.9-.7,0-1.3.7-1.8,2.2,2.7,1.6,4,3.8,4,6.7s-.8,4.1-2.4,5.6c-1.6,1.5-3.5,2.3-5.7,2.3s-3.1-.4-4.4-1.2c-1.2.7-1.8,1.5-1.8,2.3s.9,1.8,2.6,2c.3,0,1.6,0,3.9,0s4.9.4,6.3,1.1c2.7,1.4,4,3.7,4,6.7ZM118.3,322.7c0-2-.8-3.4-2.3-4.4-1.2-.8-3.2-1.2-6-1.2s-5.7,2-5.7,6,.6,3.5,1.8,4.7c1.2,1.1,2.8,1.7,4.8,1.7s3.9-.6,5.3-1.8c1.4-1.2,2.1-2.8,2.1-4.9ZM114.7,301.8c0-4.4-1.3-6.7-4-6.7s-4.2,2.5-4.2,7.4,1.3,6.6,4,6.6,4.1-2.4,4.1-7.3Z"/>
    <path d="M146.2,316.6h-10.6v-.9h2.8v-14.7c0-3.2-1.2-4.8-3.5-4.8s-2.9.7-3.7,2.2c-.7,1.2-1.1,2.7-1.1,4.4v12.9h2.8v.9h-10.6v-.9h3.4v-19.6h-3.4v-.9h7.4v3.7c1.2-2.7,3.3-4.1,6.2-4.1s4.1.8,5.4,2.5c1,1.2,1.5,2.9,1.5,5.2v13.3h3.3v.9Z"/>
    <path d="M166.2,308.6c-.2,2.5-.9,4.6-2.3,6.1-1.5,1.6-3.5,2.4-6,2.4s-5.6-1.1-7.5-3.2c-1.8-2-2.7-4.6-2.7-7.8s.9-5.6,2.7-7.8c2-2.3,4.4-3.5,7.3-3.5s5,1.1,6.5,3.2c1.3,1.8,2,4.2,2,7.2h-13.9v1.2c0,2.9.3,5.1.9,6.4.9,2.1,2.6,3.2,5.2,3.2s3.8-.7,5-2.2c1.1-1.3,1.7-3,1.8-5.3h1ZM161.9,304.3v-.3c0-5.5-1.5-8.3-4.4-8.3s-5.1,2.9-5.1,8.6h9.5Z"/>
    <path d="M191.3,316.6h-7.4v-3c-1.2,2.3-3,3.5-5.6,3.5s-4.5-1.1-6.1-3.3c-1.6-2.2-2.5-4.9-2.5-8.1s.8-5.7,2.5-7.8c1.6-2.1,3.6-3.2,6-3.2s4.2,1,5.3,2.9v-16.7h-3.4v-.9h7.8v35.7h3.4v.9ZM183.5,308.4v-5.4c0-4.8-1.5-7.2-4.6-7.2s-3.5,1.5-4,4.4c-.3,1.4-.4,3.3-.4,5.8,0,3.6.3,6.1,1,7.6.7,1.5,1.8,2.2,3.4,2.2,3.1,0,4.6-2.5,4.6-7.4Z"/>
    <path d="M245.2,280.9h-4l-10.2,37.2h-.7l-7.3-23.5-6.4,23.5h-.7l-11.5-37.2h-3.8v-.9h12.4v.9h-3.6l8.7,27.9,4.4-16-3.9-11.9h-3.9v-.9h13.2v.9h-4.3l8.8,28,7.6-28h-4.6v-.9h9.7v.9Z"/>
    <path d="M260.2,305.9c0,3.1-1,5.8-2.9,7.9s-4.3,3.2-7.1,3.2-5.2-1.1-7.1-3.2c-1.9-2.2-2.9-4.8-2.9-7.9s1-5.7,2.9-7.9c1.9-2.2,4.3-3.2,7.1-3.2s5.2,1.1,7.1,3.2c1.9,2.2,2.9,4.8,2.9,7.9ZM255.4,305.9c0-3.7-.4-6.3-1.2-7.9-.8-1.6-2.1-2.4-4-2.4s-3.1.8-3.9,2.4c-.8,1.6-1.2,4.2-1.2,7.9s.4,6.3,1.2,7.9c.8,1.6,2.1,2.4,3.9,2.4s3.2-.8,4-2.4c.8-1.6,1.2-4.2,1.2-7.9Z"/>
    <path d="M278.1,297.7c0,1.6-.8,2.3-2.3,2.3s-2.2-.7-2.2-2,0-.6.2-.9c.1-.3.2-.4.2-.5,0-.4-.2-.6-.7-.6-.9,0-1.6.9-2.3,2.6-.7,1.8-1.1,4-1.1,6.6v10.5h4v.9h-11.8v-.9h3.4v-19.6h-3.4v-.9h7.4v5.7c.7-4.1,2.4-6.1,5-6.1s1.8.3,2.5.8c.7.5,1,1.2,1,2.1Z"/>
    <path d="M289.2,316.6h-11.1v-.9h3.3v-34.8h-3.3v-.9h7.7v35.7h3.3v.9Z"/>
    <path d="M312.8,316.6h-7.4v-3c-1.2,2.3-3,3.5-5.6,3.5s-4.5-1.1-6.1-3.3c-1.6-2.2-2.5-4.9-2.5-8.1s.8-5.7,2.5-7.8c1.6-2.1,3.6-3.2,6-3.2s4.2,1,5.3,2.9v-16.7h-3.4v-.9h7.8v35.7h3.4v.9ZM305.1,308.4v-5.4c0-4.8-1.5-7.2-4.6-7.2s-3.5,1.5-4,4.4c-.3,1.4-.4,3.3-.4,5.8,0,3.6.3,6.1,1,7.6.7,1.5,1.8,2.2,3.4,2.2,3.1,0,4.6-2.5,4.6-7.4Z"/>
    <path d="M342.5,296.1h-2.8l-7.2,21.4h-.5l-5.1-14.8-5,14.8h-.5l-7.4-21.4h-2.6v-.9h8.8v.9h-2l5,14.3,3.1-9.2-1.8-5h-2.3v-.9h9.6v.9h-3.1l5,14.4,4.8-14.4h-3.2v-.9h7v.9Z"/>
    <path d="M352.6,316.6h-11v-.9h3.3v-19.6h-3.3v-.9h7.7v20.5h3.3v.9ZM349.6,287c0,.7-.2,1.3-.7,1.8-.5.5-1.1.7-1.8.7s-1.4-.2-1.8-.7c-.5-.5-.7-1.1-.7-1.8s.2-1.4.7-1.8c.5-.5,1.1-.7,1.8-.7s1.3.2,1.8.7c.5.5.7,1.1.7,1.8Z"/>
    <path d="M375.7,316.6h-7.4v-3c-1.2,2.3-3,3.5-5.6,3.5s-4.5-1.1-6.1-3.3c-1.6-2.2-2.5-4.9-2.5-8.1s.8-5.7,2.5-7.8c1.6-2.1,3.6-3.2,6-3.2s4.2,1,5.3,2.9v-16.7h-3.4v-.9h7.8v35.7h3.4v.9ZM367.9,308.4v-5.4c0-4.8-1.5-7.2-4.6-7.2s-3.5,1.5-4,4.4c-.3,1.4-.4,3.3-.4,5.8,0,3.6.3,6.1,1,7.6.7,1.5,1.8,2.2,3.4,2.2,3.1,0,4.6-2.5,4.6-7.4Z"/>
    <path d="M395.7,308.6c-.2,2.5-.9,4.6-2.3,6.1-1.5,1.6-3.5,2.4-6,2.4s-5.6-1.1-7.5-3.2c-1.8-2-2.7-4.6-2.7-7.8s.9-5.6,2.7-7.8c2-2.3,4.4-3.5,7.3-3.5s5,1.1,6.5,3.2c1.3,1.8,2,4.2,2,7.2h-13.9v1.2c0,2.9.3,5.1.9,6.4.9,2.1,2.6,3.2,5.2,3.2s3.8-.7,5-2.2c1.1-1.3,1.7-3,1.8-5.3h1ZM391.4,304.3v-.3c0-5.5-1.5-8.3-4.4-8.3s-5.1,2.9-5.1,8.6h9.5Z"/>
  </g>
  <g>
    <path d="M15,67.6c.2-23,21.9-32.9,41.9-32.9s45.3,8.8,45.3,34.6-20.8,32.9-43.6,32.9-23.6,2.3-23.6,14.1v9.3h67.5v19.1H14.6v-28.6c0-25,22.7-32.4,44.1-32.4s23.3-1.4,23.3-14-10.7-17.4-24.7-17.4-21.7,5.4-21.9,15.2H15Z"/>
    <path d="M198.6,55.5h-58.7v19.1h21.1c23.1,0,43.8,9.5,43.6,34.9,0,24.7-20.6,36.5-42.5,36.5s-44.4-8.5-44.5-34h20.3c0,12,13.7,15.1,23.9,15.1s22.5-4.7,22.5-17.5c.2-12.3-12.1-15.8-23.3-15.8h-41.1v-57.4h78.7v19.2Z"/>
    <path d="M217.4,82.5c0-64.9,95.3-64.7,95.3,0v15.7c0,64.7-95.3,64.9-95.3,0v-15.7ZM237.8,98.1c0,39.4,54.6,39.4,54.6,0v-15.7c0-38.8-54.6-39.3-54.6,0v15.7Z"/>
    <path d="M358.7,87.9v-26.7h7.3v26.7h27.2v7.4h-27.2v27.5h-7.3v-27.5h-27.2v-7.4h27.2Z"/>
  </g>
  <g>
    <path d="M35.1,179v58.6h36.5v12.4H21.7v-71h13.4Z"/>
    <path d="M150.6,214.9c-.2,18.3-11.5,36.7-36.4,36.7s-36.5-17.9-36.5-36.6,12-37.4,36.5-37.4,36.6,18.8,36.4,37.3ZM90.9,215.2c.3,11.7,6.6,24.1,23.3,24.1s23-12.6,23.2-24.2c.2-12-6.5-25.3-23.2-25.3s-23.6,13.5-23.3,25.4Z"/>
    <path d="M215.2,196.3c-4.8-4.6-11.9-7.1-18-7.1-15.2,0-24.4,11.6-24.4,26.2s6.8,23.7,24.4,23.7,10.4-1.2,16-5.7v-12.6h-18.1v-12h30.4v29.9c-7,8-15.8,12.8-28.3,12.8-26.7,0-37.5-17.5-37.5-36.2s12.5-38.4,37.5-38.4,19.1,3.6,26.4,10.8l-8.3,8.5Z"/>
    <path d="M308.2,214.9c-.2,18.3-11.5,36.7-36.4,36.7s-36.5-17.9-36.5-36.6,12-37.4,36.5-37.4,36.6,18.8,36.4,37.3ZM248.5,215.2c.3,11.7,6.6,24.1,23.3,24.1s23-12.6,23.2-24.2c.2-12-6.5-25.3-23.2-25.3s-23.6,13.5-23.3,25.4Z"/>
  </g>
  <g>
    <g>
      <path d="M364.6,223.3l-17.7-3.1c-11.4-2-19.3-6.2-23.8-12.7v37.6l10.2-10.2c9.3,6.9,18.1,10.2,27.5,10.2s17.2-4.4,17.2-11.2-3.8-9.2-13.4-10.7Z"/>
      <path d="M382.7,190.3c-9.3-6.9-18.1-10.2-27.5-10.2s-17.2,4.4-17.2,11.2,3.8,9.2,13.4,10.7l17.7,3.1c11.4,2,19.3,6.2,23.8,12.7v-37.6l-10.2,10.2Z"/>
    </g>
    <path d="M407.2,170.3c-1-1.1-2.3-1.6-4-1.6s-3.1.5-4,1.6c-1,1.1-1.5,2.5-1.5,4.3s.2,2.2.7,3.1c.5.9,1.1,1.5,1.9,2,.8.4,1.8.7,3.1.7s2.9-.5,3.8-1.6c1-1.1,1.5-2.5,1.5-4.3s-.5-3.2-1.5-4.3ZM403.2,170.7c1,0,1.7.3,2.3,1,.4.5.7,1.1.8,1.9h-6.1c.1-.8.4-1.4.8-1.9.6-.7,1.3-1,2.3-1ZM403.2,178.5c-.9,0-1.6-.3-2.2-1-.4-.5-.7-1.1-.8-1.9h6.1c-.1.8-.4,1.5-.8,1.9-.6.6-1.3,1-2.2,1Z"/>
  </g>
</svg>