<?xml version="1.0" encoding="utf-8"?>
<!-- Generator: Adobe Illustrator 24.3.0, SVG Export Plug-In . SVG Version: 6.00 Build 0)  -->
<svg version="1.1" id="Layer_1" xmlns="http://www.w3.org/2000/svg" xmlns:xlink="http://www.w3.org/1999/xlink" x="0px" y="0px"
	 viewBox="0 0 100 100" style="enable-background:new 0 0 100 100;" xml:space="preserve">
<style type="text/css">
	.st0{fill:#020202;}
</style>
<g>
	<g>
		<path class="st0" d="M54.05,60.71l-13.81-2.42c-8.92-1.54-15.08-4.84-18.54-9.88v15.6v13.7l7.93-7.93
			c7.24,5.42,14.09,7.99,21.49,7.99c8.16,0,13.39-3.41,13.39-8.7C64.51,64.34,61.58,61.92,54.05,60.71z"/>
		<path class="st0" d="M68.18,35.01c-7.24-5.42-14.09-7.99-21.49-7.99c-8.16,0-13.39,3.41-13.39,8.7c0,4.74,2.93,7.16,10.46,8.37
			l13.81,2.42c8.92,1.54,15.08,4.84,18.54,9.88v-5.55V27.08L68.18,35.01z"/>
	</g>
	<path class="st0" d="M87.3,19.42c-0.76-0.83-1.81-1.25-3.15-1.25c-1.34,0-2.38,0.41-3.14,1.23c-0.75,0.82-1.13,1.95-1.13,3.39
		c0,0.94,0.18,1.75,0.54,2.44c0.36,0.69,0.85,1.2,1.47,1.55c0.62,0.35,1.42,0.52,2.4,0.52c1.24,0,2.25-0.41,3-1.23
		c0.76-0.82,1.14-1.93,1.14-3.32S88.05,20.25,87.3,19.42z M84.16,19.7c0.75,0,1.35,0.25,1.78,0.76c0.31,0.37,0.51,0.86,0.6,1.47
		h-4.77c0.09-0.6,0.29-1.09,0.59-1.46C82.8,19.95,83.4,19.7,84.16,19.7z M84.16,25.77c-0.69,0-1.27-0.25-1.74-0.75
		c-0.34-0.36-0.55-0.85-0.65-1.48h4.76c-0.1,0.64-0.31,1.13-0.64,1.49C85.42,25.53,84.84,25.77,84.16,25.77z"/>
</g>
</svg>
