<?xml version="1.0" encoding="UTF-8"?>
<svg id="Layer_1" xmlns="http://www.w3.org/2000/svg" version="1.1" viewBox="0 0 174.7 40">
  <!-- Generator: Adobe Illustrator 29.1.0, SVG Export Plug-In . SVG Version: 2.1.0 Build 142)  -->
  <defs>
    <style>
      .st0 {
        fill: #fff;
      }
    </style>
  </defs>
  <polygon class="st0" points="15.9 25.9 16.2 25.7 16.1 25.7 15.9 25.9"/>
  <path class="st0" d="M39.8,26.2h0s0,0,0,.1c0,0,0,0,0,0,0,0,0,0,0,0Z"/>
  <path class="st0" d="M43,23.5v-.3l.4-.2c.1-.2.3-.5.5-.9.2-.4.4-.7.6-1,0-.2.2-.4.2-.5,0-.1,0-.2,0-.3.1,0,.2-.2.3-.5,0,0,.2,0,.5-.1.3,0,.6,0,.9-.1.3,0,.6,0,.9,0,.3,0,.5,0,.6,0,.3,0,.5-.1.7,0,.1,0,.3,0,.6,0,.3,0,.3-.3.2-.5s-.2-.4-.3-.5c0,0,0-.2.3-.3,0,0,0-.2,0-.3,0,0,0-.2,0-.3,0,0-.1-.2,0-.3,0,0,0-.2,0-.2h0v-.2c0,0,0-.2,0-.5s0-.3.1-.7c0-.4.1-.7.1-.7,0-.1-.3-.2-.9-.2h-1.3s.2-.7.8-2.1c.7-1.6,1.3-3,1.7-4,.4-1.1.7-1.8.9-2.3.7-2.1.9-3.5.6-4.3-.3-.8-1.1-1.2-2.3-1.2s-.5,0-.9,0c-.4,0-.7,0-1.1,0-.4,0-.7.1-1,.2s-.5.1-.7.2c-.3,0-.6.2-1,.4-.4.2-.8.4-1,.5,0,0-.2,0-.2.1,0,0-.1,0-.2,0s-.5.2-1.3.7c-.8.5-1.8,1.1-3,1.8-1.2.8-2.5,1.6-3.8,2.5-1.4.9-2.7,1.8-3.9,2.7l-5.2,3.7c-.1,0-.3.2-.4.3-.1,0-.2.2-.3.3l-.8.6-1.4,1c-.6.4-1,.8-1.3,1-.3.2-.6.4-.9.5-.3.1-.6.3-1,.4-.4.1-1,.3-1.7.5-.6.2-1.2.4-1.7.6-.5.2-.7.3-.7.4,0,0,0,.1,0,.1.1,0,.2,0,.1.2s-.1.1-.2.2c0,0-.2,0-.3.3s0,.2.1.1c.2,0,.3,0,.3,0,0,0-.1.1-.3.2h-.3c0,.1.1.3.1.3,0,0,0,.1.3.1,0,0,.1,0,.1,0s0,0,.1,0c0,0,.1,0,.1,0,0,.1,0,.2,0,.2.2,0,0,.2-.8.7-.1.1-.3.2-.4.4-.1.1-.2.2-.3.2,0,0-.2.2-.3.2,0,0-.2.1-.2.2,0,0-.1,0-.2.2-.5.3-.7.5-.7.6-.1.1-.2.2-.3.2l-.8.6c-.2.2-.4.3-.5.4s-.2.2-.3.2c0,0-.1,0-.2.1,0,0-.2,0-.2.2s-.1.1-.2.2l-1.4,1.3c-.7.6-1.3,1.1-1.8,1.5-.4.4-.9.9-1.4,1.4-.4.3-.6.6-.9.9-.3.3-.5.6-.7.8-.5.5-1.1,1-1.6,1.7-.6.6-1,1.1-1.3,1.5-.4.4-.5.7-.5.7,0,.1.3,0,.5-.2l.3-.2c.1,0,0,0-.2.2-.1.1-.2.2-.2.3,0,0,0,.1-.3.3-.1,0-.1.1,0,.1.3,0,.5.3.5.5s0,.2-.1.3c-.1.1-.2.2-.2.3,0,0,.1,0,.1-.1.5-.4.7-.5.4-.1-.1.2-.1.2,0,.2.2,0,.5-.1.9,0,.4,0,.5.1.4.3l-.2.4,1.8-.5h.4c-.1.2,0,.2.1.2.2,0,.2,0,0,.3-.2.2-.2.3-.2.4,0,0,.2,0,.5-.3.3-.2.5-.3.7-.3l.3-.3,2.4-1.9.2-.2c.1-.1.2-.2.4-.3.1,0,.2-.2.3-.3,0,0,.1-.2.2-.2,0,0,0-.1.1-.2,0,0,.3-.2.6-.6.4-.4.9-.7,1.3-1,.3-.3.5-.4.5-.5s0,0,.1-.1c0,0,.2,0,.3,0l.3-.2c0,0,0-.1.1-.1,0,0,0,0,0-.1,0,0,0-.1.1-.2,0,0,0,0,.1,0s.3-.2.7-.5,1-.8,1.7-1.4c.7-.6,1.4-1.2,2.2-1.9s1.7-1.4,2.5-2.1c1-.8,1.8-1.3,2.2-1.5.5-.2.8-.3,1-.4.2,0,.6-.2,1-.3l1.2-.2c.4,0,.8-.2,1.2-.3.4-.1.8-.2,1.2-.3l1-.2,1.6-.2c0,0,.4,0,.8-.1.4,0,.9-.1,1.5-.2.6,0,1.1,0,1.5-.1.1,0,.4,0,.7,0,.3,0,.6,0,.7-.1.2,0,.3,0,.5,0v.2c-.1,0-.6.7-.6.7l-.8,1.1-.5.9s-.1.2-.2.3c0,.2-.2.4-.5.7,0,.2-.2.4-.4.6-.1.2-.2.4-.2.5l-.6,1c-.2.2-.3.5-.5.8-.2.3-.3.6-.5.9-.1.2-.4.6-.7,1.1-.3.5-.6,1.1-.8,1.6-.4.9-.7,1.5-.8,1.8s-.2.7-.3,1.2c-.2.7-.3,1.4-.3,2.1s0,.9.3.8c0,0,0,0,.1.3,0,.3,0,.6.4.9.3.2.6.4,1,.5s.8.2,1.2.3c.4,0,.7,0,.8,0,.4,0,.7,0,.8-.1,0,0,.2,0,.5,0,.3,0,.5,0,.5-.1.2,0,.6-.3,1.1-.6.5-.3,1-.7,1.5-1,.5-.4,1-.7,1.5-1.1s.7-.6.9-.7l.3-.3c.2,0,.3,0,.3-.1s0-.1,0-.1.1,0,.2-.2c0-.1.1-.3.4-.5.2-.2.3-.4.4-.4s0-.1,0-.2c0,0,0-.2,0-.3,0-.1,0-.2,0-.3,0,0,0,0,0-.1,0,0,0-.1,0-.2,0,0,0-.1-.1-.3-.1,0-.2-.1-.2-.3.1,0,.1-.2,0-.3,0,0,0,0,0-.2,0,0,0-.2-.2-.3-.2-.1-.4-.1-.5,0,0,0,0,0-.1,0,0-.1,0-.2-.3-.1s-.4.2-.6.3c-.2.1-.5.3-1,.5s-.8.2-.8.2c0,0,.4-.5.9-1.5.5-1,1.3-2.3,2.4-4,0-.1.2-.4.4-.7.2-.3.4-.6.6-.8.1-.3.2-.5.4-.7.1-.2.2-.3.2-.3,0,0,0-.2,0-.3,0-.1,0-.2,0-.1ZM47.3,10.4c0-.1.2-.3.3-.5,0,0,0-.2.1-.2,0,0,0,.3-.3.7-.1.1-.2.3-.3.4,0,.1,0,.2-.1.2l.3-.6ZM46.9,11.3c0-.1.1-.1,0,0-.1.3-.2.4-.3.4,0,0,0-.2.2-.3ZM46.5,11.9c0-.2.1-.2.1-.1v.3c-.1,0-.3.2-.3.2,0,0,0-.2.2-.3ZM46.5,13.6c.2-.3.3-.5.5-.9.2-.3.3-.6.4-.9.3-.5.4-.8.5-.9,0-.1.2-.4.5-.7.2-.4.3-.7.3-.7,0,0,0,0,0-.1s0-.1.1-.2c0-.2.2-.3.3-.5.3-.4.4-.6.5-.6,0,0-.1.5-.7,1.6,0,.2-.2.4-.3.6,0,.2-.2.4-.3.5,0,.2-.1.3-.2.5l-.4.6-.4.9-.2.4s0,0,0,0,0,0,0,.1c0,0-.1,0-.1.3s0,.1-.1.2c0,0-.1,0,0,0,0,0,0,0,0,.1,0,0,0,0,0,.1s0,0,0,0c0,.1-.2.2-.3.1,0,0-.1-.2-.1-.3,0-.1.1-.4.3-.7ZM2.5,34.2c0,0,0,.2-.2.3s-.2.1-.1,0c.1-.1.2-.2.2-.3,0,0,.1,0,.2-.1,0,0,0,0,0,0ZM11,31.2h-.2c0,0,0,0,.3-.1,0,0,.1-.1.1,0l-.2.2ZM11.3,30.8l.3-.3c-.1.2-.2.3-.3.3ZM12.4,29.8c-.2,0-.3.2-.4.3,0,.1-.1.2-.2.2l.4-.5c.2,0,.3-.2.4-.3,0-.1.1-.2.2-.2,0,.1-.1.3-.5.5ZM17.2,25.5h-.2c0,0,0,0,.3-.1,0,0,.1-.1.1,0l-.2.2ZM17.6,25.2l.3-.3c-.1.2-.2.3-.3.3ZM18.2,24h-.1c0,.1,0,.2-.2.4-.1.1-.3.3-.5.4-.3.3-.5.5-.6.6,0,0,0,0,0,0,.1-.2.1-.2,0-.2-.1,0-.3.2-.5.5h.2c0-.1-.3.2-.3.2,0,0,0,.2-.2.2-.1,0-.2,0-.3,0,0,0,0,0-.1,0v.3s0,0-.1-.2c0,0,.1,0,0,0,0,0,0,0-.1,0,0,0,0,.1,0,.3,0,0,0,0,0,0s0,0-.1,0c0,0,0,0-.2,0-.2,0-.4.2-.6.4s-.2.3-.2.3c0,0,0,0,0,0,0,0-.2,0-.4,0s-.2.2,0,.2h0s0,0,0,0h0c0,.2,0,.2,0,.2,0,0,0,0,0-.1l-1.6,1.1c0,0,0,.2-.2.3-.2.1-.3.2-.5.4-.3,0-.4.2-.5.2,0,0,0,0-.1,0,0,0,0,0,0-.1,0,0,.1-.1.2-.2.1,0,.3,0,.5-.2.2-.2.4-.4.4-.4,0,0,0-.1.3-.3,0,0,0,0,.1,0,0,0,.2-.2.3-.3,0,0,0,0,0-.1,0,0,0,0,.1,0,0,0,.2,0,.3-.2.1-.2.3-.3.6-.6,0,0,.1-.1.2-.2,0,0,0,0,0-.1,0,0,0,0,0-.1,0,0,.3,0,.6-.3,0,0,.2-.2.3-.2,0,0,.2,0,.2,0h0s0,0,0-.1c0,0,.2-.1.3-.2.1-.1.2-.2.4-.2,0-.2,0-.2,0-.2,0,0,0-.1.2-.2.1,0,.2-.1.2-.1l.8-.8c.5-.4.8-.7.9-.7s0,0-.4.4c-.2.4-.2.5,0,.5.2-.2.3-.3.4-.3h0ZM18.7,24.2c-.2,0-.3.2-.4.3,0,.1-.1.2-.2.2l.4-.5c.2,0,.3-.2.4-.3,0-.1.2-.2.2-.2,0,.1-.2.3-.5.5ZM27.4,20.4c-.2.1-.4.2-.5.2-1.2.1-1.9.2-1.9,0s0,0,.3,0,.4,0,.7,0c.2,0,.5,0,.7,0s.4,0,.5,0c.3-.1.4-.2.2,0ZM41.3,32.7c0,0,0-.1,0-.1.2,0,.2,0,.1,0,0,0,0,.1-.1.1,0,0,0,0,0,0ZM38.4,32.3s0,0,.1,0,0,0,0,0h-.1c0,.1,0,0,0,0ZM44,19c-.1.2-.2.3-.3.3s0,0,0-.2c0,0,.1,0,.2-.1s0,0,0-.1c0,0,0,0,.1-.2,0,0,.1-.1.2-.2h0s0,.1-.2.2c0,.1-.1.2-.2.3ZM45,6.5s0,0,0,.1c0,0,0-.1,0-.1ZM39.2,9.8c.1,0,.3,0,.4-.2s.1,0,.2-.2c0,0,.2-.1.3-.2,0,0-.2.2-.3.2,0,0-.2.1-.2.2-.2.2-.4.2-.5.2s0,0,0-.2ZM36.8,10.9s0,0,0,0h0c0,0,0,0,0,0,0,0,0,0,0,0ZM31.7,14.2s0,0,.1,0,0,0,0,0c0,0,.2,0,.3,0s.2-.2.2-.3h0s.1,0,.3-.2c0,0,0,0,.3-.1,0,0,0,0,.1,0s0,0,.1,0c0,0,.2,0,.2-.1,0,0,.2-.2.4-.3,0,0,0,0,0,0s0,0,0-.1c0,0,0,0,0,0,0,0,.2,0,.2,0,0,0,.2-.1.3-.2,0,0,.1,0,.2-.1h0c0,0,0,0,0,0,0,0,0,0,0,0,0,0,.1,0,.2-.2s.1-.1.2-.1h.1c0-.2,0-.2.1-.3,0,0,.1,0,.2,0,0,0,.1,0,.2-.1,0,0,.2-.2.5-.4h.3c0,0,0,.1,0,.1,0,0-.1.2-.3.3-.4.4-.6.5-.6.3h-.2c0,.1,0,0,0,0h-.2c0,.2,0,.2,0,.2h0c0,.1,0,.2-.3.2,0,0,0,0,0,0v.2h0c0-.1,0-.1,0-.1,0,0,0,.1,0,.2h0s0,0-.1,0c0,0-.1,0-.2,0-.1,0-.3.2-.4.3-.1,0-.2.1-.1.1,0,0,0,0,0,0,0,0-.1,0-.2,0,0,0-.1.1,0,.2,0,0,0,0,0,0h0c0,0,0,0,0,0,0,0-.2,0-.5.3-.3.2-.5.3-.7.4,0,0-.2.2-.5.3-.2,0-.3.2-.4.2,0,0,0,0,0,0,0,0,0,0,0,0ZM36.8,19.6c-.4,0-.8.2-1.3.2-.5,0-1.1.1-1.9.2l3.8-.6c0,0-.3,0-.7.2ZM37.2,20.5h.3c0,0,0,0,0,0-.2,0-.3,0-.3,0ZM39.7,27c-.1.3-.2.5-.3.6,0,0,0,0,0,0,0-.1,0-.2,0,0s-.1.2-.2.5h0c0-.1,0,.1,0,.1,0,.2,0,.3-.2.3s0,0-.1,0c0,0,.1.1.1.1s0,0,0,0c0,0,0,0-.1,0,0,0,0,0,0-.1,0,0,0,0,0,.1,0,0,0,.1,0,.2h0c0,0-.1.2-.1.2-.1,0-.2.2-.3.4,0,.2,0,.3,0,.3,0,0,0,0,0,0,0,0-.2,0-.2.1,0,.1,0,.2,0,.2,0,0,0,0,0,0,0,0,0,0,0,0,0,0,0,0,0,.1,0,0,0,0,0,0s0,0,0,0l-.8,1.1c0,.1,0,.3-.3.6-.2.3-.3.4-.3.3,0-.1,0-.2,0-.3,0,0,.2,0,.3-.3s.2-.3.1-.4c0,0,0,0,.1-.3l.3-.3h0v-.2s.2-.2.5-.7c0,0,0-.1,0-.2,0,0,0,0,0-.1s0,0,0-.1c0,0,.2,0,.3-.3.2-.2.3-.3.3-.3h0c0-.2,0-.4.3-.6,0,0,0-.1,0-.1,0,0,0,0,0,0,0,0,0-.1,0-.2,0,0,0-.1.1-.1l.4-.8c.1-.3.2-.5.4-.6.1-.1.1,0,0,0h0s0,0,0,.1h0c0-.1.1-.2.1-.2v.3c-.1,0-.3.2-.3.2h0c0,.3,0,.3.1.1,0-.2,0-.3.2-.3v.2c0,0,0,.2-.3.5ZM40.3,25.3c-.1.3-.2.4-.3.4,0,0,0-.2.2-.3,0-.1.1-.1,0,0ZM40.9,24.5c-.1.1-.2.3-.3.4,0,.1,0,.2-.1.2l.3-.6c0-.1.2-.3.3-.5,0,0,0-.1.1-.2,0,0,0,.2-.3.6ZM40,15.6c-.4,0-.7,0-1.1,0-.4,0-.6,0-.7,0-1.8.2-3.2.4-4.1.5s-1.7.2-2.2.3c-.5,0-.8.1-.9.1-.1,0-.2,0-.3,0h-.4l5.1-3.7c.9-.6,1.5-1,1.9-1.2.3-.2.5-.3.6-.3,0,0,.1,0,.2,0,0,0,0-.2,0-.3,0,0,.2-.1.3-.1s0,0,0,0c-.2.2.1,0,1-.4.7-.4,1.2-.7,1.5-.9.3-.2.5-.3.8-.5l.6-.4.7-.4,1.5-.7c-.2.3-.3.5-.3.6,0,.1,0,0,.3-.4v-.3c.2,0,.2,0,.2,0,0,0,0,0,.1,0l-1.7,2.8-3.4,5Z"/>
  <path class="st0" d="M43.4,23.1h-.1c.2,0,.4,0,.5-.1,0,0,0,0-.3.1Z"/>
  <path class="st0" d="M39,28c0,0,0,.1,0,.1,0,0,0,0,0-.1Z"/>
  <path class="st0" d="M39.1,28h0c0,0,0,0,0,0,0,0,0,0,0,0Z"/>
  <path class="st0" d="M61.4,24c.3-.2.3-.4.3-.5v-.2l-.2-.3h0c0-.1,0-.1,0-.2,0,0,0,0,0,0h0c0,0,0-.2-.2-.3,0-.3,0-.5,0-.5,0,0,0,0,0,.1s0,.2,0,.2,0,0,0-.2c.2.3.2.5,0,.5h.2s0,0,0,.1v.3c0,0,.2.2.3.4l.3.2v-.5c0-.2,0-.4,0-.6,0,0,.1,0,0,0s0,0,0,0l-.3-.8v-.5c-.1,0,0,0,0,0,.1,0,.2.1.2.2h0c0,0,.3,0,.3,0,0,0,0,.1,0,.3,0,.2-.1.3,0,.3s.1,0,.3.1c0,0,0,.2,0,.2,0,0,0,.1,0,.2.2.2.3.2.3.1s0-.3-.1-.5c0-.2-.2-.5-.3-.9-.1-.3-.2-.6-.3-.9.2.2.3.4.5.6.2.3.2.3.2.3,0-.3-.1-.7-.4-1.3s-.6-1.1-1-1.6c-.4-.5-.8-1-1.3-1.4-.5-.4-.9-.7-1.3-.8-.1,0-.3,0-.6-.1-.3,0-.5,0-.7,0h-.5c-.2.1-.3.2-.2.3,0,0,0,0-.2,0,0,0-.1,0-.2,0,0,0-.3,0-.7.2-.3.2-.6.3-.6.4s-.2,0-.2,0c0,0,0,0-.1,0h-.1c0,.2-.2.3-.3.3-.3.1-.5.3-.7.6,0,0-.2.2-.3.3,0,0-.2.1-.2.2,0,0,0,.1,0,0,0,0,.1,0,.1,0s0,0-.1.2c-.2,0-.3.1-.3.1h.1c0-.2,0-.2,0-.3s0,0,0,0c-.2.2-.5.5-.7.9-.3.4-.6.8-.9,1.3-.3.5-.6,1-.9,1.5-.3.5-.6,1-.8,1.4.3-.4.5-.8.8-1.4.3-.5.5-1,.8-1.5.2-.5.5-1.1.7-1.8-.2,0-.2,0-.1-.2,0,0,0-.1-.3-.2-.2,0-.3-.1-.3-.2-.2,0-.2,0-.1.2,0,0,0,.2-.1.4,0,.1-.2.2-.2,0,0,0,0,0,0,0,0,0,0,.1,0,.2,0,0,0,.2-.2.2,0,0,0,0,0,0,0,0,0,0,0,0s0,0,.1.2h0c0,0-.1.1-.2.3v-.3c.2-.5.3-.8.4-.8,0,0,0,0,.1,0,0,0,0,0,.1,0,0,0,0-.1,0-.1s0,0-.1-.2c0-.2,0-.3,0-.4,0,0-.1,0-.1,0-.1.2-.2.2-.3,0,.2,0,.2-.1,0-.1s-.1,0-.2.1c0,0,0,0-.1,0h0c0,0,0,0-.1,0,0,0,0,0,0,0s0,0-.1-.2h0c0,0,0,0,0,0,0,0,0,.2,0,.3h-.1c0,0,.1.1.1.1-.1,0-.3.3-.5.5,0,0,.1,0,.3,0-.2,0-.3.1-.4.1h0s0,0,.1-.2h0s0,0,0,0,0,0,0,0h-.1c0,0-.2.4-.2.4,0,0,0,0,0,0,0,0,0,0,0,0h0c-.5,1-1,2.1-1.6,3.3-.5,1.2-1,2.2-1.5,3,0,.1,0,.2,0,.3,0,0,0,0,0,0h0c0,.2-.1.3-.3.4-.1.1-.2.2-.2.4l-.3.5s0,0-.1,0,0,0,0,0c0,0,0,.1,0,.3s-.1.2-.2.1c0,0,0,0,0,0s0,0,0,.1,0,0,0,0,0,0,0,0,0,0-.1.1c0,0,0,.1-.1.1,0,0,0,0,0,0s0,0,.1.1c0,0,0,.1,0,.1,0,0,0,0,0,0,0,0,0,.2-.2.4-.2.2-.3.5-.4.7-.1.3-.2.4-.3.4h0c-.2.5-.3.8-.5,1.1s-.2.5-.3.7c0,.2-.1.3-.1.4-.1.6-.1,1.2,0,1.8,0,.3,0,.4.2.5,0,0,0,0,0-.2,0,0,0-.1,0-.2s0,0,0,0c0,0,.1.2.2.2,0,0,0,0,.2.1,0,0,.1,0,0,0,0,0,0,0,0,0,0,.1.2.1.2,0,0-.2,0-.3.3-.3s0,0,0,.2c-.1.1-.1.3,0,.6,0,0,0,.1,0,0,.1,0,.2-.1.3-.2,0,0,0,.1,0,.2,0,.2,0,.3-.2.3s-.2,0-.1.1c.3.1.5.2.6.2,0,0,0,0,0,0,0,0,0,0,0,.2,0,.2,0,.3.3.3,0,0,0,0,.1,0h.1c0,0,0,0,.1,0,0-.1,0-.1.1,0,0,.1,0,.2,0,.2h0c0,.1,0,.1.2,0l.4-.2v.3c-.2.1-.2.2-.1.2,0,0,.1,0,.2-.2,0,0,0,0,0,0h0c0,.1,0,.2,0,.2,0,0,0,.2.4.3l.2.2c0,0,.2-.2.3-.3,0,0,.2-.2.2-.2,0,0,0-.1.1-.2,0,0,0,0,.1,0-.1.3,0,.4.3,0,0-.1,0-.3.3-.4l.8-1.8c0-.2.2-.5.4-.9.2-.4.5-.9.7-1.5.3-.5.5-1,.8-1.5.3-.5.5-.8.6-1,.9-1.3,1.7-2.5,2.5-3.7.8-1.1,1.7-2.2,2.7-3,.2,0,.3-.2.5-.4.2-.1.4-.3.5-.4.2-.1.4-.3.6-.5.3.3.5.7.8,1.2.3.4.4,1,.5,1.5,0,0,0,0,0,0,0-.1,0-.1,0,0,0,.4.2.3.4,0v-.3c0,0,0,.2,0,.2,0,.1,0,.2.3.3,0,.2.2.2.5,0ZM62.4,20.1s0,0,0,0,0,0,0,0c0,0,0,0,0,0h0ZM62.5,20.9c0,0,.1.1.1.2,0,0,0,0-.2,0h-.1c0,0,0-.1.2-.1ZM47.5,25.5c0,.2-.1.2-.1.1h0c0-.2,0-.2.1-.3,0,0,0-.1,0-.2,0,0,0,0,0,0,0,.1,0,.2,0,.3ZM50.8,18.3v-.2h.2c0,.2-.2.2-.2.2,0,0,0,0,0,0ZM50.8,18.5c0,0,.1,0,0,0h-.2c0,.1,0,0,0,0,0,0,.1-.1.2-.1ZM48.1,23.1c0,.2-.1.2-.1.1,0,0,0-.1,0-.2,0-.1.1-.2.2-.2v.3ZM48.5,22.3c-.3.4-.4.5-.4.5s.1-.2.4-.5ZM48.4,23.7s0,0,0,.1c0,0,0,.1,0,.2v.3c-.1,0-.1.1-.1.1,0,0,0-.1,0-.4.1-.3.2-.5.3-.5,0,0,0,0,0,.1ZM48.7,23.1c0,0-.1.2-.2.3h-.1c0,.1.1,0,.2-.3,0,0,0-.2,0-.2s0,0,0-.1c0,0,0,0,0-.1,0,0,0,.1,0,.5ZM49.7,20.3s0,0,0,.1h0c0,0-.1,0-.1,0l-.4,1v-.2l-.3.6-.2.4c0-.1,0-.2,0-.4s.1-.2.1-.2,0-.1.1-.2c0-.1.2-.2.3-.4h0c0-.2,0-.2,0-.2s0,0,0,.2c.1-.2.2-.3.2-.5,0-.2,0-.3,0-.4.2,0,.3-.2.3-.4,0-.2,0-.4,0-.6h0c0,.2-.1.6-.3,1.2,0,0,0-.1.1-.2.2,0,.2,0,0,0ZM49.8,20c0,0,0,0,0-.2l.4-.8.4-.3h0c-.1.2-.3.4-.5.7-.2.3-.3.5-.3.5,0,0,0,0,0,0ZM52.7,24.6s0,0,0,0,0,0,0,0c0,0,0,0,0,.1s0,0,0,0v-.2c.1-.1.2-.2.3-.2h0ZM53.3,20.4c0,0-.1,0-.1,0,0,0,0,0,0,0,0-.1.2-.4,1-.8l.6-.5c.2,0,.3-.1.3,0s-.1.2-.4.4c-.3.2-.5.4-.6.4l-.3.3c-.2.2-.3.3-.4.3ZM56.6,22.2c-.2.2-.6.5-1,1.1s-.8,1-.9,1.3l-.5.6c0,.1,0,.1-.3,0,0,0,.2-.2.5-.6.3-.4.6-.8.9-1.2.4-.4.7-.8,1-1.1.3-.3.5-.5.5-.4v.3ZM57.6,17.4h0c0,0-.1,0-.1,0h0c0-.1.2-.1.2-.1h0ZM59.4,18.6h0c0-.2,0-.2,0-.1h0Z"/>
  <polygon class="st0" points="62.6 22.7 62.6 22.8 62.7 22.8 62.6 22.6 62.6 22.7"/>
  <path class="st0" d="M50.1,18.5s0,0,0,0c0,0,0,0,0-.1h0s-.1,0-.1,0c0,0,0,0,0,0Z"/>
  <polygon class="st0" points="50.2 18.4 50.2 18.4 50.2 18.4 50.2 18.4"/>
  <path class="st0" d="M67.6,10.6h0s0,0,.1,0h0Z"/>
  <path class="st0" d="M69.1,21.7c-.1,0-.1,0,0,0,0,0,0,0,0,0Z"/>
  <path class="st0" d="M100,25.5l.2-.2c0,0,0-.2.1-.4,0,0,.1-.2.2-.4.1-.2.2-.4.4-.7s.2-.5.4-.7c.1-.2.2-.4.2-.5,0,0,0,0,0,0s0,0,0-.1c.3-.5.4-1.1.4-1.9s0-.6,0-.7c0-.1-.1-.2-.2-.3l-.3-.5c0,0,0-.1-.1,0h0c0-.2-.3-.5-.6-1-.3-.5-.8-1.1-1.6-1.7-.1,0-.2.3-.3.6,0,.3-.1.6-.1.8s0,.4.1.3c0,0,.1,0,.1.2,0,.6-.3,1.3-.7,2.1-.4.8-1,1.7-1.6,2.6-.7.9-1.4,1.9-2.3,2.8-.8.9-1.7,1.8-2.6,2.5-.9.8-1.8,1.4-2.6,1.9-.8.5-1.6.7-2.2.7s-.1-.3.2-.9c.3-.6.7-1.3,1.1-2,.4-.7,1.1-1.7,1.8-2.9.2-.2.3-.4.3-.4s0-.1-.1-.2v-.2c0,0-.1.2-.1.2,0,.1,0,.2-.1.2,0,0,0-.1,0-.3,0-.2,0-.3-.2-.3,0,0-.1.2-.1.2,0,.1,0,.2-.2,0,0,0,0,0,0-.3.4-.3.5-.4.2-.3,0,0-.1,0-.2-.3v-.5c-.2,0-.2,0-.2-.1h0c0,0,0,0,0,0,0,0,0,.1-.2.1s-.1,0-.1-.1c0,0,0,0,0,0s0,0,0,0c0,0,0-.1,0-.3,0-.2-.1-.3-.2-.4,0,0-.1,0-.1-.1,0,0,0,0,0-.1-.2,0-.2,0-.1-.1h0s-.1,0-.2-.1h-.5c-.2-.1-.3-.1-.3,0s-.1.4-.4.5c0,0-.2.2-.3.2-.1,0-.2.1-.2.2-.3.2-.4.4-.5.4s0,.1-.1.1h0c0,.1-.2.3-.2.3,0,0-.3.2-.7.6-.5.4-.9.8-1.3,1.3-.2.1-.3.3-.4.4-.1.1-.2.2-.2.3-1,1-1.8,1.8-2.4,2.3-.5.5-.9.8-1.1,1l-1,.8c-.1,0-.2.2-.3.2,0,0-.2.1-.3.2,0,0-.2.1-.3.1,0-.1,0-.3.2-.5.1-.2.3-.5.5-.9s.5-1,.9-1.7c1.2-2.2,1.8-3.5,1.8-3.8s0-.2.1-.2l1.3-2.1c0-.2.2-.4.2-.6,0-.2.1-.4.2-.6.1-.5.3-.9.5-1.3.2-.4.3-.6.2-.5,0,0-.1-.2,0-.3,0,0,0,0-.2,0-.2,0-.3,0-.5.2-.2,0-.3.1-.5.2-.1,0-.2,0-.2,0,0,0-.2-.2-.4-.4-.2-.2-.3-.3-.4-.4,0,0-.3.3-.7.7s-.7.8-1,1.2c.2-.3.3-.6.5-.9s.2-.6.4-.9c.1-.3.2-.5.2-.7,0-.2,0-.2,0-.2-.3.1-.8.6-1.4,1.4-.6.8-1.2,1.6-1.9,2.6-.7,1-1.3,1.9-1.9,2.9-.6,1-1.1,1.7-1.4,2.2l-.4.6c0,0-.1.2-.2.4-.3.2-.5.3-.5.3s-.1,0-.2,0l-.4.2c-.3.1-.8.4-1.5.9-.8.5-1.6.9-2.4,1.3l-.8.4v-.3s0,0,0-.1c0,0,0,0,0,0,0,0,0,0,.1-.2,0-.1,0-.3.2-.5l1.4-3.8c0,0,.2-.2.2-.3,0-.1.1-.2.2-.3,0,0,0-.2.1-.3,0,0,0-.2.2-.3v-.3c.1,0,.1,0,.1,0,.2,0,.2-.1.1-.3l.4-.6c0-.1,0-.3.2-.4,0-.1.1-.3.2-.4.9-1.8,1.6-3.2,2.3-4.2.7-1.1,1.3-2,1.9-2.9,0,0,.2-.1.6-.2.4,0,.8-.2,1.3-.2.5,0,1-.1,1.4-.2s.8,0,1.1,0c.5,0,.8,0,1-.2,0,0,0,0,0,0,0-.3.2-.7.3-1,0-.3.2-.5.2-.7,0-.2.1-.3.2-.4,0,0,0-.2,0-.5,0-.1-.2-.2-.4-.3s-.5-.1-.8-.2c-.3,0-.6,0-.8-.1-.3,0-.5,0-.6,0h-.8c0,0,.3-.9.3-.9.1-.2.3-.6.5-1,.2-.5.4-1,.6-1.4.4-.8.6-1.3.6-1.5,0-.2,0-.3,0-.4-.2,0-.3,0-.4,0-.1,0-.2,0-.1,0,0-.5,0-.8,0-.7,0,0,0,0,0,0s0,0,0,0c0,0,0-.1-.1-.1s-.1,0-.1-.1c0,0,0-.1,0-.2,0,0-.2,0-.3,0-.3.3-.5.4-.5.4,0,0,0,0,0-.2,0,0,0-.2,0-.2,0,0,0-.2.1-.2,0-.2.1-.3,0-.3,0,0,0,0-.1,0,0,0-.2.1-.4,0-.2,0-.2-.2-.1-.3,0-.3,0-.3-.2,0l-.2.2v-.3c.1-.1.1-.2,0-.2,0,0-.2,0-.3-.1,0,0-.2,0-.5.2-.2.2-.5.5-.8,1-.4.5-.7,1.1-1.1,1.7-.4.6-.8,1.3-1.3,2-.4.7-.8,1.2-1.2,1.7-.5.7-.8,1-1,1-.6,0-1.2.1-1.8.2-.6,0-1.2,0-1.6,0,.2,0,.4,0,.6,0,.2,0,.4,0,.6,0h-4.1c-.6,0-1,0-1.1,0s-.2,0-.3.1c0,0,0,.1,0,.2s0,0,.2,0c.1,0,.2,0,0,.1,0,0,0,0,.1,0,0,0,.2-.1.3,0,0,0,0,.2,0,.3s0,.3,0,.5c0-.3.2-.4.4-.4,0,0,.2,0,.2.1,0,0,.1,0,.2,0s.1,0,.2,0c0,0,0,0,.1,0,.1,0,.2,0,.2.1,0,0,.2,0,.4,0s.5,0,.9.1c.5,0,.8.2.9.3.1,0,0,.1,0,0-1.6,0-2.7-.2-3.4-.3,0,0,0,0,0,0,0,0,0,0,0,0-.2,0-.1,0,0,.2.2,0,.2.1.1.1,0,0,0,0,0,0,0,.2.2.4.5.5s.6.3,1,.4l2.1.3c.2,0,.4,0,.4,0h.2c.3,0,.4.1.5.1s0,0,.1,0l-3.8,6.4c-.2.3-.5.8-.8,1.4s-.6,1.2-.9,1.8c-.3.6-.6,1.2-.9,1.8-.3.6-.5,1-.7,1.4-.6,1.4-1,2.3-1.1,2.7s-.2.6-.2.6c0,.2,0,.4,0,.5s0,.3,0,.7c0,.5,0,.8.1,1s0,.3,0,.4c0,.1,0,.2,0,.2,0,0,0,.1,0,.3,0,0,.2.1.4.4.2.4.4.5.5.5s.1,0,.1.2c0,.1,0,.3.4.5.3.2.5.4.7.4s.3,0,.3.1c0,0,.2.1.2.1.1,0,.3,0,.5.3,0,.2.3.2.5,0,0,0,.1-.1.1,0s0,0,0,.1c0,0,0,0,0,0,0,0,.2,0,.2,0,0,0,.1,0,0,0,0,0,0-.1.1-.1.4,0,1.7-.8,3.9-2.3.9-.6,1.8-1.2,2.5-1.7,0,.5,0,1,0,1.2,0,.2.1.3.2.5,0,.2.2.3.3.3.1.1.2.3.2.4,0,.1.1.3.3.5s.3.4.5.5c.2.2.5.4.8.7.3.2.5.4.7.5l.7.4c.2.2.3.3.5.3.2,0,.4.1.6.1.2,0,.3,0,.3-.1h.2c.2,0,.3,0,.3-.1,0-.1,0-.2.3-.3.3-.1.5-.3.7-.4,0,0,.1-.1.3-.1s.1,0,.1-.1,0-.1.1-.1.2,0,.3-.1c0,0,0,0,0,0,0,0-.1,0,0,0,0,0,0-.1.2-.1s.1,0,.2-.1c0,0,0-.1.1-.1s.1,0,.1-.1h.3c.2-.1.3-.2.3-.3s0-.2.2-.3c0,0,.2-.2.4-.4s.4-.4.7-.7l1.8-1.7c0,.4-.1.8-.2,1.3,0,.4,0,.7.2,1,0,0,.3.3.6.6.4.4.7.6.9.8l.4.3c.2,0,.3.2.5.3,0,0,.3.1.5.2s.5,0,.6,0c.1,0,.1,0,0,.1-.1,0-.2,0-.2,0,0,0,0,.1.1.1h.3c.2,0,.3,0,.5,0,.3,0,.5,0,.6,0,.1,0,.3,0,.5-.2.2-.1.4-.2.4-.3,0,0,0,0,0,0l.2-.2s.1,0,.2-.1c0,0,0,0,.1,0s.2,0,.3-.1l.9-.7c.7-.5,1.6-1.1,2.6-2,1-.8,1.9-1.8,2.8-2.8.2-.2.3-.3.4-.4,0,0-.4.4-.8,1-.6.7-1.3,1.5-2.1,2.2-.8.7-1.6,1.3-2.4,1.9l-.9.6s0,0-.1,0h-.2c-.2.3-.2.3.2.1.2,0,.3-.1.3-.2s0,0,0,0,0,0,.1,0c.2,0,.5-.2,1-.6.5-.4,1.1-.8,1.7-1.3.6-.5,1.2-1,1.7-1.5.5-.6,1-1.1,1.3-1.5h.3c.5-.7.8-1.1.9-1.3.2-.2.2-.3.2-.4,0,0,0,0,0,0,0,0,.2,0,.3-.2,0,0,0,0,0-.1s0,0,0,0c.3-.4.5-.8.7-1s.3-.5.5-.7c.2-.2.2-.4.3-.5l.3-.5c.1-.1.2-.3.2-.4h.1ZM101.2,19.4c0,0,.1-.1.2-.1s0,0,0,.1c0,0-.2.1-.2.1,0,0,0,0,0-.1ZM89.1,25.9c0-.1,0-.2.2-.3v.2s0,0,0,.1c0,0,0,0,0,0,0,0,0,0,0,.1,0,0,0,0,0-.2ZM73.8,14.8s0,0,0-.1c0,0,0,0,0,.1,0,0,0,.1,0,.2,0,0,0,0,0,0,0,0,0,0,0-.1,0,0,0-.1.1-.2ZM64.8,11.2c-.2,0-.2,0-.1,0,0,0,.2,0,.2,0,0,0,.1,0,.2,0,0,0-.1,0-.3,0ZM61.5,30.9h0c0-.2,0-.3,0-.3s0,0,0,0c0,0,0,.2,0,.2ZM61.8,31.3s0,0-.1-.1c0,0,0,0,.1,0v.2ZM65,29.8s0,0,0,.1,0,0,0,0,0,0,0,0,0-.1.2-.2c0,0,0,0,0,0ZM68.6,13.9h-.3c0,0,.3,0,.3,0h0ZM69.3,11.9c-.3,0-.8,0-1.5,0-.2,0-.4,0-.5,0-.2,0-.4,0-.5,0-.3,0-.4,0-.3,0,0,0,0,0,.1,0h3.2s0,0,.1,0h0c0,0-.3.1-.6.1ZM66.1,20.6h-.1c0,0,0,0,0,.1,0,0,0,0,.1-.2,0,0,.1,0,0,0ZM66.8,34.5s0,0-.1,0,0,0,0,0c0,0-.1,0-.2,0h0,0c0,0,0-.1,0-.1s0,0,.1,0c.2,0,.3-.1.3,0s0,0,0,0ZM66.8,31.6c0,0-.1,0,0,0,0,0,.1,0,.2,0h-.1ZM67.4,25h0c0,.2-.1.2-.1.2s0-.2.2-.4c.3-.6.6-1,.6-1.1,0-.2.1-.2.1-.3h0c0-.1.1-.1,0-.2,0,0-.1,0-.2,0h0c.1,0,.2-.1.2-.3,0,0,.2-.2.3-.4.1-.2.3-.5.6-1.1l.5-1.2c.1-.2.2-.3.2-.3s0,0,0,.1c0,0,.1,0,.1-.2,0,0,0-.1,0-.2,0,0,0,0,0-.1v.2c.2,0,.2-.1.1-.3,0-.2.2-.3.2-.5,0-.1.3-.5.6-1.1,0,0,0-.2.1-.3,0,0,.1-.2.2-.3,0,0,0-.2.1-.3,0-.2.2-.3.3-.5,0-.1.2-.3.3-.4,0-.2.1-.2.1-.3,0,0,0-.1,0-.2,0,0,0,0,0,0h0c0,.1,0,.2,0,.2,0,.1,0,.2-.1.3,0,0-.2.3-.4.6-.2.3-.3.6-.3.7s0,0,.2-.1c0-.3.1-.4.1-.3s0,.3-.2.7l-1.6,2.9c-.3.4-.4.6-.3.6h0c0,.1,0,.2-.1.2,0,0,0,0,0,0s0,0,0,0c0,.2-.1.3-.2.3s0,0,0,.2c0,0,0,0-.1,0h-.3c0,0,0,.1,0,.1s0,0,0,0c0,0,0,.2,0,.2s0,0,0,0c0,0-.1,0-.1,0s0,.1-.1.2v.2c0,0,0,.1,0,0s0,0,0,0h0c0,.2,0,.2-.3.2,0-.1-.1-.1-.1,0v.2c0,0,0,.3-.3.8,0,.1-.2.2-.2.4,0,.1-.1.2-.2.3,0,.1-.1.2-.1.3,0,0,0,.1,0,.2ZM71.4,31.2h.1c0,.3-.1.3-.1.1h0ZM71,29.4s0,0,0,0c0,0,0,0-.2,0,0,0,.1-.1.1,0ZM70.8,29.2s0,0,0,0,0,0,0,0h0c0-.1,0-.2,0-.2.1,0,.2,0,.2.1ZM70.5,29.6s0,0,.1,0,0,0,0,0c0,0,0,0,0,.1,0,0,0,0-.1,0,0,0,0,0-.1,0s0,0,0,0c0,0,0,0,.1,0ZM67.9,31c0,0-.1,0,0,0,0,0,0,0,0,0s0,0,.1,0c0,0,0,0-.1,0ZM68.8,30.5s0,0-.1,0,0,0-.1,0c-.2.1-.3.1-.3,0s0-.1.3-.2c.2,0,.3-.1.4,0,0,0,0,0,0,0ZM68.9,29.9c0,0-.2.1-.2.1,0,0-.1,0-.2,0s0,0-.1,0c0,0,0-.1.3-.2.2,0,.3-.1.3-.1h0ZM69.2,29.8c0,0,0,0,0,0h.1s0,0-.1,0ZM69.5,29.7s0,0,.1-.1c.2,0,.3-.1.4-.1s.1,0,0,0,0,0-.2,0c-.2,0-.3.1-.4.1ZM70.1,32.5c0,0-.2.1-.2.1s0,0,.1-.2c0,0,.1,0,0,0ZM70.1,29.9c-.1,0-.1,0,0-.1h0c0,0,0,.1-.1.1ZM71.8,31.1c0,0-.1.1,0,.1s0,0,0,0c0,0,0,.1,0,.2-.2.2-.5.3-.7.5-.3.1-.4.3-.5.4l-.3.2.3-.3c0,0,0-.2.2-.3.2,0,.3-.2.4-.3.3-.2.5-.3.5-.4,0,0,0-.1,0-.3h.1s0,0,.1,0c0,0,0,.2,0,.3ZM72.3,27.8s0,0-.1,0c0,0,0,0,0-.2,0,0,.1,0,.2,0,0,0,0,0,0,.1ZM72.8,27.5s0,0-.1,0c-.1,0-.2,0,0-.1.2-.2.3-.2.2,0ZM73.2,27.2s0,0-.1.2c0,0-.1,0-.2-.1,0,0-.1-.1-.3,0,0,0-.3.2-.6.3-.3.1-.5.2-.6.2,0,0,.1-.1.3-.2.2,0,.4-.1.5-.3s.1,0,.2,0c0,0,0,0,0,0,0,0,0,0,0,0s0,0,0,0h0c0,0,.1,0,.2,0,.2,0,.3,0,.3,0,0,0,0,0,.1,0h0ZM73.4,27h0c0,0-.1,0-.1,0h.1c0-.2,0-.2.1-.2,0,.1,0,.2,0,.3ZM99.9,22.6c0,0,.2-.1.2-.1s0,0,0,.2c0,0,0,.1-.1.1,0,0,0,0,0-.2ZM93.2,31.4h-.1c0,0-.1,0,0,0,0,0,.2-.1.2,0h0ZM94.1,30.5c-.1.2-.3.3-.4.4-.2.1-.3.2-.4.3-.2,0,0-.2.4-.6.1,0,.3-.3.6-.5s.5-.5.7-.8h.3c0,0-.7.7-.7.7-.2.2-.3.4-.5.5ZM97.8,26.4h0c0,0-.1.3-.4.6-.2.3-.5.7-.8,1.1s-.6.7-.9,1.1c-.3.3-.4.5-.5.5l.3-.5c.2-.2.3-.3.3-.4s.1-.2.4-.6c.3-.4.5-.5.5-.5s0,0,0-.1h0c0,0,.1-.2.1-.2h.1c0-.1,0-.3.2-.5.2-.3.4-.4.5-.5,0,0,0,0,0-.1,0,0,0-.1,0-.1,0,0,.1-.1,0-.1,0,0,0-.1,0,0,0,0,.1,0,.1,0h0c0-.1,0-.1,0-.2,0,0,0,0,0,0,0,0,0-.1,0-.2.2-.3.3-.4.3-.5s.1-.2.4-.6c0-.1.2-.2.2-.4,0-.1,0-.2,0-.2s0-.1.1-.2c0,0,.1-.1.1-.2,0-.1,0-.2.2-.3s.1,0,.1,0c0,.1,0,.2-.1.2s0,0,0,0,0,0,0,0c0,0,0,0,.1,0,0,0,0,0,0,0h-.3c0,.2-.1.3-.2.4,0,.2-.2.4-.4.7-.2.3-.3.5-.5.8-.2.3-.3.5-.4.7,0,.2-.2.3-.2.3ZM99,25.7c-.2.4-.4.6-.6.9-.2.2-.3.4-.3.4,0,0,0-.1.2-.4.2-.2.5-.7.9-1.4s.7-1.3,1-1.9c.1-.3.2-.5.4-.7.1-.2.1-.2.1-.1,0,.3-.3.8-.6,1.4-.3.6-.7,1.2-1.1,1.8Z"/>
  <path class="st0" d="M88.9,36.5s0,0,0,0c0,0,0,0,.2,0,.2,0,.3-.1.3-.2s0,0-.3,0h-.2Z"/>
  <path class="st0" d="M120.1,23.7c0-.4,0-.9,0-1.4-.1-.6-.2-1-.4-1.4h0c-.1-.4-.3-.7-.5-.8-.2-.2-.4-.3-.5-.4l-.8-.8c0-.1-.2-.3-.4-.4-.4-.3-.6-.5-.8-.7h.1c-.5-.4-1-.7-1.6-1-.6-.3-1.2-.6-1.7-.7-.3,0-.6-.1-.7-.1s-.3,0-.5.2h0c-1.4.3-2.8.8-4.1,1.5-1.3.7-2.5,1.5-3.5,2.5-1,1-1.9,2-2.7,3.2-.8,1.2-1.4,2.4-1.8,3.6l-.2.9h0c0,.3,0,.5-.1.7,0,.1,0,.3,0,.4s0,.3-.2.4,0,.3,0,.7c0,.4,0,.8.2,1.1v.3c0,0,.1.2.2.3,0,.1,0,.2,0,.3.2.4.4.8.8,1.2s.8.7,1.2,1.1c.4.3.9.6,1.3.8.4.2.9.4,1.3.6l.3.3c.2.1.4.2.5.2s.3,0,.7.1c0,0,0,0,.2,0,0,0,.1,0,.2,0,0,0,.2,0,.3,0,0,0,.3,0,.8,0s.8-.1,1.1-.2h.5c.1-.2.3-.2.5-.2,0,0,.2-.1.4-.2.2,0,.3-.1.4-.1.2,0,.6-.2,1.3-.6.7-.4,1.3-.8,1.9-1.2.5-.3.9-.7,1.4-1.1.5-.4.9-.8,1.2-1.1l.3-.3h0v-.2c1-1.1,1.8-2.3,2.3-3.4.5-1.2.9-2.4,1.1-3.7ZM105.5,22.9l2.4-2.9c0,0,0,0,.1,0l.7-.6.7-.7c0,.1-.2.3-.4.5-.2.2-.4.4-.7.7-.8.9-1.4,1.5-1.6,1.8-.3.3-.3.4-.2.3l-.3.6c-.4.4-.6.5-.7.6-.1,0-.1,0-.1,0ZM103,26.8c0,0,0,0,0-.3.1-.2.3-.5.6-1,.3-.4.7-.9,1.1-1.4l.4-.5-1.4,2.3c-.4.5-.6.7-.7.8ZM110.2,30.8c-.2.2-.5.3-.7.5-.3.1-.5.2-.6.3l-1,.5h-.5c0,.1.1,0,.5-.2.4-.2.8-.5,1.3-.7l1.3-.6c.3-.2.4-.3.5-.3-.4.3-.7.5-.9.6ZM115.7,22.7c-.3.7-.7,1.5-1.4,2.5-.6.9-1.6,2-2.8,3.1l-.6.6c-.2,0-.4.2-.5.3-.1.1-.2.2-.3.3,0,.1-.2.3-.5.4-.2.1-.5.3-.7.4h0c0,0-.6.3-.6.3h0-.2c0,0-1.6.8-1.6.8,0,0-.2,0-.3.1,0,0-.2,0-.3,0-.5.4-.9.4-1.1.1s-.3-.9,0-1.9c.2-1,.5-1.7.7-2.4.3-.6.7-1.4,1.3-2.4.5-.9,1.1-1.7,1.8-2.5.7-.8,1.3-1.5,2.1-2,.7-.5,1.5-.9,2.3-1.1s1.7-.1,2.5.2c.1.4.2.8.3,1.4,0,.5,0,1.2-.3,1.9Z"/>
  <path class="st0" d="M125.3,18.5s0,0,0,0c0,0,0,0,0-.1h0s-.1,0-.1,0c0,0,0,0,0,0Z"/>
  <polygon class="st0" points="125.4 18.4 125.4 18.4 125.4 18.4 125.4 18.4"/>
  <path class="st0" d="M136.6,24c.3-.2.4-.4.3-.5v-.2l-.2-.3h0c0-.1,0-.1,0-.2,0,0,0,0,0,0h0c0,0,0-.2-.2-.3,0-.3,0-.5,0-.5,0,0,0,0,0,.1s0,.2,0,.2,0,0,0-.2c.2.3.2.5,0,.5h.2s0,0,0,.1v.3c0,0,.1.2.3.4l.3.2v-.5c0-.2,0-.4,0-.6,0,0,.1,0,0,0s0,0,0,0l-.3-.8v-.5c-.1,0,0,0,0,0,.1,0,.2.1.2.2h0c0,0,.3,0,.3,0,0,0,0,.1,0,.3,0,.2-.1.3,0,.3s.1,0,.3.1c0,0,0,.2,0,.2,0,0,0,.1.1.2.2.2.3.2.3.1s0-.3,0-.5c0-.2-.2-.5-.3-.9-.1-.3-.2-.6-.3-.9.2.2.3.4.5.6.2.3.2.3.2.3,0-.3-.1-.7-.4-1.3-.3-.5-.6-1.1-1-1.6-.4-.5-.8-1-1.3-1.4-.4-.4-.9-.7-1.3-.8-.1,0-.3,0-.6-.1-.3,0-.5,0-.7,0h-.5c-.2.1-.3.2-.2.3,0,0-.1,0-.2,0s-.1,0-.2,0c0,0-.3,0-.7.2-.3.2-.6.3-.6.4s-.2,0-.2,0c0,0,0,0-.1,0h-.1c0,.2-.2.3-.3.3-.3.1-.5.3-.7.6,0,0-.2.2-.3.3,0,0-.2.1-.2.2,0,0,0,.1,0,0,0,0,.1,0,.1,0s0,0-.1.2c-.2,0-.3.1-.3.1h.1c0-.2,0-.2,0-.3s0,0,0,0c-.2.2-.5.5-.7.9-.3.4-.6.8-.9,1.3-.3.5-.6,1-.9,1.5-.3.5-.6,1-.8,1.4.3-.4.5-.8.8-1.4.3-.5.5-1,.8-1.5.2-.5.5-1.1.7-1.8-.2,0-.2,0-.1-.2,0,0,0-.1-.3-.2s-.3-.1-.3-.2c-.2,0-.2,0-.1.2,0,0,0,.2-.1.4,0,.1-.1.2-.2,0,0,0,0,0,0,0,0,0,0,.1,0,.2,0,0,0,.2-.2.2,0,0,0,0,0,0,0,0,0,0,0,0s0,0,.1.2h0c0,0-.1.1-.2.3v-.3c.2-.5.3-.8.4-.8,0,0,0,0,.1,0,0,0,0,0,.1,0,0,0,0-.1,0-.1s0,0,0-.2c0-.2,0-.3,0-.4,0,0-.1,0-.1,0-.1.2-.2.2-.3,0,.2,0,.2-.1,0-.1s-.1,0-.2.1c0,0,0,0-.1,0h0c0,0,0,0-.1,0,0,0,0,0,0,0s0,0-.1-.2h0c0,0,0,0,0,0,0,0,0,.2,0,.3h-.1c0,0,.1.1.1.1-.1,0-.3.3-.5.5,0,0,.1,0,.3,0-.2,0-.3.1-.4.1h0s0,0,.1-.2h0s0,0,0,0c0,0,0,0,0,0h0c0,0-.2.4-.2.4h0c0,.2-.1.6-.3,1.2,0,0,0-.1.1-.2.2,0,.2,0,0,0,0,0,0,0,0,.1h0c0,0-.1,0-.1,0l-.4,1v-.2l-.4.6-.2.4c0-.1,0-.2,0-.4s0-.2,0-.2,0-.1.1-.2c0-.1.2-.2.3-.4h0c0-.2,0-.2,0-.2,0,0,0,0,0,.2.1-.2.2-.3.2-.5,0-.2,0-.3,0-.4.2,0,.3-.2.3-.4,0-.2,0-.4,0-.6-.5,1-1,2.1-1.6,3.3-.5,1.2-1,2.2-1.5,3,0,.1,0,.2,0,.3,0,0,0,0,0,0h0c0,.2-.1.3-.3.4s-.2.2-.2.4l-.3.5s0,0,0,0c0,0,0,0,0,.1,0,0,0,.1,0,.3,0,.1-.1.2-.2.1,0,0,0,0,0,0s0,0,0,0,0,0,0,0,0,0,0,0,0,0-.1,0c0,0,0,.1-.1.1,0,0,0,0,0,0s0,0,.1,0c0,0,0,.1,0,.1,0,0,0,0-.1,0,0,0,0,.2-.2.4-.2.2-.3.5-.4.7-.1.3-.2.4-.3.4h0c-.2.5-.3.8-.5,1.1-.1.3-.2.5-.3.7,0,.2-.1.4-.1.4-.1.6-.1,1.2,0,1.8,0,.3,0,.4.2.5,0,0,0,0,0-.2,0,0,0-.1,0-.2,0,0,0,0,0,.1,0,0,.1.1.2.2,0,0,0,0,.2.1,0,0,.1,0,0,0,0,0,0,0,0,0,0,.1.1.1.2,0,0-.2,0-.3.3-.3s0,0,0,.2-.1.3,0,.6c0,0,0,.1,0,0,.1,0,.2-.1.3-.2,0,0,0,.1,0,.2,0,.2,0,.3-.2.3s-.2,0-.1.1c.3.1.5.2.7.2,0,0,0,0,0,0,0,0,0,0,0,.2,0,.2,0,.3.3.3,0,0,0,0,.1,0h.1c0,0,0,0,.1,0,0-.1,0-.1.1,0,0,.1,0,.2,0,.2h0c0,.1,0,.1.2,0l.4-.2v.3c-.2.1-.2.2-.1.2,0,0,.1,0,.2-.2,0,0,0,0,0,0h0c0,.2,0,.2,0,.2,0,0,0,.2.4.3l.2.2c0,0,.2-.2.3-.3,0,0,.2-.2.2-.2,0,0,0-.1.1-.2,0,0,0,0,.1,0-.1.3,0,.4.3,0,0-.1,0-.3.3-.4l.8-1.8c0-.2.2-.5.4-.9.2-.5.4-.9.7-1.5.3-.5.5-1,.8-1.5.3-.5.5-.8.6-1,.9-1.3,1.7-2.5,2.5-3.7.8-1.1,1.7-2.2,2.7-3,.2,0,.3-.2.5-.4.2-.1.4-.3.5-.4s.4-.3.6-.5c.3.4.5.7.8,1.2.3.4.4.9.5,1.5,0,0,0,0,0,0,0-.1,0-.1,0,0,0,.3.2.3.4,0v-.3c0,0,0,.2,0,.2,0,.1,0,.2.3.3,0,.2.2.1.5,0ZM137.6,20.1s0,0,0,0,0,0,0,0c0,0,0,0,0,0h0ZM137.7,20.9c0,0,.1.1.1.2,0,0,0,0-.2,0h-.1c0,0,0-.1.2-.1ZM122.7,25.5c0,.2-.1.2-.1.1h0c0-.2,0-.2.1-.3,0,0,0-.1,0-.2,0,0,0,0,0,0,0,.1,0,.2,0,.3ZM123.7,22.3c-.3.4-.4.5-.4.5s.1-.2.4-.5ZM123.3,23.1c0,.2-.1.2-.1.1,0,0,0-.1,0-.2,0-.1.1-.2.2-.2v.3ZM123.6,23.7s0,0,0,.1c0,0,0,.1,0,.2v.3c-.1,0-.1.1-.1.1,0,0,0-.1,0-.4.1-.3.2-.5.3-.5,0,0,0,0,0,.1ZM123.9,23.1c0,0-.1.2-.2.3h-.1c0,.1.1,0,.2-.3,0,0,0-.2,0-.2s0,0,0-.1c0,0,0,0,0-.1,0,0,0,.1,0,.5ZM126.1,18.3v-.2h.2c0,.2-.2.2-.2.2s0,0,0,0ZM126.1,18.5c0,0,.1,0,0,0h-.2c0,.1,0,0,0,0,0,0,.2-.1.2-.1ZM125.4,19.5c-.2.3-.3.5-.3.5,0,0,0,0,0,0s0,0,0-.2l.4-.8.4-.3h0c-.1.2-.3.4-.5.7ZM127.9,24.6s0,0,0,0,0,0,0,0c0,0,0,0,0,.1s0,0,0,0v-.2c.1-.1.2-.2.3-.2h0ZM128.5,20.4c0,0-.1,0-.1,0,0,0,0,0,0,0,0-.1.2-.4,1-.8l.6-.5c.2,0,.3-.1.3,0s-.2.2-.5.4-.5.4-.6.4l-.3.3c-.2.2-.3.3-.4.3ZM131.8,22.2c-.2.2-.6.5-1,1.1-.5.6-.8,1-.9,1.3l-.5.6c0,.1,0,.1-.3,0,0,0,.2-.2.5-.6.3-.4.6-.8.9-1.2.3-.4.7-.8,1-1.1s.5-.5.5-.4v.3ZM132.8,17.4h0c0,0-.1,0-.1,0h0c0-.1.2-.1.2-.1h0ZM134.6,18.6h0c0-.2,0-.2,0-.1h0Z"/>
  <polygon class="st0" points="137.9 22.7 137.9 22.8 137.9 22.8 137.9 22.6 137.9 22.7"/>
  <path class="st0" d="M173.5,19.1s0,0,0,0,0,0,0,0,0,0,0,0c0,0,0-.2,0-.4,0-.5-.3-.9-.7-1.4-.4-.4-.7-.7-.9-.9l-1.5-1.2c-.5-.3-1.1-.4-1.9-.4-.8,0-1.6.2-2.5.5-.9.3-1.8.6-2.7.9-.9.4-1.7.7-2.4,1.1-.7.3-1.4.8-2,1.2-.6.5-1.1,1-1.4,1.5-.1.2-.3.5-.5.8-.2.3-.3.7-.4,1.2,0,.4,0,.9,0,1.5.1.5.5,1.1,1,1.6,1.8,1.9,3.1,3.3,4,4.2.9.9,1.3,1.6,1.4,2.2,0,.3-.2.6-.7.8-.5.2-1.1.3-1.9.3-.7,0-1.5,0-2.3,0s-1.5-.3-2.1-.5h0s0,0,0-.1l2-1.7.5-.5v-.4c0,0-.5-.3-.5-.3,0,0,0,0,0-.3,0-.2,0-.3-.1-.3h0c0,0,0,.2,0,.2v.6c-.2-.2-.2-.4-.2-.6s0-.3-.1-.3l-.4-.7-3.6,1.9c-.2.1-.4.2-.5.4,0,0-.1-.2-.2-.3-.5-.8-1.1-1.6-1.8-2.5-.7-.9-1.2-1.7-1.7-2.4-.5-.7-.7-1.1-.7-1.1v-.3c.1,0,0,0,0,0,0,0,0,0,.1-.2,0,0,0,0,0,0s0,0,0,0c0,0,0,0,0,0h.2c0-.2,0-.2,0-.2s0,0-.1,0h0c0,0,0,0,0,0,.2-.1.3-.2.3-.3s0,0,0-.1c0,0,0,0,0,0h0c0,0,.1,0,.2,0,0,0,.1-.1.2-.2,0,0,0-.1.2-.2,0,0,.2-.2.2-.3,0,0,.1-.1.1-.2h0s0,0,0,0c0,0,.1,0,.2,0,0,0,.1,0,.2-.1,0,0,.3-.1.5-.3.4-.4.7-.5.8-.4,0,0,0,0,.1,0,0,0,0,0,0,0,0,0-.1,0-.1,0s0-.1.1-.2c0,0,.1,0,.2,0,0,0,0,0,.2,0,0,0,0-.1,0-.1-.2,0-.2,0,0-.3,0,0,.1,0,.1,0,0,0,0,.1,0,0,0,0,.3-.2.8-.5l.9-.5c.5-.3.9-.6,1.1-.7.3-.2.6-.4.8-.6.3-.2.5-.3.6-.4.4-.3.8-.7,1.4-1.2.5-.5.8-.8.9-.9.1-.1.2-.3,0-.4,0,0-.1-.2-.1-.5,0-.2-.1-.3-.3-.3s-.1,0,0-.1c0,0,0-.3,0-.7s-.3-.6-.7-.7c-.3,0-.7.2-1.4.5-.7.3-1.3.7-2,1-.7.4-1.4.8-2,1.2-.6.4-1.1.6-1.3.8-.2.2-.4.4-.7.5-.3.2-.5.4-.7.5l-1.4,1c-.3.2-.4.3-.4.3h-.1c0,.2-.1.2-.2.2s-.1,0-.2,0c0,0-.2.2-.3.2,0,0-.1,0,0,0,0-.1.2-.3.3-.6,0-.3.1-.4,0-.4,0,0,0-.2.1-.3,0,0,0-.2.2-.4,0-.2.1-.4.2-.6.2-.4.3-.7.5-.9s.2-.4.2-.4v-.4c.2,0,.2-.2.3-.2,0,0,0-.1,0-.2h0c0,0,0-.2.1-.2,0,0,.1-.2.1-.3v-.3c.4-.3.6-.8.8-1.5s.5-1.3.7-1.9c.2-.7.5-1.3.6-1.9.2-.6.4-1.1.5-1.4,0,0,0-.2,0-.2,0,0,0,0,0,0,0,0,0,0,0,0s0,0,0-.1c0,0,0,0,0,0s0,0,0,0h0c0,0,0,0,0-.2h0c0-.1.2-.4.3-.8s.1-.8,0-1c0-.1,0-.3-.3-.5,0,0-.1,0-.1-.1,0,0,0,0,0,0,0,0,0,0,0,0,0,0,0,0,0,0s0-.1,0-.2c0-.1-.1-.1-.2,0,0,0,0,.1-.1,0,0,0,0-.2,0-.4v-.3c0,0-.2.3-.2.3l-.3.4s0,0,0,0c0,0,0,0,0-.2,0,0,0-.1,0-.2,0,0,0-.2,0-.2,0,0,0-.1,0-.2,0,0,0,0,0,0,0,0,.1,0,.2,0,0,0,0-.1-.1-.2,0,0-.1-.1-.1,0,0,0-.2.1-.4.1s-.4,0-.5-.1c0,0,0,0,.2-.1s.2,0,.2,0h0c0-.2,0-.2-.2-.2-.1,0-.2,0-.3.2,0,0-.2,0-.2,0,0,0,0-.1-.3,0,0,0-.2,0-.3,0-.1,0-.2,0-.3.2l-5.4,11.3-7.3,17.3c-.2.6-.1,1.2.3,1.9,0,0,0,0,0-.1-.1-.2-.1-.3,0-.3s.3,0,.4.1c0,0,0,.2,0,.2-.1.1-.1.2,0,.2.2,0,.4.1.7.5,0,.2,0,.3.1.3s.1,0,.2.1l.3.2h-.1c0-.2,0-.3.3-.3s.3,0,.3,0,0,0-.2,0c-.1,0-.2,0-.2,0,0,0,0,0,.3,0,0,.2,0,.4.1.4,0,0,.2.2.4.4.4.4.7.5.7.2s0-.2.1-.3c0-.1.1-.1,0,0,0,.1,0,.2.1.2,0,0,0,0,0,0s0,0,0-.2,0-.1,0-.1,0,0,0,0h.1c0,0,.1,0,.1,0s0,.1,0,.1,0,0,0,0,0,0,0,.1,0,0,0,0c0,.2,0,.3,0,.2,0,0,0,0,0,.2,0,0,0,0,.1,0s0,0,.1,0c0,0,.1,0,.1,0s0,0,0,0,0,0,0-.2v-.3c.1,0,.1,0,.1,0,0,0,0,0,0,.1,0,0,0,0,0,0,0,.2,0,.2.1-.2,0,0,0-.3,0-.5.1-.3.2-.5.4-.8,0-.3.1-.6.3-1.1.2-.5.3-.9.5-1.3.2-.8.5-1.6.8-2.4.3-.8.7-1.6,1-2.3l.3-1,.6.8c.3.4.8,1.2,1.6,2.4.8,1.2,1.7,2.3,2.7,3.6,1,1.2,1.9,2.3,2.7,3.2.8,1,1.4,1.4,1.8,1.4s.2,0,.2,0c0,0,.1,0,.2,0,.2,0,.3.1.5.1.1,0,.2,0,0-.2,0,0,0,0,0,0,.1-.1.1-.2,0-.2s-.1,0-.2,0c0,0,0,0,0,0,.1,0,.1,0,0-.1,0,0-.1,0,0,0,0,0,.1,0,.2,0,.1,0,.2,0,.2-.1-.1-.1,0-.1.2,0,.2.2.2.2.2,0,0-.2,0-.3,0-.3.1,0,.1,0,0-.1h-.3c0-.2,0-.2,0-.3,0,0,0,0,.2,0,0,0,.2.1.3,0,0,0,.2,0,.3,0,.3,0,.3-.1,0-.4-.1,0-.2-.2,0-.2,0,0,0,0-.1-.2,0,0,0,0,0-.1.5.2,1,.3,1.6.5,1,.3,2,.4,3.2.6s2.2.1,3.3,0c.4,0,.9-.2,1.3-.4.5-.2.9-.5,1.3-.7s.7-.5,1.1-.8c.3-.3.5-.5.7-.7.8-1.1,1.2-2.1,1-2.9s-.5-1.5-1.1-2.2l-3.4-3.4c-.6-.6-1.1-1.1-1.5-1.6-.4-.5-.5-.8-.5-1,0-.3.1-.6.4-.8.3-.2.4-.4.5-.4h0c.6-.4,1.1-.8,1.7-1.2.5-.4,1.1-.8,1.6-1.1.5-.3,1.1-.6,1.6-.8.5-.2,1-.3,1.6-.3,0,0-.2.4-.6.8-.4.5-.8,1-1.2,1.5-.4.5-.8,1-1.2,1.5-.4.5-.6.7-.7.7,0,0,.2,0,.2.1,0,0,.1.2.1.2,0,.3,0,.4,0,.4s0,0,.1,0c.3.1.4.2.5.2,0,0,.1,0,.1,0h0c0-.3,0-.3,0,0,0,.2,0,.4,0,.5,0,.2.1.3.4.3s.4,0,.5-.1c.2,0,.4-.3.7-.5.3-.3.5-.5.6-.6.1,0,.4-.2.7-.4.3-.2.7-.5,1-.8.3-.3.7-.6,1-.9s.5-.5.7-.7c0,0,0-.1,0-.2.4-.4.6-.8.6-1ZM158.9,15.3h.1c0-.1,0-.2,0-.2,0,0,0,0,0,.1-.3.2-.4.2-.2,0ZM157.5,15l.4-.3.6-.3h-.1c0,.2-.2.2-.3.3l-.7.3s0,0,.1,0ZM157.2,15.1c0,0,.1,0,.1,0s0,0,0,0c0,0-.2,0-.2,0,0,0,0,0,.1,0ZM156.7,15.4s0,0,0,.1c-.1,0-.2,0-.1,0,0,0,0,0,.1,0ZM156.1,15.6c.1,0,.2,0,.2,0h-.1c0,0-.1,0,0,0ZM155.1,16.2s0,0,0,.1c0,0,0,0-.1,0h0c0,0,.1-.2.1-.2ZM154,17s0,0,0,0,0,0,0,0,0,0-.1,0-.1,0,0,0c0,0,0,0,.2,0ZM153.5,17.2c0,0,.1-.1.2-.1s0,0,0,.1c0,.1,0,.2-.1.2s-.1,0-.1,0c0,0,0,0,.2-.1ZM152.9,17.6c0,0,.1,0,0,0h-.1c-.2.1-.1,0,0,0ZM152.4,17.9c.1,0,.2,0,.1,0,0,0,0,0-.1,0s0,0,0,0c-.2,0-.2,0,0-.2ZM151.7,4v.4l-.2.4v-.4c0-.3,0-.4.2-.4ZM140.4,33.6s0,0,0,0c0,0-.1,0-.1,0h0c0-.1,0-.1.1,0,0,0,0,0,0,0ZM140.8,33.2c0,0,0,.2,0,.4,0,.3-.2.3-.3.1h0c0,0,0-.1,0-.1,0-.1,0-.2,0-.3.1-.2.2-.2.1,0ZM140.8,32.8s0,0,0,0h.1s0,0,0,0ZM141,35.4s0,0,0-.2,0-.2.1-.2c0,0,0,0,0,0,0,0,0,0,0,0,0,0,0,.2,0,.3,0,0,0,0,0,0ZM141.3,34.1c0,.2,0,.2-.2,0,0,0,0-.2.1-.4,0-.3.1-.3.1,0,0,.1,0,.3,0,.4ZM141.4,33.4h0c0,0,0,0,0,0ZM149.8,22s0,0,.1,0v.2s0,0,0,0c-.2,0-.3,0-.2-.2ZM151.1,20.9l-.4.3h-.2c0,.1.1,0,.1,0,0,0,.1-.2.2-.2,0,0,.2,0,.2-.1h.3c0-.1-.2,0-.2,0ZM152,20.2l-.4.3c-.2.1-.3.2-.2,0,.1,0,.3-.2.5-.4.2,0,.2,0,.1,0ZM149.5,18c.1-.1.2-.2.3-.2s0,0-.2.3c-.2.1-.3.2-.3.1s0-.1.2-.2ZM149,18.3s0,0,.1,0,0,0,0,0c0,0-.1,0-.2,0s0,0,0,0ZM145.9,18.2s0,0,0,0c0,0,0,0-.1,0s0,0,0,0c0,0,0,0,.1-.2ZM144.5,12.3c0,.1-.1.2-.2.3,0-.2.2-.4.4-.7,0,.2-.2.3-.2.4ZM145.1,19.9l-.2.3c0-.3.2-.4.3-.6,0,0,0,0,0,.3ZM145.5,18.9l.3-.5h0c0,.1-.3.7-.3.7h0ZM146.3,27.7c0-.2-.2-.5-.4-.8-.1-.3-.2-.5-.2-.5,0,0,0,0,.2,0,0,0,0,0,0,0,0,0,0,.1.2.2,0,.1.1.2.1.4.2.3.3.4.3.6.1.2.2.3.1.3,0,0-.1-.1-.3-.3ZM146.4,22.4c-.2,0-.3.2-.3.2,0,0-.1.2-.3.3s-.2.2-.2.1c0,0,.1-.2.3-.5.2-.2.4-.3.5-.4.1,0,.2,0,.2,0,0,0,0,.1-.2.2ZM146.9,22s.3-.2.7-.5c.4-.3.9-.7,1.4-1s1-.8,1.5-1.1c.5-.4.9-.7,1.2-.9.3-.2.4-.2.5-.2,0,0,0,.1-.3.3-1.1.8-1.9,1.3-2.3,1.7-.4.3-.6.5-.5.5,0,0,0,0,0,0,0,0-.1,0-.2.1,0,0-.2,0-.2,0,0,0-.1,0-.2.2l-.9.7c-.4.3-.6.3-.5.2ZM149.2,27.7c-.3-.4-.5-.8-.7-1.1-.2-.3-.3-.6-.5-.9-.2-.3-.3-.5-.3-.6,0-.2,0-.1.2.2s.5.8.8,1.3c.2.3.4.5.5.7s.1.3,0,.3ZM151.3,32.2h-.1c0-.1,0-.3,0-.3,0,0,0,0,0,0,0,0,0,0,0,.1.1,0,.1.1,0,.2ZM154.5,37c-.2,0-.3-.1-.3-.3h.1v.2c.2,0,.2.1.1,0ZM154.6,35.3h0s0,0,0,0,0,0,0,0c0,0,0,0,0,.1h0ZM166.9,34c.2-.2.4-.4.6-.6.2-.2.3-.3.4-.4h0c0,.2-.1.4-.5.8s-.8.8-1.4,1.1c.3-.4.6-.7.9-.9ZM165.8,27.8c.4.5.6.7.6.8,0,0,0,0-.3-.3-.2-.2-.6-.6-1-1-.4-.5-.8-.9-1.3-1.5l2,2ZM167.3,18.6c-.3.1-.9.4-1.6.7-.8.4-1.3.7-1.7.9l-1.2.9c0,0,0,.1-.1.1h-.2c0-.1.2-.4.7-.7.5-.3,1-.7,1.5-1s1.1-.6,1.7-.9c.5-.3.9-.4,1-.3h-.1ZM169.8,22.5l-1.2,1.1s0,0-.2,0c0,0,0,0,0-.1l.7-.6c.3-.2.5-.4.6-.5,0,0,.1,0,.1,0h0Z"/>
</svg>