<?xml version="1.0" encoding="UTF-8"?>
<svg id="Layer_1" xmlns="http://www.w3.org/2000/svg" version="1.1" viewBox="0 0 573.7 177.2">
  <!-- Generator: Adobe Illustrator 29.1.0, SVG Export Plug-In . SVG Version: 2.1.0 Build 142)  -->
  <defs>
    <style>
      .st0 {
        fill: #fff;
      }
    </style>
  </defs>
  <path class="st0" d="M120.7,64.9c0,21.6-7.5,38.3-22.5,50.3-11,8.8-25.7,13.2-44.1,13.2H4.4c-2.3,0-3.5-.6-3.5-1.8s2-1.6,5.9-1.6,8.1-.9,9.3-2.7c.5-.9.7-3.2.7-7V16.6c0-6-.5-9.5-1.4-10.4-.9-1-4.1-1.5-9.4-1.5S1.9,4,1.9,2.7s1-1.5,3.1-1.5c0,0,1.2,0,4,0h27.8c22,0,37.5,1.5,46.7,4.6,11.1,3.7,20.1,10.9,26.9,21.8,6.8,10.8,10.3,23.3,10.3,37.4h0ZM100.2,64.2c0-20.3-4-35.2-11.9-44.7s-20.3-14.2-37.2-14.2-13.1.9-14.8,2.6c-.7.9-1.1,3.8-1.1,8.8v97.7c0,3.4,0,5.5.3,6.2s.7,1.3,1.6,1.8c2.9,1.5,9.1,2.2,18.5,2.2s23.8-4.7,31.9-14c8.5-9.8,12.8-25.3,12.8-46.5h0Z"/>
  <path class="st0" d="M205,108.5c0,1.2-.9,3.4-2.8,6.5-1.9,3.1-3.8,5.6-5.8,7.6-5.3,5.4-12.3,8.1-21.1,8.1s-20.2-4-27.6-11.9c-7.4-7.9-11.1-17.8-11.1-29.5s3.5-22.4,10.5-30.6c7-8.2,15.8-12.3,26.3-12.3s15.9,2.5,21.8,7.6c5.9,5.1,9,11.6,9.3,19.5-3.9.6-9.1.9-15.6.7h-12.8c-.9,0-8.2.2-22,.5-.6,4-.9,7.8-.9,11.5,0,12.3,2.3,21.7,7.1,28.4,4.7,6.6,11.3,9.9,19.9,9.9s8.8-1.1,11.7-3.3c2.9-2.2,6.1-6.4,9.5-12.6.5-1,1.2-1.5,2-1.5s1.5.4,1.5,1.3h.1ZM189,71.2c-.5-14.7-5.7-22-15.8-22s-16.1,7.3-18.5,22h34.3Z"/>
  <path class="st0" d="M274,105.2c0,7.1-2.6,13.1-7.7,18.1-5.2,5-11.3,7.4-18.5,7.4s-9.2-1.5-15.1-4.4c-1.6-.9-3-1.3-4.2-1.3s-3,1.2-3.8,3.5c-.5,1.5-1.2,2.2-2,2.2s-1.3-.5-1.3-1.5v-24.5c0-1.3.4-2,1.3-2s1.5.7,1.6,2c.7,5.7,2.3,10.1,4.8,13.3,4.9,6.4,11.4,9.6,19.6,9.6s7.9-1.3,10.6-3.9c2.7-2.6,4-6,4-10.3s-1.5-8.6-4.6-11.4c-1.7-1.6-3.3-2.7-4.7-3.4-1.4-.7-5.5-2.3-12.4-4.9-13.6-5.1-20.3-12.8-20.3-23.1s2.3-12.6,6.9-17.3,10.3-7,17.1-7,6.1.7,10.9,2.2c1.2.4,2.3.5,3.3.5,2.5,0,4.1-1.2,4.7-3.7.4-1.2.9-1.8,1.6-1.8s1.3.5,1.3,1.5v8.8c-.1,2.9.2,7.6.9,14.1v.4c0,1-.5,1.5-1.5,1.5s-1.6-1.8-2.7-5.5c-1.3-4.4-3.7-8-7.1-10.7s-7.2-4.1-11.6-4.1-7.6,1.3-10.3,3.9c-2.7,2.6-4,5.8-4,9.7,0,6.1,4.1,10.8,12.3,14,12.7,5,20.8,9.2,24.2,12.5,4.4,4.3,6.6,9.5,6.6,15.6h.1Z"/>
  <path class="st0" d="M325.8,127.4c0,1.1-1,1.6-3.1,1.6.1,0-1.3-.1-4.4-.4-3.7-.2-6.7-.4-9.2-.4h-19c-.6.5-1.3.7-2.2.7-1.3,0-2-.5-2-1.4,0-1.3,1.2-1.9,3.7-1.9,4.6,0,7.2-.5,7.6-1s.6-3.1.6-7.6v-55.5c-.1-3.1-.3-4.9-.5-5.4s-.9-.8-2.3-.8h-7.1c-1.3,0-2-.4-2-1.3s1-1.2,3.1-1.3c8.1-.4,15-2.3,20.8-5.7l1.8-1.1c1,1.8,1.4,5.2,1.4,10,0-.2,0,.4,0,1.8v57c0,4.9,0,7.7.3,8.6s.8,1.4,1.9,1.6c1.8.5,4.5.7,8.1.7s2.6.5,2.6,1.5v.3ZM312.1,13.3c0,5.5-2.7,8.2-8.2,8.2s-4.3-.8-5.9-2.3-2.4-3.4-2.4-5.6c0-5.7,2.7-8.6,8.2-8.6s8.2,2.7,8.2,8.2h0Z"/>
  <path class="st0" d="M420.3,57.3c0,5.6-2.5,8.4-7.5,8.4s-3.3-.6-4.7-1.7c-1.4-1.2-2.1-2.5-2.1-3.9s.2-1.3.5-2.3c.4-1,.5-1.9.5-2.5,0-1.6-.9-2.4-2.6-2.4s-2.9.8-4.2,2.3c-1.3,1.5-2,3.1-2,4.7s.3,2.4.9,6.2c.6,3.8.9,6.7.9,8.6,0,8.3-2.9,15.3-8.6,20.9s-12.9,8.4-21.4,8.4-6.2-.9-12.1-2.7c-1.6-.5-2.6-.7-3.1-.7-2.6,0-4.9,1-7,3.1s-3.1,4.3-3.1,6.8c0,6.4,3.8,9.5,11.5,9.5s7.6-.5,14.1-1.6c5-.9,9.6-1.3,13.7-1.3,7.4,0,13.3,2,17.5,5.9s6.3,9.3,6.3,16.3c0,10.5-4.5,19.2-13.5,26.2s-20.3,10.4-34,10.4-18.1-2-23.9-6.1-8.7-9.7-8.7-16.9,2.7-12.2,8.1-15.8c2.7-1.7,7-3.2,12.8-4.6-8.7-3.4-13-8.7-13-15.8s5.6-14.9,16.8-18.3c-7.3-5.7-11-13.3-11-22.7s2.8-15.8,8.4-21.2c5.6-5.3,13-8,22.2-8s9.1.7,12.2,2,6.7,4,10.9,8.1c3.9-5.7,8.7-8.6,14.5-8.6s10.4,3.1,10.4,9.3h.3ZM400.4,145.5c0-10.1-6-15.2-17.9-15.2s-8.4.5-15.1,1.6c-6.6,1.1-11.6,1.6-14.9,1.6-6.2,3.3-9.3,9.1-9.3,17.4s2.2,11.2,6.7,15c4.4,3.8,10.3,5.7,17.6,5.7s17-2.5,23.4-7.6c6.3-5.1,9.5-11.3,9.5-18.6h0ZM386.3,75.4c0-17.7-4.9-26.6-14.7-26.6s-14.3,8.2-14.3,24.7,5.1,27.8,15.2,27.8,13.7-8.7,13.7-26h0Z"/>
  <path class="st0" d="M507.3,127.5c0,.9-.9,1.4-2.7,1.4h-33.7c-1.6,0-2.4-.4-2.4-1.3s.3-1,1-1.1,3-.2,7.1-.4c2.3,0,3.7-.5,4-1,.4-.5.5-2.5.5-5.9v-35.1c0-13.3-.5-21.2-1.5-23.8-2.1-5.5-6.2-8.2-12.5-8.2s-11.2,2.7-15.4,8c-1.2,1.6-1.8,3.8-1.8,6.6v57c0,1.5,1.3,2.3,3.9,2.4l5.6.2c1.2,0,1.9.4,1.9,1.3s-.7,1.3-2.2,1.3h-33.3c-1.8,0-2.7-.4-2.7-1.1s1.1-1.2,3.3-1.4h4.6c1.8,0,2.9-.4,3.3-1.3l.5-2.7v-39.8c0-13.9-.1-21.6-.4-23-.2-1.5-1.8-2.2-4.6-2.2h-5.3c-2.4,0-3.7-.5-3.7-1.4s1.3-1.8,3.8-1.8c3.7,0,7.6-.8,11.9-2s7.3-2.6,9-4.2c1.1-1,2-1.5,2.6-1.5s1.3,1.2,1.3,3.5v8.8c6.3-8.2,14.5-12.3,24.5-12.3s15.1,3.2,19,9.7c2.2,3.7,3.3,10.6,3.3,20.9v41.8c0,3.9.2,6,.5,6.4.7.7,2.5,1.1,5.3,1.1h3.3c1.2,0,1.8.4,1.8,1.2h.2Z"/>
  <path class="st0" d="M572.4,105.2c0,7.1-2.6,13.1-7.7,18.1-5.2,5-11.3,7.4-18.5,7.4s-9.2-1.5-15.1-4.4c-1.6-.9-3-1.3-4.2-1.3s-3,1.2-3.8,3.5c-.5,1.5-1.2,2.2-2,2.2s-1.3-.5-1.3-1.5v-24.5c0-1.3.4-2,1.3-2s1.5.7,1.6,2c.7,5.7,2.3,10.1,4.8,13.3,4.9,6.4,11.4,9.6,19.6,9.6s7.9-1.3,10.6-3.9c2.7-2.6,4-6,4-10.3s-1.5-8.6-4.6-11.4c-1.7-1.6-3.3-2.7-4.7-3.4-1.4-.7-5.5-2.3-12.4-4.9-13.6-5.1-20.3-12.8-20.3-23.1s2.3-12.6,6.9-17.3,10.3-7,17.1-7,6.1.7,10.9,2.2c1.2.4,2.3.5,3.3.5,2.5,0,4.1-1.2,4.7-3.7.4-1.2.9-1.8,1.6-1.8s1.3.5,1.3,1.5v8.8c0,2.9.2,7.6.9,14.1v.4c0,1-.5,1.5-1.5,1.5s-1.6-1.8-2.7-5.5c-1.3-4.4-3.7-8-7.1-10.7-3.4-2.7-7.2-4.1-11.6-4.1s-7.6,1.3-10.3,3.9c-2.7,2.6-4,5.8-4,9.7,0,6.1,4.1,10.8,12.3,14,12.7,5,20.8,9.2,24.2,12.5,4.4,4.3,6.6,9.5,6.6,15.6h.1Z"/>
</svg>