<?xml version="1.0" encoding="UTF-8"?>
<svg id="Layer_1" xmlns="http://www.w3.org/2000/svg" version="1.1" viewBox="0 0 127.3 40">
  <!-- Generator: Adobe Illustrator 29.1.0, SVG Export Plug-In . SVG Version: 2.1.0 Build 142)  -->
  <defs>
    <style>
      .st0 {
        fill: #fff;
      }
    </style>
  </defs>
  <path class="st0" d="M28.8,14.8c0,4.8-1.7,8.5-5,11.1-2.4,2-5.7,2.9-9.8,2.9H3.1c-.5,0-.8-.1-.8-.4s.4-.4,1.3-.4,1.8-.2,2.1-.6c.1-.2.2-.7.2-1.5V4.1c0-1.3,0-2.1-.3-2.3-.2-.2-.9-.3-2.1-.3s-.9-.1-.9-.4.2-.3.7-.3c0,0,.3,0,.9,0h6.2c4.9,0,8.3.3,10.3,1,2.5.8,4.4,2.4,6,4.8,1.5,2.4,2.3,5.1,2.3,8.3ZM24.3,14.6c0-4.5-.9-7.8-2.6-9.9s-4.5-3.1-8.2-3.1-2.9.2-3.3.6c-.2.2-.2.8-.2,1.9v21.6c0,.8,0,1.2,0,1.4s.2.3.3.4c.6.3,2,.5,4.1.5s5.3-1,7-3.1c1.9-2.2,2.9-5.6,2.9-10.3Z"/>
  <path class="st0" d="M46.8,24.4c0,.3-.2.8-.6,1.4s-.8,1.2-1.3,1.7c-1.2,1.2-2.7,1.8-4.7,1.8s-4.5-.9-6.1-2.6c-1.6-1.8-2.5-3.9-2.5-6.5s.8-4.9,2.3-6.8c1.5-1.8,3.5-2.7,5.8-2.7s3.5.6,4.8,1.7c1.3,1.1,2,2.6,2.1,4.3-.9.1-2,.2-3.4.2h-2.8c-.2,0-1.8,0-4.9.1-.1.9-.2,1.7-.2,2.5,0,2.7.5,4.8,1.6,6.3s2.5,2.2,4.4,2.2,1.9-.2,2.6-.7,1.3-1.4,2.1-2.8c.1-.2.3-.3.5-.3.2,0,.3,0,.3.3ZM43.3,16.2c-.1-3.2-1.3-4.9-3.5-4.9s-3.5,1.6-4.1,4.9h7.6Z"/>
  <path class="st0" d="M61.5,23.7c0,1.6-.6,2.9-1.7,4s-2.5,1.6-4.1,1.6-2-.3-3.3-1c-.3-.2-.7-.3-.9-.3-.4,0-.7.3-.8.8-.1.3-.2.5-.4.5s-.3-.1-.3-.3v-5.4c0-.3,0-.5.3-.5s.3.1.4.5c.2,1.2.5,2.2,1,2.9,1.1,1.4,2.5,2.1,4.3,2.1s1.8-.3,2.3-.9c.6-.6.9-1.3.9-2.3s-.3-1.9-1-2.5c-.4-.4-.7-.6-1-.8-.3-.1-1.2-.5-2.7-1.1-3-1.1-4.5-2.8-4.5-5.1s.5-2.8,1.5-3.8c1-1,2.3-1.5,3.8-1.5s1.3.2,2.4.5c.3,0,.5.1.7.1.6,0,.9-.3,1-.8,0-.3.2-.4.4-.4s.3.1.3.3v1.9c0,.6,0,1.7.2,3.1h0c0,.3-.1.4-.3.4s-.4-.4-.6-1.2c-.3-1-.8-1.8-1.6-2.4-.7-.6-1.6-.9-2.6-.9s-1.7.3-2.3.9c-.6.6-.9,1.3-.9,2.2,0,1.4.9,2.4,2.7,3.1,2.8,1.1,4.6,2,5.3,2.8,1,1,1.5,2.1,1.5,3.5Z"/>
  <path class="st0" d="M72.3,28.6c0,.2-.2.4-.7.4,0,0-.3,0-1,0-.8,0-1.5,0-2,0h-4.2c-.1.1-.3.2-.5.2-.3,0-.5-.1-.5-.3,0-.3.3-.4.8-.4,1,0,1.6-.1,1.7-.2s.1-.7.1-1.7v-12.3c0-.7,0-1.1,0-1.2,0-.1-.2-.2-.5-.2h-1.6c-.3,0-.5,0-.5-.3s.2-.3.7-.3c1.8,0,3.3-.5,4.6-1.3l.4-.2c.2.4.3,1.1.3,2.2,0,0,0,0,0,.4v12.6c0,1.1,0,1.7,0,1.9s.2.3.4.4c.4.1,1,.2,1.8.2.4,0,.6.1.6.3ZM69.3,3.4c0,1.2-.6,1.8-1.8,1.8s-.9-.2-1.3-.5c-.3-.3-.5-.8-.5-1.2,0-1.3.6-1.9,1.8-1.9,1.2,0,1.8.6,1.8,1.8Z"/>
  <path class="st0" d="M92.6,13.1c0,1.2-.6,1.9-1.7,1.9s-.7-.1-1-.4c-.3-.3-.5-.6-.5-.9s0-.3.1-.5c0-.2.1-.4.1-.6,0-.4-.2-.5-.6-.5s-.6.2-.9.5-.4.7-.4,1,0,.5.2,1.4.2,1.5.2,1.9c0,1.8-.6,3.4-1.9,4.6-1.3,1.2-2.8,1.9-4.7,1.9s-1.4-.2-2.7-.6c-.3-.1-.6-.2-.7-.2-.6,0-1.1.2-1.5.7-.5.5-.7,1-.7,1.5,0,1.4.8,2.1,2.6,2.1s1.7-.1,3.1-.4c1.1-.2,2.1-.3,3-.3,1.7,0,2.9.4,3.9,1.3.9.9,1.4,2.1,1.4,3.6,0,2.3-1,4.3-3,5.8-2,1.5-4.5,2.3-7.5,2.3s-4-.5-5.3-1.4c-1.3-.9-1.9-2.2-1.9-3.7s.6-2.7,1.8-3.5c.6-.4,1.5-.7,2.8-1-1.9-.8-2.9-1.9-2.9-3.5s1.2-3.3,3.7-4.1c-1.6-1.3-2.4-2.9-2.4-5s.6-3.5,1.9-4.7c1.2-1.2,2.9-1.8,4.9-1.8s2,.1,2.7.4,1.5.9,2.4,1.8c.9-1.3,1.9-1.9,3.2-1.9,1.5,0,2.3.7,2.3,2.1ZM88.2,32.6c0-2.2-1.3-3.4-3.9-3.4s-1.9.1-3.3.4-2.6.4-3.3.4c-1.4.7-2.1,2-2.1,3.8s.5,2.5,1.5,3.3,2.3,1.2,3.9,1.2,3.8-.6,5.2-1.7c1.4-1.1,2.1-2.5,2.1-4.1ZM85.1,17.1c0-3.9-1.1-5.9-3.2-5.9s-3.2,1.8-3.2,5.5,1.1,6.1,3.4,6.1,3-1.9,3-5.7Z"/>
  <path class="st0" d="M111.2,28.6c0,.2-.2.3-.6.3h-7.4c-.3,0-.5,0-.5-.3s0-.2.2-.2.7,0,1.6,0c.5,0,.8-.1.9-.2,0-.1.1-.6.1-1.3v-7.8c0-2.9-.1-4.7-.3-5.2-.5-1.2-1.4-1.8-2.8-1.8s-2.5.6-3.4,1.8c-.3.4-.4.8-.4,1.4v12.6c0,.3.3.5.9.5h1.2c.3,0,.4.1.4.3s-.2.3-.5.3h-7.4c-.4,0-.6,0-.6-.2s.2-.3.7-.3h1c.4,0,.7,0,.7-.3v-.6c.1,0,.1-8.8.1-8.8,0-3.1,0-4.8,0-5.1s-.4-.5-1-.5h-1.2c-.5,0-.8-.1-.8-.3s.3-.4.8-.4c.8,0,1.7-.2,2.6-.4.9-.3,1.6-.6,2-.9.2-.2.4-.3.6-.3s.3.3.3.8v1.9c1.4-1.8,3.2-2.7,5.4-2.7s3.3.7,4.2,2.2c.5.8.7,2.4.7,4.6v9.2c0,.9,0,1.3.1,1.4.2.2.6.2,1.2.2h.7c.3,0,.4,0,.4.3Z"/>
  <path class="st0" d="M125,23.7c0,1.6-.6,2.9-1.7,4s-2.5,1.6-4.1,1.6-2-.3-3.3-1c-.3-.2-.7-.3-.9-.3-.4,0-.7.3-.8.8-.1.3-.2.5-.4.5s-.3-.1-.3-.3v-5.4c0-.3,0-.5.3-.5s.3.1.4.5c.2,1.2.5,2.2,1.1,2.9,1.1,1.4,2.5,2.1,4.3,2.1s1.8-.3,2.3-.9c.6-.6.9-1.3.9-2.3s-.3-1.9-1-2.5c-.4-.4-.7-.6-1-.8s-1.2-.5-2.7-1.1c-3-1.1-4.5-2.8-4.5-5.1s.5-2.8,1.5-3.8c1-1,2.3-1.5,3.8-1.5s1.3.2,2.4.5c.3,0,.5.1.7.1.6,0,.9-.3,1-.8,0-.3.2-.4.4-.4s.3.1.3.3v1.9c0,.6,0,1.7.2,3.1h0c0,.3-.1.4-.3.4s-.4-.4-.6-1.2c-.3-1-.8-1.8-1.6-2.4-.7-.6-1.6-.9-2.6-.9s-1.7.3-2.3.9c-.6.6-.9,1.3-.9,2.2,0,1.4.9,2.4,2.7,3.1,2.8,1.1,4.6,2,5.3,2.8,1,1,1.5,2.1,1.5,3.5Z"/>
</svg>