<?xml version="1.0" encoding="UTF-8"?>
<svg id="Layer_1" xmlns="http://www.w3.org/2000/svg" version="1.1" viewBox="0 0 772.8 108.9">
  <!-- Generator: Adobe Illustrator 29.1.0, SVG Export Plug-In . SVG Version: 2.1.0 Build 142)  -->
  <defs>
    <style>
      .st0 {
        fill: #fff;
      }
    </style>
  </defs>
  <path class="st0" d="M54.9,67.1h31.2,0c-2.6,13.2-14.4,22.1-29.3,22.1s-33.8-14.9-33.8-34.6,14.3-34.4,33.2-34.4,20.9,4.6,28.4,13.4l.3.4,15.2-14-.3-.3C89.7,7.5,73.4.2,56.2.2,25,.2.6,24.1.6,54.6s24.6,54.4,56,54.4,52.9-22.8,52.9-54.3v-6.6h-54.6v19Z"/>
  <path class="st0" d="M199.3,64c12.7-5.1,20.7-16.3,20.7-29.4,0-19.3-15-32.7-36.5-32.7h-51.6v105.6h21.8v-40.4h23.9l18.3,40.4h24.4l-21-43.4h0ZM197.8,34.9c0,8.5-6.6,14.2-16.3,14.2h-27.8v-28.4h27.8c9.8,0,16.3,5.7,16.3,14.2Z"/>
  <polygon class="st0" points="393.1 47.7 363.6 2.1 363.5 1.9 338.3 1.9 381.5 67 381.5 107.4 403.3 107.4 403.3 67.2 446.1 2.6 446.6 1.9 422.8 1.9 393.1 47.7"/>
  <path class="st0" d="M505.2,1.9h-40.6v105.6h40.6c31.3,0,55.8-23.1,55.8-52.5s-5.7-27.9-16.1-37.8c-10.4-9.9-24.5-15.3-39.7-15.3ZM538.4,54.9c0,18.5-14.7,33.1-33.4,33.1h-18.6V21.3h18.6c18.7,0,33.4,14.8,33.4,33.7Z"/>
  <polygon class="st0" points="604.6 63.4 649.4 63.4 649.4 45 604.6 45 604.6 20.8 663.9 20.8 663.9 1.9 582.8 1.9 582.8 107.4 664.5 107.4 664.5 88.5 604.6 88.5 604.6 63.4"/>
  <path class="st0" d="M740.7,45.5l-19.9-3.3c-10.7-1.6-15.1-5-15.1-11.5s7.6-11.9,19.3-11.9,21.7,3.9,33,12.4l.4.3,11.5-15.9.3-.4-.3-.3c-11.8-9.1-28-14.5-43.2-14.5-25.7,0-41.6,12.3-41.6,32s9.5,25.2,27.6,28.2l21,3.6c12.5,2.1,17.4,5.8,17.4,13s-8.5,13.3-21.6,13.3-23.1-4.5-35.4-15.1l-.4-.3-12.5,15.7.3.3c12.6,11.4,29.5,17.9,46.4,17.9,27,0,44.5-13.3,44.5-33.8s-10.6-26.3-31.5-29.7Z"/>
  <path class="st0" d="M301.3,1.9h-25.3l-43.2,104.9-.3.6h22.7l9.1-23.3h47.1l8.9,23v.3h23.7L301.5,2.1v-.3ZM304.9,66.7h-33.7l17-43.5,16.7,43.5Z"/>
</svg>