<?xml version="1.0" encoding="UTF-8"?>
<svg id="Layer_1" xmlns="http://www.w3.org/2000/svg" version="1.1" viewBox="0 0 181.9 29.4">
  <!-- Generator: Adobe Illustrator 29.1.0, SVG Export Plug-In . SVG Version: 2.1.0 Build 142)  -->
  <defs>
    <style>
      .st0 {
        font-family: MyriadPro-Regular, 'Myriad Pro';
        font-size: 12px;
      }
    </style>
  </defs>
  <g>
    <path d="M13.9,17.7h7.3c-.6,3.1-3.4,5.1-6.8,5.1s-7.9-3.5-7.9-8,3.3-8,7.7-8,4.9,1.1,6.6,3.1h0c0,0,3.5-3.2,3.5-3.2h0c-2.4-2.9-6.1-4.6-10.1-4.6-7.3,0-12.9,5.6-12.9,12.7s5.7,12.7,13,12.7,12.3-5.3,12.3-12.6v-1.5h-12.7v4.4Z"/>
    <path d="M47.4,17c3-1.2,4.8-3.8,4.8-6.8,0-4.5-3.5-7.6-8.5-7.6h-12v24.6h5.1v-9.4h5.5l4.2,9.4h5.7l-4.9-10.1h0ZM47.1,10.2c0,2-1.5,3.3-3.8,3.3h-6.5v-6.6h6.5c2.3,0,3.8,1.3,3.8,3.3Z"/>
    <polygon points="92.5 13.2 85.7 2.6 85.6 2.5 79.8 2.5 89.8 17.7 89.8 27.1 94.9 27.1 94.9 17.7 104.8 2.7 104.9 2.5 99.4 2.5 92.5 13.2"/>
    <path d="M118.6,2.5h-9.4v24.6h9.4c7.3,0,13-5.4,13-12.2s-1.3-6.5-3.7-8.8c-2.4-2.3-5.7-3.6-9.2-3.6ZM126.3,14.9c0,4.3-3.4,7.7-7.8,7.7h-4.3V7h4.3c4.4,0,7.8,3.4,7.8,7.8Z"/>
    <polygon points="141.7 16.8 152.1 16.8 152.1 12.5 141.7 12.5 141.7 6.9 155.5 6.9 155.5 2.5 136.6 2.5 136.6 27.1 155.6 27.1 155.6 22.7 141.7 22.7 141.7 16.8"/>
    <path d="M173.4,12.6l-4.6-.8c-2.5-.4-3.5-1.2-3.5-2.7s1.8-2.8,4.5-2.8,5.1.9,7.7,2.9h0c0,0,2.7-3.6,2.7-3.6h0c0,0,0-.1,0-.1-2.8-2.1-6.5-3.4-10.1-3.4-6,0-9.7,2.8-9.7,7.4s2.2,5.9,6.4,6.6l4.9.8c2.9.5,4,1.3,4,3s-2,3.1-5,3.1-5.4-1-8.2-3.5h0c0,0-2.9,3.6-2.9,3.6h0c2.9,2.7,6.9,4.2,10.8,4.2,6.3,0,10.4-3.1,10.4-7.9,0-3.8-2.5-6.1-7.4-6.9Z"/>
    <path d="M71.2,2.5h-5.9l-10,24.4h0c0,.1,5.3.1,5.3.1l2.1-5.4h11l2.1,5.4h0c0,0,5.5,0,5.5,0l-9.9-24.5h0ZM72,17.6h-7.8l4-10.1,3.9,10.1Z"/>
  </g>
  <text class="st0" transform="translate(406 -214.1)"><tspan x="0" y="0">Lorem ipsum</tspan></text>
</svg>