<?xml version="1.0" encoding="UTF-8"?>
<svg id="Layer_1" xmlns="http://www.w3.org/2000/svg" version="1.1" viewBox="0 0 165.62 75">
  <!-- Generator: Adobe Illustrator 29.1.0, SVG Export Plug-In . SVG Version: 2.1.0 Build 142)  -->
  <path d="M24.23,26.07c0,.19-.13.28-.4.28h-.86c-.95,0-1.54.18-1.76.53-.33.51-.82,1.58-1.46,3.22l-6.68,17.11c-.04.13-.1.29-.17.47,0,.4.44.65,1.33.76.29,0,.63.01,1.03.03.29.02.43.1.43.23,0,.16-.16.23-.46.23-1.59-.02-3.89-.03-6.88-.03-1.04,0-1.64-.01-1.81-.03s-.25-.09-.25-.2c0-.15.3-.23.9-.23.82-.02,1.36-.08,1.63-.17.42-.15.73-.4.93-.73.2-.49.43-1.06.7-1.73l6.48-16.25c.64-1.61.96-2.5.96-2.65,0-.38-.34-.56-1.03-.56h-1.33c-.24,0-.37-.09-.37-.28,0-.17.12-.25.37-.25h8.41c.2,0,.3.08.3.25Z"/>
  <path d="M30.87,25.62s-.06.2-.17.47c-.07.18-.18.44-.33.8l-7.44,18.17c-.55,1.35-.83,2.23-.83,2.62,0,.6.4.9,1.2.9s1.59-.47,2.39-1.4c.33-.4.54-.6.63-.6.15,0,.23.08.23.23,0,.29-.37.75-1.1,1.4-.84.75-1.93,1.13-3.26,1.13-1.82,0-2.72-.68-2.72-2.03,0-.44.28-1.34.83-2.7l7.44-18.19c.07-.13.1-.21.1-.23,0-.2-.21-.3-.63-.3-.98,0-1.46-.08-1.46-.23,0-.11.1-.17.3-.17h1.83c.95,0,1.66-.03,2.13-.09.24-.03.41-.04.5-.04.24,0,.37.09.37.27Z"/>
  <path d="M38.95,25.62s-.06.2-.17.47c-.07.18-.18.44-.33.8l-7.44,18.17c-.55,1.35-.83,2.23-.83,2.62,0,.6.4.9,1.2.9s1.59-.47,2.39-1.4c.33-.4.54-.6.63-.6.15,0,.23.08.23.23,0,.29-.37.75-1.1,1.4-.84.75-1.93,1.13-3.26,1.13-1.82,0-2.72-.68-2.72-2.03,0-.44.28-1.34.83-2.7l7.44-18.19c.07-.13.1-.21.1-.23,0-.2-.21-.3-.63-.3-.98,0-1.46-.08-1.46-.23,0-.11.1-.17.3-.17h1.83c.95,0,1.66-.03,2.13-.09.24-.03.41-.04.5-.04.24,0,.37.09.37.27Z"/>
  <path d="M51.57,34.99l-.07.17-.23.54-3.72,8.75c-.75,1.77-1.13,2.86-1.13,3.29,0,.6.29.91.86.91.82,0,1.73-.61,2.72-1.83.24-.31.41-.46.5-.46.13,0,.2.07.2.2,0,.54-.65,1.21-1.96,2.02-.78.47-1.57.71-2.39.71-.64,0-1.21-.18-1.69-.54s-.73-.77-.73-1.24c0-.27.1-.68.3-1.24l.4-1.14c-1.48,1.73-2.61,2.86-3.37,3.38-.76.52-1.7.78-2.81.78-.86,0-1.57-.17-2.13-.52-.55-.34-.83-.8-.83-1.35,0-.6.24-1.45.73-2.54l3.42-7.71c.09-.2.28-.59.56-1.17.07-.11.1-.19.1-.23,0-.18-.27-.27-.8-.27-.71,0-1.06-.12-1.06-.37,0-.15.08-.23.23-.23.18,0,.43.02.76.07.33.04.59.07.76.07,1.15,0,2-.1,2.56-.3.13-.04.22-.07.27-.07.11,0,.17.07.17.2,0,.18-.22.74-.67,1.69-.44.95-.85,1.92-1.23,2.92-.09.25-.43,1.06-1.03,2.44l-1.33,3.07c-.55,1.27-.83,2.17-.83,2.7,0,.65.41.97,1.23.97.86,0,1.98-.71,3.36-2.13,1.55-1.59,2.83-3.61,3.85-6.05l2.13-5.05c.11-.27.23-.4.37-.4-.02,0,.21,0,.7,0h.27c.6,0,.99-.03,1.16-.1.11-.04.19-.07.23-.07.11,0,.17.04.17.13Z"/>
  <path d="M63.86,37.11c0,.38-.12.7-.37.96-.24.27-.53.4-.86.4-.66,0-1-.32-1-.96,0-.53.22-.8.66-.8.07,0,.17.03.32.1.14.07.26.1.35.1.13,0,.2-.08.2-.23,0-.37-.25-.73-.76-1.08-.51-.35-1.03-.52-1.56-.52-.71,0-1.31.23-1.79.68-.49.45-.73,1-.73,1.64,0,.55.52,2.09,1.56,4.61.24.6.37,1.27.37,2.02,0,1.5-.51,2.76-1.53,3.78-1.02,1.02-2.29,1.52-3.82,1.52-1.33,0-2.44-.37-3.34-1.11-.9-.74-1.35-1.66-1.35-2.74,0-.62.18-1.13.55-1.53.37-.4.82-.6,1.38-.6.42,0,.78.14,1.08.43.3.29.45.63.45,1.03,0,.66-.32,1-.96,1-.69,0-1.03-.23-1.03-.7,0-.15.03-.31.08-.47.06-.15.08-.24.08-.27,0-.22-.09-.33-.27-.33-.2,0-.38.15-.55.45-.17.3-.25.63-.25.98,0,.86.36,1.62,1.08,2.26.72.64,1.57.96,2.55.96.91,0,1.67-.28,2.29-.83.61-.55.92-1.25.92-2.09,0-.6-.24-1.57-.71-2.92-.45-1.28-.68-2.35-.68-3.19,0-1.44.44-2.65,1.31-3.64.88-.99,1.94-1.48,3.21-1.48.84,0,1.57.25,2.19.76.62.51.93,1.11.93,1.79Z"/>
  <path d="M73.96,34.95c0,.31-.46.48-1.4.5h-1.86l-4.48,10.07c-.49,1.09-.73,1.77-.73,2.06,0,.46.34.7,1.03.7,1,0,1.88-.52,2.66-1.57.18-.22.31-.33.4-.33.18,0,.27.08.27.23,0,.29-.37.75-1.1,1.4-.84.73-1.85,1.1-3.02,1.1-.8,0-1.45-.2-1.94-.6-.5-.4-.75-.91-.75-1.52,0-.4.25-1.14.76-2.22l4.35-9.31h-1.36c-.38,0-.56-.07-.56-.22,0-.27.15-.41.46-.41h.3c.11-.02.29-.03.53-.03.31,0,.61-.01.9-.03l.56-1.43c.2-.49.35-.73.47-.73s.28.02.51.05.42.05.55.05c.24,0,.6-.1,1.06-.3.09-.04.17-.06.23-.06.11,0,.17.04.17.13l-.37.79-.73,1.57h2.06c.11,0,.24-.02.4-.07.15-.04.24-.07.27-.07.24,0,.37.09.37.27Z"/>
  <path d="M84.66,36.11c0,.44-.14.83-.43,1.15-.29.32-.62.48-1,.48-.35,0-.53-.12-.53-.37l.07-.33c.04-.13.07-.25.07-.37,0-.53-.27-.8-.8-.8-.64,0-1.54.62-2.69,1.86s-2.24,2.98-3.25,5.22l-2.39,5.25c-.22.51-.41.76-.56.76-.44-.07-.79-.1-1.03-.1-.38,0-.68.03-.9.1h-.2c-.2,0-.3-.04-.3-.13,0-.02.03-.07.1-.13l.17-.33,5.61-12.79c0-.18-.14-.27-.43-.27.02,0-.02,0-.13,0-.09.02-.23.03-.43.03h-.33c-.33,0-.5-.08-.5-.23,0-.13.58-.22,1.73-.27,1.15-.04,1.93-.14,2.33-.3.18-.04.28-.07.3-.07.13,0,.2.07.2.2,0,.11-.14.52-.43,1.23l-1.23,2.99c2.04-2.83,3.83-4.25,5.38-4.25,1.08,0,1.63.49,1.63,1.46Z"/>
  <path d="M99.04,34.78c0,.07-.09.3-.27.69l-4.38,9.92c-.42.95-.63,1.68-.63,2.18,0,.57.29.86.86.86.86,0,1.73-.59,2.59-1.76.18-.24.31-.37.4-.37s.13.04.13.13c0,.24-.24.63-.73,1.16-.97,1.04-2.14,1.56-3.49,1.56-.69,0-1.25-.17-1.68-.5-.43-.33-.65-.76-.65-1.3,0-.33.08-.72.23-1.16-1.4,2.04-3.01,3.06-4.85,3.06-1.15,0-2.09-.37-2.82-1.11-.73-.74-1.1-1.69-1.1-2.83,0-1.26.42-2.64,1.26-4.14.84-1.5,1.96-2.87,3.36-4.11,1.9-1.68,3.65-2.52,5.25-2.52s2.59.8,2.79,2.39l.83-1.76c.18-.35.33-.53.46-.53.04,0,.18.02.4.07.22.04.38.07.46.07.49,0,.86-.05,1.13-.15.09-.05.17-.08.23-.08.13,0,.2.08.2.23ZM94.85,37.53c0-.68-.21-1.23-.61-1.65-.41-.42-.94-.63-1.58-.63-1.11,0-2.17.65-3.19,1.95-1.17,1.48-2.12,3.04-2.82,4.68-.71,1.64-1.06,3.08-1.06,4.31,0,1.5.62,2.25,1.86,2.25.71,0,1.48-.39,2.31-1.16.83-.77,1.52-1.74,2.08-2.91l2.59-5.55c.29-.62.43-1.05.43-1.29Z"/>
  <path d="M109.8,34.95c0,.31-.46.48-1.4.5h-1.86l-4.48,10.07c-.49,1.09-.73,1.77-.73,2.06,0,.46.34.7,1.03.7,1,0,1.88-.52,2.66-1.57.18-.22.31-.33.4-.33.18,0,.27.08.27.23,0,.29-.37.75-1.1,1.4-.84.73-1.85,1.1-3.02,1.1-.8,0-1.45-.2-1.94-.6-.5-.4-.75-.91-.75-1.52,0-.4.25-1.14.76-2.22l4.35-9.31h-1.36c-.38,0-.56-.07-.56-.22,0-.27.15-.41.46-.41h.3c.11-.02.29-.03.53-.03.31,0,.61-.01.9-.03l.56-1.43c.2-.49.35-.73.47-.73s.28.02.51.05.42.05.55.05c.24,0,.6-.1,1.06-.3.09-.04.17-.06.23-.06.11,0,.17.04.17.13l-.37.79-.73,1.57h2.06c.11,0,.24-.02.4-.07.15-.04.24-.07.27-.07.24,0,.37.09.37.27Z"/>
  <path d="M115.55,34.78c0,.07-.06.2-.17.4-.16.27-.41.81-.76,1.62l-3.82,8.72c-.51,1.17-.76,1.9-.76,2.19,0,.6.31.9.93.9.42,0,.9-.15,1.45-.44.54-.29.96-.65,1.25-1.06.2-.26.35-.39.46-.39.13,0,.2.07.2.2,0,.26-.31.66-.93,1.18-.93.79-1.98,1.18-3.16,1.18-.78,0-1.41-.2-1.91-.6-.5-.4-.75-.91-.75-1.52,0-.55.28-1.45.83-2.68l3.46-7.69c.11-.38.24-.66.4-.86.07-.09.1-.17.1-.23,0-.2-.49-.33-1.46-.4-.18-.04-.27-.12-.27-.23,0-.2.09-.3.27-.3.02,0,.19.02.5.07.31.04.81.07,1.5.07.93,0,1.58-.08,1.96-.23.22-.09.38-.13.47-.13.15,0,.23.09.23.27ZM117.84,28.57c0,.93-.43,1.4-1.3,1.4-.44,0-.81-.14-1.1-.42-.29-.28-.43-.63-.43-1.05,0-.91.51-1.36,1.53-1.36.86,0,1.3.48,1.3,1.43Z"/>
  <path d="M129.74,39.93c0,2.59-1.18,4.93-3.55,7.01-1.86,1.64-3.8,2.46-5.81,2.46-1.37,0-2.5-.48-3.39-1.43s-1.33-2.18-1.33-3.69c0-1.28.37-2.6,1.1-3.95s1.71-2.5,2.92-3.46c1.9-1.48,3.74-2.23,5.51-2.23,1.35,0,2.45.49,3.29,1.46.84.97,1.26,2.25,1.26,3.82ZM127.18,37.77c0-1.68-.75-2.52-2.26-2.52-1.84,0-3.43,1.32-4.78,3.95-1.29,2.52-1.93,4.9-1.93,7.11,0,1.66.74,2.49,2.23,2.49,1.86,0,3.41-1.2,4.65-3.59,1.39-2.7,2.09-5.18,2.09-7.44Z"/>
  <path d="M145.82,37.16c0,.53-.29,1.46-.86,2.77l-2.69,6.11c-.31.71-.47,1.19-.47,1.44,0,.47.26.7.78.7.63,0,1.55-.51,2.77-1.53.11-.07.2-.1.27-.1.13,0,.2.06.2.17,0,.27-.37.65-1.11,1.16-1.01.69-2.08,1.03-3.22,1.03-.69,0-1.26-.15-1.71-.45-.45-.3-.67-.68-.67-1.15,0-.38.21-1.05.63-2l2.66-5.98c.64-1.45.96-2.43.96-2.94,0-.76-.39-1.14-1.16-1.14-1.02,0-2.22.73-3.59,2.19-1.04,1.11-1.99,2.66-2.86,4.65l-2.72,6.31c-.11.33-.25.5-.43.5h-2.26c-.15,0-.23-.06-.23-.17,0-.04.03-.11.1-.2l.23-.5,5.08-12.17c.07-.11.12-.21.17-.3-.02-.15-.3-.24-.83-.26-.66-.02-1-.14-1-.36,0-.15.12-.23.37-.23.16,0,.4.02.73.07.33.04.59.07.76.07,1.2,0,1.98-.09,2.36-.27.16-.07.25-.1.3-.1.13,0,.2.07.2.2,0,.07-.01.12-.03.17l-1.23,3.12c.18-.2.43-.49.76-.85,1.64-1.76,3.22-2.64,4.75-2.64.89,0,1.61.25,2.16.75.55.5.83,1.14.83,1.92Z"/>
  <path d="M159.33,37.11c0,.38-.12.7-.37.96-.24.27-.53.4-.86.4-.66,0-1-.32-1-.96,0-.53.22-.8.66-.8.07,0,.17.03.32.1.14.07.26.1.35.1.13,0,.2-.08.2-.23,0-.37-.25-.73-.76-1.08-.51-.35-1.03-.52-1.56-.52-.71,0-1.31.23-1.79.68-.49.45-.73,1-.73,1.64,0,.55.52,2.09,1.56,4.61.24.6.37,1.27.37,2.02,0,1.5-.51,2.76-1.53,3.78-1.02,1.02-2.29,1.52-3.82,1.52-1.33,0-2.44-.37-3.34-1.11-.9-.74-1.35-1.66-1.35-2.74,0-.62.18-1.13.55-1.53.37-.4.82-.6,1.38-.6.42,0,.78.14,1.08.43.3.29.45.63.45,1.03,0,.66-.32,1-.96,1-.69,0-1.03-.23-1.03-.7,0-.15.03-.31.08-.47.06-.15.08-.24.08-.27,0-.22-.09-.33-.27-.33-.2,0-.38.15-.55.45-.17.3-.25.63-.25.98,0,.86.36,1.62,1.08,2.26.72.64,1.57.96,2.55.96.91,0,1.67-.28,2.29-.83.61-.55.92-1.25.92-2.09,0-.6-.24-1.57-.71-2.92-.45-1.28-.68-2.35-.68-3.19,0-1.44.44-2.65,1.31-3.64.88-.99,1.94-1.48,3.21-1.48.84,0,1.57.25,2.19.76.62.51.93,1.11.93,1.79Z"/>
</svg>