<?xml version="1.0" encoding="UTF-8"?>
<svg id="Layer_1" xmlns="http://www.w3.org/2000/svg" version="1.1" viewBox="0 0 129.55 75">
  <!-- Generator: Adobe Illustrator 29.1.0, SVG Export Plug-In . SVG Version: 2.1.0 Build 142)  -->
  <path d="M13.97,49.98c0,.21-.15.32-.45.32h-.37c-.15-.08-1.85-.11-5.1-.11-.62,0-1.25.03-1.87.08-.33.03-.82.04-1.5.04-.33,0-.49-.11-.49-.34,0-.2.32-.31.97-.34,1-.02,1.59-.14,1.76-.36.17-.21.26-.93.26-2.16v-19.77c0-1.23-.06-1.92-.19-2.07-.15-.25-.85-.4-2.09-.45-.48-.02-.72-.11-.72-.26,0-.2.15-.3.45-.3h5.1c.38,0,1.11.01,2.19.04l1.44-.04c.4,0,.6.11.6.32,0,.19-.56.31-1.67.35-.63.03-1.02.14-1.16.34-.14.2-.21.73-.21,1.57v20.01c0,1.42.06,2.2.19,2.32.27.28,1.09.44,2.44.49.27,0,.41.11.41.32Z"/>
  <path d="M33.12,50.09c0,.19-.19.28-.56.28h-6.9c-.33,0-.49-.09-.49-.26,0-.12.07-.2.21-.22.14-.02.62-.05,1.44-.08.47-.02.75-.09.82-.21.08-.11.11-.52.11-1.22v-7.18c0-2.72-.1-4.34-.3-4.86-.43-1.12-1.27-1.68-2.55-1.68s-2.3.55-3.15,1.64c-.25.32-.37.77-.37,1.35v11.67c0,.3.27.46.8.49l1.14.04c.25,0,.38.09.38.26s-.15.26-.45.26h-6.82c-.37,0-.56-.08-.56-.23s.22-.25.67-.3h.94c.37,0,.6-.09.67-.26l.11-.56v-8.15c0-2.84-.03-4.41-.08-4.71-.05-.3-.36-.45-.94-.45h-1.09c-.5,0-.75-.09-.75-.28,0-.24.26-.36.79-.36.75-.02,1.56-.16,2.44-.41.87-.25,1.49-.54,1.84-.86.22-.2.4-.3.52-.3.17,0,.26.24.26.71v1.8c1.3-1.67,2.97-2.51,5.02-2.51,1.8,0,3.1.66,3.9,1.99.45.75.67,2.17.67,4.27v8.55c0,.8.04,1.24.11,1.31.15.15.51.23,1.09.23h.67c.25,0,.37.08.37.24Z"/>
  <path d="M44.63,48.09c0,.22-.31.62-.94,1.2-1.07.97-2.35,1.46-3.82,1.46-1.37,0-2.41-.35-3.11-1.05-.4-.4-.6-1.57-.6-3.52v-11.14c-.03-.25-.16-.39-.41-.41h-1.42c-.55,0-.82-.09-.82-.26s.14-.27.41-.3c1.94-.18,3.45-1.14,4.54-2.88.15-.23.34-.34.56-.34.17,0,.26.09.26.26v.79c0,1.05.05,1.72.15,2.02.22.05.6.08,1.12.08,1.37,0,2.29-.06,2.74-.19.1-.02.19-.04.26-.04.2,0,.3.11.3.32,0,.36-1.01.54-3.04.54h-1.54v6.93c0,3.5.09,5.69.26,6.58.17.89.75,1.33,1.72,1.33.82,0,1.75-.46,2.77-1.39.1-.12.21-.19.34-.19.17,0,.26.06.26.19Z"/>
  <path d="M59.06,46.21c0,.25-.19.69-.58,1.33-.39.64-.78,1.16-1.18,1.56-1.07,1.1-2.51,1.65-4.31,1.65-2.25,0-4.13-.81-5.64-2.44-1.51-1.62-2.27-3.64-2.27-6.03s.72-4.59,2.16-6.26c1.44-1.67,3.23-2.51,5.38-2.51,1.77,0,3.26.52,4.46,1.56,1.2,1.04,1.84,2.37,1.91,3.99-.8.12-1.86.17-3.19.15h-2.62c-.17,0-1.67.04-4.5.11-.13.82-.19,1.61-.19,2.35,0,2.51.48,4.45,1.44,5.81.96,1.36,2.32,2.04,4.07,2.04,1,0,1.8-.23,2.4-.67s1.25-1.31,1.95-2.59c.1-.2.24-.3.41-.3.2,0,.3.09.3.26ZM55.8,38.57c-.1-3-1.17-4.5-3.22-4.5s-3.29,1.5-3.79,4.5h7.01Z"/>
  <path d="M72.67,36.13c0,.58-.18,1.05-.53,1.42-.35.37-.8.56-1.35.56-.45,0-.82-.13-1.12-.39s-.45-.59-.45-.99c0-.35.11-.65.34-.9.23-.25.34-.42.34-.53,0-.37-.28-.56-.82-.56-.7,0-1.3.44-1.8,1.31-.58,1.02-.86,2.91-.86,5.67v7.38c0,.3.11.48.32.56.21.08.86.12,1.93.15.27.05.41.15.41.3,0,.17-.16.26-.49.26h-7.27c-.4,0-.6-.08-.6-.22s.16-.23.49-.23h.52c.85,0,1.35-.1,1.5-.3.05-.1.08-.56.08-1.39v-10.36c0-1.38-.21-2.18-.62-2.39-.41-.21-1.07-.33-1.97-.36-.3,0-.45-.09-.45-.26s.12-.26.37-.26h.26c.37,0,.75.02,1.12.06s.54.06.49.06c.92,0,1.95-.26,3.07-.79l.49-.22.3-.11c.1.6.15,1.2.15,1.8v.75c.8-1.7,1.92-2.55,3.37-2.55.8,0,1.46.24,1.99.73.53.49.79,1.09.79,1.82Z"/>
  <path d="M81.77,50.08c0,.22-.21.34-.64.34.02,0-.28-.03-.9-.08-.75-.05-1.37-.08-1.87-.08h-3.9c-.13.1-.28.15-.45.15-.28,0-.41-.09-.41-.28,0-.26.25-.4.75-.4.95-.02,1.47-.09,1.56-.21.09-.11.13-.63.13-1.56v-11.36c-.03-.62-.06-.99-.09-1.11-.04-.11-.19-.17-.47-.17h-1.46c-.28,0-.41-.09-.41-.26,0-.15.21-.24.63-.26,1.65-.07,3.07-.46,4.25-1.17l.37-.22c.2.37.3,1.06.3,2.06,0-.05,0,.08,0,.37v11.67c0,1,.02,1.58.06,1.76s.17.29.39.34c.37.1.92.15,1.65.15.35,0,.52.1.52.3ZM78.96,26.72c0,1.12-.56,1.69-1.69,1.69-.47,0-.87-.16-1.2-.47-.33-.31-.49-.69-.49-1.14,0-1.17.56-1.76,1.69-1.76s1.69.56,1.69,1.69Z"/>
  <path d="M98.98,42.2c0,2.42-.74,4.45-2.21,6.09-1.47,1.64-3.31,2.45-5.51,2.45s-4.17-.82-5.7-2.45c-1.52-1.64-2.29-3.67-2.29-6.09s.74-4.57,2.23-6.22c1.49-1.65,3.34-2.47,5.57-2.47s4.13.83,5.64,2.49c1.51,1.66,2.27,3.73,2.27,6.2ZM95.57,42.17c0-2.75-.43-4.88-1.27-6.41-.62-1.12-1.67-1.69-3.15-1.69s-2.49.72-3.28,2.16c-.79,1.44-1.18,3.43-1.18,5.98s.42,4.49,1.26,5.9c.84,1.41,2.01,2.12,3.5,2.12,1.15,0,2-.44,2.55-1.31,1.05-1.65,1.57-3.9,1.57-6.75Z"/>
  <path d="M112.73,36.13c0,.58-.18,1.05-.53,1.42-.35.37-.8.56-1.35.56-.45,0-.82-.13-1.12-.39s-.45-.59-.45-.99c0-.35.11-.65.34-.9.23-.25.34-.42.34-.53,0-.37-.28-.56-.82-.56-.7,0-1.3.44-1.8,1.31-.58,1.02-.86,2.91-.86,5.67v7.38c0,.3.11.48.32.56.21.08.86.12,1.93.15.27.05.41.15.41.3,0,.17-.16.26-.49.26h-7.27c-.4,0-.6-.08-.6-.22s.16-.23.49-.23h.52c.85,0,1.35-.1,1.5-.3.05-.1.08-.56.08-1.39v-10.36c0-1.38-.21-2.18-.62-2.39-.41-.21-1.07-.33-1.97-.36-.3,0-.45-.09-.45-.26s.12-.26.37-.26h.26c.37,0,.75.02,1.12.06s.54.06.49.06c.92,0,1.95-.26,3.07-.79l.49-.22.3-.11c.1.6.15,1.2.15,1.8v.75c.8-1.7,1.92-2.55,3.37-2.55.8,0,1.46.24,1.99.73.53.49.79,1.09.79,1.82Z"/>
  <path d="M125.36,45.53c0,1.45-.53,2.69-1.58,3.7-1.05,1.01-2.31,1.52-3.78,1.52-.84,0-1.87-.3-3.09-.9-.32-.17-.61-.26-.86-.26-.35,0-.61.24-.78.71-.1.3-.24.45-.41.45s-.26-.1-.26-.3v-5.02c0-.27.09-.41.26-.41.2,0,.31.14.34.42.15,1.16.47,2.06.97,2.72,1,1.31,2.34,1.96,4.01,1.96.9,0,1.62-.26,2.17-.79.55-.53.82-1.23.82-2.1,0-.98-.31-1.75-.94-2.33-.35-.33-.67-.56-.96-.7-.29-.14-1.13-.47-2.53-1-2.77-1.05-4.16-2.63-4.16-4.73,0-1.4.47-2.58,1.41-3.53.94-.95,2.11-1.43,3.5-1.43.5,0,1.24.15,2.23.45.25.08.47.11.67.11.52,0,.84-.25.97-.75.07-.25.19-.37.34-.37.17,0,.26.1.26.3v1.8c-.03.6.04,1.56.19,2.89v.08c0,.2-.1.3-.3.3-.15,0-.34-.38-.56-1.13-.28-.91-.76-1.64-1.44-2.19-.69-.55-1.48-.83-2.38-.83-.85,0-1.55.26-2.1.79-.55.53-.82,1.19-.82,1.99,0,1.25.84,2.2,2.51,2.86,2.6,1.03,4.25,1.88,4.95,2.55.9.88,1.35,1.94,1.35,3.19Z"/>
</svg>