<?xml version="1.0" encoding="UTF-8"?>
<svg id="Layer_1" xmlns="http://www.w3.org/2000/svg" version="1.1" viewBox="0 0 129.55 75">
  <!-- Generator: Adobe Illustrator 29.1.0, SVG Export Plug-In . SVG Version: 2.1.0 Build 142)  -->
  <g>
    <path d="M10.41,27.49v17.69h11.02v3.73H6.37v-21.42h4.04Z"/>
    <path d="M45.29,38.33c-.06,5.54-3.46,11.08-10.98,11.08s-11.02-5.42-11.02-11.05,3.61-11.29,11.02-11.29,11.05,5.66,10.98,11.26ZM27.27,38.42c.09,3.52,1.99,7.28,7.04,7.28s6.95-3.79,7.01-7.31c.06-3.61-1.96-7.65-7.01-7.65s-7.13,4.07-7.04,7.68Z"/>
    <path d="M64.79,32.73c-1.44-1.38-3.58-2.14-5.45-2.14-4.59,0-7.37,3.49-7.37,7.89,0,3.52,2.05,7.16,7.37,7.16,1.68,0,3.15-.37,4.83-1.71v-3.79h-5.48v-3.61h9.18v9.03c-2.11,2.42-4.77,3.86-8.54,3.86-8.05,0-11.32-5.29-11.32-10.92,0-6.03,3.76-11.6,11.32-11.6,2.88,0,5.75,1.1,7.96,3.27l-2.51,2.57h.01Z"/>
    <path d="M92.85,38.33c-.06,5.54-3.46,11.08-10.98,11.08s-11.02-5.42-11.02-11.05,3.61-11.29,11.02-11.29,11.05,5.66,10.98,11.26ZM74.82,38.42c.09,3.52,1.99,7.28,7.04,7.28s6.95-3.79,7.01-7.31c.06-3.61-1.96-7.65-7.01-7.65s-7.13,4.07-7.04,7.68Z"/>
  </g>
  <g>
    <g>
      <path d="M109.88,40.85l-5.34-.94c-3.45-.6-5.84-1.87-7.17-3.82v11.34l3.07-3.07c2.8,2.1,5.45,3.09,8.31,3.09,3.16,0,5.18-1.32,5.18-3.37,0-1.83-1.13-2.77-4.05-3.24h0Z"/>
      <path d="M115.34,30.91c-2.8-2.1-5.45-3.09-8.31-3.09-3.16,0-5.18,1.32-5.18,3.37,0,1.83,1.13,2.77,4.05,3.24l5.34.94c3.45.6,5.84,1.87,7.17,3.82v-11.34l-3.07,3.07h0Z"/>
    </g>
    <path d="M122.74,24.87c-.29-.32-.7-.48-1.22-.48s-.92.16-1.21.48-.44.75-.44,1.31c0,.36.07.68.21.94.14.27.33.47.57.6.24.13.55.2.93.2.48,0,.87-.16,1.16-.48s.44-.75.44-1.28-.15-.97-.44-1.29ZM121.53,24.98c.29,0,.52.1.69.3.12.14.2.33.23.57h-1.85c.03-.23.11-.42.23-.57.17-.2.4-.3.7-.3ZM121.53,27.33c-.27,0-.49-.1-.67-.29-.13-.14-.21-.33-.25-.57h1.84c-.04.25-.12.44-.25.58-.18.19-.4.29-.67.29h0Z"/>
  </g>
</svg>