<?xml version="1.0" encoding="UTF-8"?>
<svg id="Layer_1" xmlns="http://www.w3.org/2000/svg" version="1.1" viewBox="0 0 174.37 75">
  <!-- Generator: Adobe Illustrator 29.1.0, SVG Export Plug-In . SVG Version: 2.1.0 Build 142)  -->
  <path d="M21.19,36.59c0,4.34-2.78,6.87-7.62,6.87h-4.43v5.8h-3.25v-19.25h7.67c4.84,0,7.62,2.39,7.62,6.57ZM18.08,36.67c0-2.53-1.68-3.74-4.65-3.74h-4.29v7.62h4.29c2.97,0,4.65-1.26,4.65-3.88Z"/>
  <path d="M35.62,44.92h-9.71l-1.84,4.34h-3.38l8.5-19.25h3.33l8.41,19.25h-3.46l-1.84-4.34ZM34.38,42.03l-3.63-8.55-3.63,8.55h7.26Z"/>
  <path d="M51.57,32.82c-3.85,0-6.87,2.97-6.87,6.76s3.02,6.79,6.87,6.79c1.92,0,3.9-.88,5.36-2.28l1.92,2.15c-1.95,1.92-4.73,3.16-7.45,3.16-5.64,0-10.01-4.26-10.01-9.79s4.43-9.68,10.12-9.68c2.72,0,5.44,1.13,7.31,2.97l-1.9,2.36c-1.4-1.51-3.41-2.45-5.36-2.45Z"/>
  <path d="M74.99,49.26l-6.32-8.5-3.27,3.6v4.89h-3.25v-19.25h3.25v9.95l9.18-9.95h3.82l-7.45,8.22,7.95,11.03h-3.91Z"/>
  <path d="M94.32,44.92h-9.71l-1.84,4.34h-3.38l8.5-19.25h3.33l8.41,19.25h-3.46l-1.84-4.34ZM93.09,42.03l-3.63-8.55-3.63,8.55h7.26Z"/>
  <path d="M114.86,39.81h2.83v7.09c-1.95,1.48-4.84,2.5-7.48,2.5-5.69,0-10.12-4.26-10.12-9.76s4.48-9.71,10.31-9.71c2.75,0,5.5,1.04,7.4,2.69l-1.84,2.39c-1.48-1.38-3.55-2.2-5.55-2.2-3.93,0-7.01,3-7.01,6.82s3.11,6.85,7.04,6.85c1.43,0,3.05-.49,4.43-1.32v-5.36Z"/>
  <path d="M125.53,30.02v19.25h-3.25v-19.25h3.25Z"/>
  <path d="M133.78,30.02l10.31,13.83v-13.83h3.19v19.25h-3.19l-10.26-13.8v13.8h-3.25v-19.25h3.19Z"/>
  <path d="M165.53,39.81h2.83v7.09c-1.95,1.48-4.84,2.5-7.48,2.5-5.69,0-10.12-4.26-10.12-9.76s4.48-9.71,10.31-9.71c2.75,0,5.5,1.04,7.4,2.69l-1.84,2.39c-1.48-1.38-3.55-2.2-5.55-2.2-3.93,0-7.01,3-7.01,6.82s3.11,6.85,7.04,6.85c1.43,0,3.05-.49,4.43-1.32v-5.36Z"/>
</svg>