<?xml version="1.0" encoding="UTF-8"?>
<svg id="Layer_1" xmlns="http://www.w3.org/2000/svg" version="1.1" viewBox="0 0 107.25 75">
  <!-- Generator: Adobe Illustrator 29.1.0, SVG Export Plug-In . SVG Version: 2.1.0 Build 142)  -->
  <path d="M29.8,41.74c0-.68.03-1.37.09-2.04-.03-.04-.06-.08-.1-.11-1.81-2.04-4.69-3.48-8.64-4.32.84-.05,1.85-.31,3.03-.8s2.33-1.18,3.45-2.09c1.11-.91,2.07-2.03,2.86-3.38.79-1.35,1.18-2.93,1.18-4.74,0-1.95-.4-3.62-1.18-5.02-.79-1.39-1.85-2.55-3.17-3.48-1.32-.93-2.83-1.61-4.53-2.05-1.7-.44-3.45-.66-5.26-.66-2.32,0-4.27.28-5.85.84-1.58.56-2.86,1.24-3.83,2.05-.98.81-1.68,1.66-2.12,2.54-.44.88-.66,1.65-.66,2.3,0,1.35.39,2.39,1.18,3.13.79.74,1.74,1.11,2.86,1.11,1.25,0,2.27-.34,3.06-1.01.79-.67,1.18-1.57,1.18-2.68s-.28-1.97-.84-2.58c-.56-.6-1.23-1.02-2.02-1.25-.42-.14-.63-.42-.63-.84,0-.23.14-.46.42-.7.65-.51,1.6-.94,2.86-1.29,1.25-.35,2.55-.52,3.9-.52,1.81,0,3.25.3,4.32.91,1.07.6,1.87,1.37,2.4,2.3.53.93.87,1.95,1.01,3.06.14,1.11.21,2.21.21,3.27,0,1.9-.24,3.53-.73,4.88-.49,1.35-1.17,2.45-2.05,3.31-.88.86-1.9,1.49-3.06,1.88-1.16.4-2.44.59-3.83.59-.74,0-1.57-.05-2.47-.14-.91-.09-1.66-.14-2.26-.14-.56,0-.98.1-1.25.31-.28.21-.42.45-.42.73,0,.23.14.45.42.66.28.21.7.31,1.25.31.6,0,1.36-.03,2.26-.1s1.73-.1,2.47-.1c2.09,0,3.82.34,5.19,1.01,1.37.67,2.45,1.56,3.24,2.65.79,1.09,1.33,2.31,1.64,3.66.3,1.35.45,2.67.45,3.97,0,2.09-.24,3.92-.73,5.5-.49,1.58-1.17,2.89-2.05,3.94-.88,1.04-1.9,1.84-3.06,2.37-1.16.53-2.44.8-3.83.8-1.21,0-2.47-.2-3.8-.59-1.32-.39-2.4-.94-3.24-1.64-.33-.28-.49-.6-.49-.98,0-.14.05-.3.14-.49.09-.19.25-.32.49-.42.23-.09.55-.22.94-.38.39-.16.77-.41,1.11-.73.35-.32.65-.73.91-1.22.25-.49.38-1.1.38-1.85,0-1.58-.44-2.74-1.32-3.48-.88-.74-1.93-1.11-3.13-1.11s-2.25.42-3.13,1.25c-.88.84-1.32,2.02-1.32,3.55s.41,2.88,1.22,4.04c.81,1.16,1.85,2.12,3.1,2.89,1.25.77,2.67,1.35,4.25,1.74,1.58.39,3.13.59,4.67.59,2.27,0,4.36-.37,6.27-1.11,1.9-.74,3.55-1.75,4.95-3.03,1.39-1.28,2.47-2.75,3.24-4.42.19-.42.36-.84.5-1.27-.24-.5-.46-1.02-.67-1.55-.93-2.39-1.39-5-1.39-7.84Z"/>
  <path d="M58.74,36.93c0-.32,0-.63.01-.95-.23-.32-.46-.63-.72-.94-1.23-1.49-2.75-2.68-4.56-3.59s-3.9-1.36-6.27-1.36c-2,0-3.75.42-5.26,1.25-1.51.84-2.68,2.07-3.52,3.69.23-3.11.7-5.76,1.39-7.94.7-2.18,1.86-4.09,3.48-5.71.88-.93,1.88-1.79,3-2.58,1.11-.79,2.27-1.5,3.48-2.12,1.21-.63,2.44-1.17,3.69-1.64,1.25-.46,2.46-.84,3.62-1.11v-1.67c-1.11.19-2.42.51-3.9.98-1.49.46-3.09,1.09-4.81,1.88-1.72.79-3.46,1.8-5.22,3.03-1.77,1.23-3.48,2.71-5.15,4.42-2.6,2.69-4.62,5.7-6.06,9.02-1.15,2.66-1.84,5.36-2.07,8.09,1.74,2.02,2.62,4.47,2.62,7.34,0,1.43-.22,2.79-.65,4.09.83,1.75,1.83,3.3,3.03,4.65,1.53,1.74,3.31,3.1,5.33,4.07,2.02.98,4.12,1.46,6.3,1.46s4.27-.42,6.13-1.25c1.86-.84,3.47-1.97,4.84-3.41,1.37-1.44,2.43-3.1,3.17-4.98.27-.69.49-1.39.67-2.11-.52-1.2-.98-2.47-1.36-3.81-.81-2.86-1.22-5.79-1.22-8.81ZM54.24,48.08c0,1.63-.08,3.17-.24,4.63-.16,1.46-.52,2.74-1.08,3.83-.56,1.09-1.36,1.95-2.4,2.58s-2.43.94-4.14.94-3.04-.3-4.11-.91c-1.07-.6-1.9-1.44-2.51-2.51-.6-1.07-1.02-2.31-1.25-3.73-.23-1.42-.35-2.96-.35-4.63v-6.27c0-1.07.06-1.97.17-2.72.12-.74.22-1.32.31-1.74.46-1.62,1.36-3.06,2.68-4.32,1.32-1.25,3.1-1.88,5.33-1.88,1.58,0,2.87.27,3.87.8,1,.53,1.78,1.27,2.33,2.19.56.93.93,2.02,1.11,3.27.18,1.25.28,2.62.28,4.11v6.34Z"/>
  <path d="M88.43,25.62c-.76-.91-1.35-1.9-1.76-2.99-.41-1.08-.62-2.11-.62-3.08,0-.27.02-.55.05-.83-1.17-1.43-2.49-2.64-3.96-3.63-2.04-1.37-4.3-2.05-6.76-2.05s-4.71.69-6.76,2.05c-2.04,1.37-3.8,3.17-5.26,5.4-1.46,2.23-2.6,4.78-3.41,7.66-.73,2.57-1.13,5.18-1.2,7.83.88,1.24,1.57,2.6,2.07,4.08.63,1.86.94,3.74.94,5.64,0,1.32-.15,2.61-.45,3.84.59,1.36,1.28,2.63,2.05,3.82,1.46,2.23,3.22,4.03,5.26,5.4,2.04,1.37,4.29,2.05,6.76,2.05s4.71-.69,6.76-2.05c2.04-1.37,3.8-3.17,5.26-5.4,1.46-2.23,2.6-4.77,3.41-7.63.81-2.86,1.22-5.79,1.22-8.81s-.41-5.9-1.22-8.78c-.06-.2-.12-.4-.18-.6-.84-.54-1.58-1.19-2.21-1.94ZM84.38,42.16c0,3.44-.21,6.28-.63,8.53-.42,2.25-1.01,4.05-1.78,5.4-.77,1.35-1.71,2.29-2.82,2.82-1.11.53-2.37.8-3.76.8s-2.65-.27-3.76-.8c-1.11-.53-2.05-1.47-2.82-2.82-.77-1.35-1.36-3.15-1.78-5.4-.42-2.25-.63-5.1-.63-8.53v-10.45c0-3.44.21-6.28.63-8.53.42-2.25,1.01-4.05,1.78-5.4.77-1.35,1.71-2.29,2.82-2.82,1.11-.53,2.37-.8,3.76-.8s2.65.26,3.76.77c1.11.51,2.05,1.42,2.82,2.72.77,1.3,1.36,3.09,1.78,5.36.42,2.28.63,5.18.63,8.71v10.45Z"/>
  <path d="M102.8,16.48c-.41-1.08-.99-2.08-1.74-2.99-.75-.91-1.66-1.66-2.72-2.26-1.07-.6-2.26-.9-3.58-.9s-2.51.3-3.58.9c-1.07.6-1.98,1.36-2.75,2.26-.76.91-1.35,1.9-1.76,2.99-.3.78-.48,1.53-.56,2.25.46.56.89,1.15,1.3,1.77,1.36,2.07,2.44,4.43,3.24,7.06.17.11.35.22.53.32,1.07.6,2.26.9,3.58.9s2.51-.3,3.58-.9c1.07-.6,1.98-1.35,2.72-2.26.75-.91,1.33-1.9,1.74-2.99.41-1.08.62-2.11.62-3.08s-.21-1.99-.62-3.08ZM98.84,20.48c0,1.32-.05,2.45-.15,3.41-.1.95-.29,1.74-.57,2.35-.28.62-.69,1.08-1.23,1.38-.54.31-1.25.46-2.13.46s-1.59-.15-2.13-.46c-.54-.31-.96-.77-1.25-1.38-.29-.62-.49-1.4-.59-2.35-.1-.95-.15-2.09-.15-3.41v-1.89c0-1.23.05-2.31.15-3.25.1-.94.3-1.73.59-2.37.29-.64.71-1.13,1.25-1.45.54-.32,1.25-.48,2.13-.48s1.59.16,2.13.48c.54.32.95.81,1.23,1.45.28.64.47,1.44.57,2.37.1.94.15,2.02.15,3.25v1.89Z"/>
</svg>